{
.appVersion = "3133";
.formatVersion = 3;
classes = (
{
automatic = 1;
code = "A Aacute Acircumflex Adieresis Agrave Aring Atilde AE B C Ccedilla D Eth E Eacute Ecircumflex Edieresis Egrave F G H I Iacute Icircumflex Idieresis Igrave J K L M N Ntilde O Oacute Ocircumflex Odieresis Ograve Oslash Otilde OE P Thorn Q R S Germandbls T U Uacute Ucircumflex Udieresis Ugrave V W Wacute Wcircumflex Wdieresis Wgrave X Y Yacute Ycircumflex Ydieresis Ygrave Z J_A_M_O.dlig";
name = Uppercase;
}
);
customParameters = (
{
name = vendorID;
value = YMG;
},
{
name = unicodeRanges;
value = (
0
);
},
{
name = codePageRanges;
value = (
"1252",
"1250",
"949",
"1361"
);
},
{
name = fsType;
value = (
2
);
}
);
date = "2020-09-14 03:39:25 +0000";
familyName = Gasoek;
featurePrefixes = (
{
automatic = 1;
code = "languagesystem DFLT dflt;
";
name = Languagesystems;
}
);
features = (
{
automatic = 1;
code = "feature sups;
feature frac;
feature ordn;
feature onum;
feature case;
feature fwid;
feature ss01;
feature ss02;
";
tag = aalt;
},
{
automatic = 1;
code = "lookup ccmp_Other_1 {
	@CombiningTopAccents = [acutecomb circumflexcomb dieresiscomb dotaccentcomb gravecomb ringcomb tildecomb];
	@CombiningNonTopAccents = [cedillacomb];
	sub [i]' @CombiningTopAccents by [idotless];
	sub [i]' @CombiningNonTopAccents @CombiningTopAccents by [idotless];
} ccmp_Other_1;
";
tag = ccmp;
},
{
automatic = 1;
code = "sub one by onesuperior;
sub two by twosuperior;
sub three by threesuperior;
sub four by foursuperior;
";
tag = sups;
},
{
automatic = 1;
code = "sub one slash four by onequarter;
sub one slash two by onehalf;
sub three slash four by threequarters;
";
tag = frac;
},
{
automatic = 1;
code = "sub [zero one two three four five six seven eight nine] [A a]' by ordfeminine;
sub [zero one two three four five six seven eight nine] [O o]' by ordmasculine;
";
tag = ordn;
},
{
automatic = 1;
code = "sub zero by zero.osf;
sub one by one.osf;
sub two by two.osf;
sub three by three.osf;
sub four by four.osf;

glyphs = (
{
glyphname = A;
kernLeft = A;
kernRight = A;
lastChange = "2022-11-05 04:01:48 +0000";
layers = (
{
hints = (
{
horizontal = 1;
place = (-179, 13);
place = (-179, 13);
type = Stem;
},
{
horizontal = 1;
place = (-141, 30);
place = (-141, 30);
type = Stem;
}
);
layerId = "75B71696-F68C-493E-998D-CC33CA41914E";
shapes = (
{
closed = 1;
nodes = (
(680,740,l),
(220,740,l),
(0,-113,l),
(360,-113,l),
(371,-11,l),
(529,-11,l),
(540,-113,l),
(900,-113,l)
);
},
{
closed = 1;
nodes = (
(480,424,l),
(492,319,l),
(408,319,l),
(420,424,l)
);
}
);
width = 898;
}
);
unicode = 65;
},
{
glyphname = Aacute;
kernLeft = A;
kernRight = A;
lastChange = "2022-05-01 03:47:56 +0000";
layers = (
{
hints = (
{
horizontal = 1;
place = (-179, 13);
place = (-179, 13);
type = Stem;
},
{
horizontal = 1;
place = (-141, 30);
place = (-141, 30);
type = Stem;
}
);
layerId = "75B71696-F68C-493E-998D-CC33CA41914E";
shapes = (
{
closed = 1;
nodes = (
(364,965,l),
(275,770,l),
(552,770,l),
(705,965,l)
);
},
{
closed = 1;
nodes = (
(680,740,l),
(220,740,l),
(0,-113,l),
(360,-113,l),
(371,-11,l),
(529,-11,l),
(540,-113,l),
(900,-113,l)
);
},
{
closed = 1;
nodes = (
(480,424,l),
(492,319,l),
(408,319,l),
(420,424,l)
);
}
);
width = 896;
}
);
unicode = 193;
},
{
glyphname = Acircumflex;
kernLeft = A;
kernRight = A;
lastChange = "2022-05-01 03:48:02 +0000";
layers = (
{
hints = (
{
horizontal = 1;
place = (-179, 13);
place = (-179, 13);
type = Stem;
},
{
horizontal = 1;
place = (-141, 30);
place = (-141, 30);
type = Stem;
}
);
layerId = "75B71696-F68C-493E-998D-CC33CA41914E";
shapes = (
{
closed = 1;
nodes = (
(680,740,l),
(220,740,l),
(0,-113,l),
(360,-113,l),
(371,-11,l),
(529,-11,l),
(540,-113,l),
(900,-113,l)
);
},
{
closed = 1;
nodes = (
(480,424,l),
(492,319,l),
(408,319,l),
(420,424,l)
);
},
{
closed = 1;
nodes = (
(298,965,l),
(155,770,l),
(420,770,l),
(453,846,l),
(486,770,l),
(751,770,l),
(608,965,l)
);
}
);
width = 898;
}
);
unicode = 194;
},
{
glyphname = Adieresis;
kernLeft = A;
kernRight = A;
lastChange = "2022-05-01 03:48:07 +0000";
layers = (
{
anchors = (
{
name = top;
pos = (507,770);
}
);
hints = (
{
horizontal = 1;
place = (-179, 13);
place = (-179, 13);
type = Stem;
},
{
horizontal = 1;
place = (-141, 30);
place = (-141, 30);
type = Stem;
}
);
layerId = "75B71696-F68C-493E-998D-CC33CA41914E";
shapes = (
{
closed = 1;
nodes = (
(680,740,l),
(220,740,l),
(0,-113,l),
(360,-113,l),
(371,-11,l),
(529,-11,l),
(540,-113,l),
(900,-113,l)
);
},
{
closed = 1;
nodes = (
(480,424,l),
(492,319,l),
(408,319,l),
(420,424,l)
);
},
{
closed = 1;
nodes = (
(430,770,l),
(430,965,l),
(206,965,l),
(206,770,l)
);
},
{
closed = 1;
nodes = (
(694,770,l),
(694,965,l),
(470,965,l),
(470,770,l)
);
}
);
width = 898;
}
);
unicode = 196;
},
{
glyphname = Agrave;
kernLeft = A;
kernRight = A;
lastChange = "2022-05-01 03:48:14 +0000";
layers = (
{
hints = (
{
horizontal = 1;
place = (-179, 13);
place = (-179, 13);
type = Stem;
},
{
horizontal = 1;
place = (-141, 30);
place = (-141, 30);
type = Stem;
}
);
layerId = "75B71696-F68C-493E-998D-CC33CA41914E";
shapes = (
{
closed = 1;
nodes = (
(544,965,l),
(203,965,l),
(356,770,l),
(633,770,l)
);
},
{
closed = 1;
nodes = (
(680,740,l),
(220,740,l),
(0,-113,l),
(360,-113,l),
(371,-11,l),
(529,-11,l),
(540,-113,l),
(900,-113,l)
);
},
{
closed = 1;
nodes = (
(480,424,l),
(492,319,l),
(408,319,l),
(420,424,l)
);
}
);
width = 896;
}
);
unicode = 192;
},
{
glyphname = Aring;
kernLeft = A;
kernRight = A;
lastChange = "2022-05-01 03:48:19 +0000";
layers = (
{
hints = (
{
horizontal = 1;
place = (-179, 13);
place = (-179, 13);
type = Stem;
},
{
horizontal = 1;
place = (-141, 30);
place = (-141, 30);
type = Stem;
}
);
layerId = "75B71696-F68C-493E-998D-CC33CA41914E";
shapes = (
{
closed = 1;
nodes = (
(680,740,l),
(220,740,l),
(0,-113,l),
(360,-113,l),
(371,-11,l),
(529,-11,l),
(540,-113,l),
(900,-113,l)
);
},
{
closed = 1;
nodes = (
(480,424,l),
(492,319,l),
(408,319,l),
(420,424,l)
);
},
{
closed = 1;
nodes = (
(690,937,o),
(638,990,o),
(445,990,cs),
(252,990,o),
(210,937,o),
(210,891,cs),
(210,863,ls),
(210,816,o),
(252,764,o),
(445,764,cs),
(638,763,o),
(690,816,o),
(690,863,cs),
(690,891,ls)
);
},
{
closed = 1;
nodes = (
(500,860,o),
(482,851,o),
(450,852,cs),
(418,852,o),
(400,860,o),
(400,874,cs),
(400,881,ls),
(400,894,o),
(418,902,o),
(450,902,cs),
(482,902,o),
(500,894,o),
(500,881,cs),
(500,874,ls)
);
}
);
width = 898;
}
);
unicode = 197;
},
{
glyphname = Atilde;
kernLeft = A;
kernRight = A;
lastChange = "2022-05-01 03:48:25 +0000";
layers = (
{
hints = (
{
horizontal = 1;
place = (-179, 13);
place = (-179, 13);
type = Stem;
},
{
horizontal = 1;
place = (-141, 30);
place = (-141, 30);
type = Stem;
}
);
layerId = "75B71696-F68C-493E-998D-CC33CA41914E";
shapes = (
{
closed = 1;
nodes = (
(680,740,l),
(220,740,l),
(0,-113,l),
(360,-113,l),
(371,-11,l),
(529,-11,l),
(540,-113,l),
(900,-113,l)
);
},
{
closed = 1;
nodes = (
(480,424,l),
(492,319,l),
(408,319,l),
(420,424,l)
);
},
{
closed = 1;
nodes = (
(588,766,o),
(651,783,o),
(701,830,c),
(642,974,l),
(618,957,o),
(595,942,o),
(555,942,cs),
(480,942,o),
(474,973,o),
(381,973,cs),
(331,973,o),
(274,961,o),
(207,909,c),
(255,765,l),
(280,783,o),
(308,800,o),
(352,800,cs),
(428,800,o),
(434,766,o),
(524,766,cs)
);
}
);
width = 898;
}
);
unicode = 195;
},
{
glyphname = AE;
kernLeft = A;
lastChange = "2022-05-01 03:02:20 +0000";
layers = (
{
layerId = "75B71696-F68C-493E-998D-CC33CA41914E";
shapes = (
{
closed = 1;
nodes = (
(1113,222,l),
(1113,445,l),
(853,445,l),
(853,490,l),
(1138,490,l),
(1138,740,l),
(257,740,l),
(-2,-113,l),
(368,-113,l),
(388,-11,l),
(513,-11,l),
(513,-113,l),
(1154,-113,l),
(1154,177,l),
(853,177,l),
(853,222,l)
);
},
{
closed = 1;
nodes = (
(513,299,l),
(447,299,l),
(484,490,l),
(513,490,l)
);
}
);
width = 1164;
}
);
unicode = 198;
},
{
glyphname = B;
kernRight = B;
lastChange = "2022-05-01 03:51:25 +0000";
layers = (
{
layerId = "75B71696-F68C-493E-998D-CC33CA41914E";
shapes = (
{
closed = 1;
nodes = (
(773,365,o),
(792,419,o),
(792,503,cs),
(792,668,o),
(653,740,o),
(510,740,cs),
(27,740,l),
(27,-113,l),
(560,-113,ls),
(698,-114,o),
(822,-56,o),
(822,129,cs),
(822,226,o),
(790,291,o),
(738,331,c)
);
},
{
closed = 1;
nodes = (
(461,459,o),
(483,453,o),
(483,428,cs),
(483,404,o),
(465,399,o),
(453,399,cs),
(367,399,l),
(367,459,l),
(449,459,ls)
);
},
{
closed = 1;
nodes = (
(367,227,l),
(478,227,ls),
(490,227,o),
(512,221,o),
(512,196,cs),
(512,172,o),
(494,167,o),
(482,167,cs),
(367,167,l)
);
}
);
width = 837;
}
);
metricLeft = H;
unicode = 66;
},
{
glyphname = C;
kernLeft = O;
kernRight = C;
lastChange = "2022-05-01 03:51:30 +0000";
layers = (
{
layerId = "75B71696-F68C-493E-998D-CC33CA41914E";
shapes = (
{
closed = 1;
nodes = (
(474,183,ls),
(474,164,o),
(463,153,o),
(444,153,cs),
(425,153,o),
(414,164,o),
(414,183,cs),
(414,453,ls),
(414,472,o),
(425,483,o),
(444,483,cs),
(463,483,o),
(474,472,o),
(474,453,cs),
(474,363,l),
(838,403,l),
(838,510,ls),
(832,669,o),
(680,763,o),
(428,763,cs),
(203,763,o),
(48,669,o),
(28,506,cs),
(23,466,o),
(20,397,o),
(20,318,cs),
(20,239,o),
(23,170,o),
(28,130,cs),
(48,-33,o),
(203,-128,o),
(428,-128,cs),
(686,-128,o),
(838,-31,o),
(838,132,cs),
(838,283,l),
(474,303,l)
);
}
);
width = 858;
}
);
metricLeft = O;
unicode = 67;
},
{
glyphname = Ccedilla;
kernLeft = O;
kernRight = C;
lastChange = "2022-05-01 03:51:44 +0000";
layers = (
{
layerId = "75B71696-F68C-493E-998D-CC33CA41914E";
shapes = (
{
closed = 1;
nodes = (
(20,239,o),
(23,170,o),
(28,130,cs),
(43,5,o),
(139,-81,o),
(284,-113,c),
(247,-169,l),
(378,-175,o),
(421,-179,o),
(421,-197,cs),
(421,-215,o),
(351,-210,o),
(218,-190,c),
(205,-312,l),
(428,-361,o),
(661,-332,o),
(661,-233,cs),
(661,-178,o),
(638,-147,o),
(547,-129,c),
(552,-119,l),
(734,-93,o),
(838,-3,o),
(838,132,cs),
(838,283,l),
(474,303,l),
(474,183,ls),
(474,164,o),
(463,153,o),
(444,153,cs),
(425,153,o),
(414,164,o),
(414,183,cs),
(414,453,ls),
(414,472,o),
(425,483,o),
(444,483,cs),
(463,483,o),
(474,472,o),
(474,453,cs),
(474,363,l),
(838,403,l),
(838,510,ls),
(832,669,o),
(680,763,o),
(428,763,cs),
(203,763,o),
(48,669,o),
(28,506,cs),
(23,466,o),
(20,397,o),
(20,318,cs)
);
}
);
width = 858;
}
);
unicode = 199;
},
{
glyphname = D;
kernRight = O;
lastChange = "2022-05-01 03:51:49 +0000";
layers = (
{
layerId = "75B71696-F68C-493E-998D-CC33CA41914E";
shapes = (
{
closed = 1;
nodes = (
(27,-113,l),
(364,-113,ls),
(823,-114,o),
(820,75,o),
(822,284,cs),
(825,554,o),
(800,740,o),
(367,740,cs),
(27,740,l)
);
},
{
closed = 1;
nodes = (
(447,189,o),
(447,164,o),
(417,164,cs),
(387,164,o),
(387,189,o),
(387,194,cs),
(387,434,ls),
(387,439,o),
(387,464,o),
(417,464,cs),
(447,464,o),
(447,439,o),
(447,434,cs),
(447,194,ls)
);
}
);
width = 840;
}
);
metricLeft = H;
unicode = 68;
},
{
glyphname = Eth;
kernRight = O;
lastChange = "2022-05-01 03:02:20 +0000";
layers = (
{
layerId = "75B71696-F68C-493E-998D-CC33CA41914E";
shapes = (
{
closed = 1;
nodes = (
(70,367,l),
(4,367,l),
(4,267,l),
(70,267,l),
(70,-113,l),
(407,-113,ls),
(866,-114,o),
(863,75,o),
(865,284,cs),
(868,554,o),
(843,740,o),
(410,740,cs),
(70,740,l)
);
},
{
closed = 1;
nodes = (
(490,189,o),
(490,164,o),
(460,164,cs),
(430,164,o),
(430,189,o),
(430,194,cs),
(430,267,l),
(470,267,l),
(470,367,l),
(430,367,l),
(430,434,ls),
(430,439,o),
(430,464,o),
(460,464,cs),
(490,464,o),
(490,439,o),
(490,434,cs),
(490,194,ls)
);
}
);
width = 885;
}
);
unicode = 208;
},
{
glyphname = E;
kernLeft = H;
kernRight = E;
lastChange = "2022-05-01 03:02:20 +0000";
layers = (
{
anchors = (
{
name = bottom;
pos = (287,0);
},
{
name = ogonek;
pos = (527,10);
},
{
name = top;
pos = (287,700);
},
{
name = topleft;
pos = (7,700);
}
);
layerId = "75B71696-F68C-493E-998D-CC33CA41914E";
shapes = (
{
closed = 1;
nodes = (
(667,222,l),
(667,445,l),
(377,445,l),
(377,490,l),
(697,490,l),
(697,740,l),
(27,741,l),
(27,-113,l),
(717,-113,l),
(717,177,l),
(377,177,l),
(377,222,l)
);
}
);
width = 732;
}
);
metricLeft = H;
unicode = 69;
},
{
glyphname = Eacute;
kernLeft = H;
kernRight = E;
lastChange = "2022-05-01 03:52:02 +0000";
layers = (
{
layerId = "75B71696-F68C-493E-998D-CC33CA41914E";
shapes = (
{
closed = 1;
nodes = (
(667,222,l),
(667,445,l),
(377,445,l),
(377,490,l),
(697,490,l),
(697,740,l),
(27,741,l),
(27,-113,l),
(717,-113,l),
(717,177,l),
(377,177,l),
(377,222,l)
);
},
{
closed = 1;
nodes = (
(280,965,l),
(191,770,l),
(468,770,l),
(621,965,l)
);
}
);
width = 732;
}
);
unicode = 201;
},
{
glyphname = Ecircumflex;
kernLeft = H;
kernRight = E;
lastChange = "2022-05-01 03:52:09 +0000";
layers = (
{
layerId = "75B71696-F68C-493E-998D-CC33CA41914E";
shapes = (
{
closed = 1;
nodes = (
(667,222,l),
(667,445,l),
(377,445,l),
(377,490,l),
(697,490,l),
(697,740,l),
(27,741,l),
(27,-113,l),
(717,-113,l),
(717,177,l),
(377,177,l),
(377,222,l)
);
},
{
closed = 1;
nodes = (
(210,965,l),
(67,770,l),
(332,770,l),
(365,846,l),
(398,770,l),
(663,770,l),
(520,965,l)
);
}
);
width = 732;
}
);
unicode = 202;
},
{
glyphname = Edieresis;
kernLeft = H;
kernRight = E;
lastChange = "2022-05-01 03:52:16 +0000";
layers = (
{
layerId = "75B71696-F68C-493E-998D-CC33CA41914E";
shapes = (
{
closed = 1;
nodes = (
(667,222,l),
(667,445,l),
(377,445,l),
(377,490,l),
(697,490,l),
(697,740,l),
(27,741,l),
(27,-113,l),
(717,-113,l),
(717,177,l),
(377,177,l),
(377,222,l)
);
},
{
closed = 1;
nodes = (
(345,770,l),
(345,965,l),
(121,965,l),
(121,770,l)
);
},
{
closed = 1;
nodes = (
(609,770,l),
(609,965,l),
(385,965,l),
(385,770,l)
);
}
);
width = 732;
}
);
unicode = 203;
},
{
glyphname = Egrave;
kernLeft = H;
kernRight = E;
lastChange = "2022-05-01 03:52:23 +0000";
layers = (
{
layerId = "75B71696-F68C-493E-998D-CC33CA41914E";
shapes = (
{
closed = 1;
nodes = (
(667,222,l),
(667,445,l),
(377,445,l),
(377,490,l),
(697,490,l),
(697,740,l),
(27,741,l),
(27,-113,l),
(717,-113,l),
(717,177,l),
(377,177,l),
(377,222,l)
);
},
{
closed = 1;
nodes = (
(456,965,l),
(115,965,l),
(268,770,l),
(545,770,l)
);
}
);
width = 730;
}
);
unicode = 200;
},
{
glyphname = F;
lastChange = "2022-05-01 03:52:27 +0000";
layers = (
{
layerId = "75B71696-F68C-493E-998D-CC33CA41914E";
shapes = (
{
closed = 1;
nodes = (
(27,741,l),
(27,-112,l),
(377,-113,l),
(377,182,l),
(697,182,l),
(697,425,l),
(377,425,l),
(377,470,l),
(707,470,l),
(707,740,l)
);
}
);
width = 725;
}
);
metricLeft = H;
unicode = 70;
},
{
glyphname = G;
kernLeft = O;
lastChange = "2022-05-01 03:52:32 +0000";
layers = (
{
layerId = "75B71696-F68C-493E-998D-CC33CA41914E";
shapes = (
{
closed = 1;
nodes = (
(834,673,o),
(685,769,o),
(440,769,cs),
(209,769,o),
(57,672,o),
(30,507,cs),
(24,467,o),
(20,398,o),
(20,319,cs),
(20,240,o),
(24,171,o),
(30,131,cs),
(56,-31,o),
(208,-127,o),
(440,-127,cs),
(691,-127,o),
(840,-30,o),
(840,133,cs),
(840,404,l),
(450,404,l),
(450,215,l),
(490,215,l),
(490,184,ls),
(490,159,o),
(475,144,o),
(450,144,cs),
(425,144,o),
(410,159,o),
(410,184,cs),
(410,454,ls),
(410,479,o),
(425,494,o),
(450,494,cs),
(475,494,o),
(490,479,o),
(490,454,cs),
(490,434,l),
(840,474,l),
(840,511,ls)
);
}
);
width = 860;
}
);
metricLeft = O;
unicode = 71;
},
{
glyphname = H;
kernLeft = H;
kernRight = H;
lastChange = "2022-05-01 03:52:37 +0000";
layers = (
{
layerId = "75B71696-F68C-493E-998D-CC33CA41914E";
shapes = (
{
closed = 1;
nodes = (
(387,503,l),
(387,740,l),
(27,741,l),
(27,-112,l),
(387,-113,l),
(387,163,l),
(477,163,l),
(477,-113,l),
(837,-114,l),
(837,739,l),
(477,740,l),
(477,503,l)
);
}
);
width = 864;
}
);
unicode = 72;
},
{
glyphname = I;
lastChange = "2022-05-01 03:02:20 +0000";
layers = (
{
layerId = "75B71696-F68C-493E-998D-CC33CA41914E";
shapes = (
{
closed = 1;
nodes = (
(377,740,l),
(27,740,l),
(27,-113,l),
(377,-114,l)
);
}
);
width = 404;
}
);
metricLeft = H;
metricRight = H;
unicode = 73;
},
{
glyphname = Iacute;
lastChange = "2022-05-01 03:52:41 +0000";
layers = (
{
layerId = "75B71696-F68C-493E-998D-CC33CA41914E";
shapes = (
{
closed = 1;
nodes = (
(377,740,l),
(27,740,l),
(27,-113,l),
(377,-114,l)
);
},
{
closed = 1;
nodes = (
(135,965,l),
(46,770,l),
(323,770,l),
(476,965,l)
);
}
);
width = 404;
}
);
unicode = 205;
},
{
glyphname = Icircumflex;
lastChange = "2022-05-01 03:52:43 +0000";
layers = (
{
layerId = "75B71696-F68C-493E-998D-CC33CA41914E";
shapes = (
{
closed = 1;
nodes = (
(377,740,l),
(27,740,l),
(27,-113,l),
(377,-114,l)
);
},
{
closed = 1;
nodes = (
(55,965,l),
(-88,770,l),
(177,770,l),
(210,846,l),
(243,770,l),
(508,770,l),
(365,965,l)
);
}
);
width = 404;
}
);
unicode = 206;
},
{
glyphname = Idieresis;
lastChange = "2022-05-01 03:02:20 +0000";
layers = (
{
layerId = "75B71696-F68C-493E-998D-CC33CA41914E";
shapes = (
{
closed = 1;
nodes = (
(377,740,l),
(27,740,l),
(27,-113,l),
(377,-114,l)
);
},
{
closed = 1;
nodes = (
(190,770,l),
(190,965,l),
(-34,965,l),
(-34,770,l)
);
},
{
closed = 1;
nodes = (
(454,770,l),
(454,965,l),
(230,965,l),
(230,770,l)
);
}
);
width = 404;
}
);
unicode = 207;
},
{
glyphname = Igrave;
lastChange = "2022-05-01 03:52:52 +0000";
layers = (
{
layerId = "75B71696-F68C-493E-998D-CC33CA41914E";
shapes = (
{
closed = 1;
nodes = (
(377,740,l),
(27,740,l),
(27,-113,l),
(377,-114,l)
);
},
{
closed = 1;
nodes = (
(267,965,l),
(-74,965,l),
(79,770,l),
(356,770,l)
);
}
);
width = 420;
}
);
unicode = 204;
},
{
glyphname = J;
lastChange = "2022-05-01 04:12:32 +0000";
layers = (
{
layerId = "75B71696-F68C-493E-998D-CC33CA41914E";
shapes = (
{
closed = 1;
nodes = (
(326,-134,o),
(564,-122,o),
(564,206,cs),
(564,740,l),
(204,740,l),
(204,279,ls),
(204,168,o),
(143,176,o),
(24,178,c),
(15,-122,l)
);
}
);
width = 589;
}
);
unicode = 74;
},
{
glyphname = K;
lastChange = "2022-05-01 04:12:37 +0000";
layers = (
{
layerId = "75B71696-F68C-493E-998D-CC33CA41914E";
shapes = (
{
closed = 1;
nodes = (
(362,202,l),
(372,202,l),
(457,-113,l),
(847,-113,l),
(643,351,l),
(827,740,l),
(467,740,l),
(372,427,l),
(362,427,l),
(372,550,l),
(377,740,l),
(27,741,l),
(27,-112,l),
(367,-113,l)
);
}
);
width = 862;
}
);
metricLeft = H;
unicode = 75;
},
{
glyphname = L;
lastChange = "2022-05-01 04:13:35 +0000";
layers = (
{
layerId = "75B71696-F68C-493E-998D-CC33CA41914E";
shapes = (
{
closed = 1;
nodes = (
(27,741,l),
(27,-113,l),
(717,-113,l),
(717,227,l),
(377,227,l),
(377,740,l)
);
}
);
width = 737;
}
);
metricLeft = H;
unicode = 76;
},
{
glyphname = M;
lastChange = "2022-05-01 03:02:20 +0000";
layers = (
{
layerId = "75B71696-F68C-493E-998D-CC33CA41914E";
shapes = (
{
closed = 1;
nodes = (
(355,343,l),
(365,343,l),
(435,-113,l),
(615,-113,l),
(685,331,l),
(695,331,l),
(695,-113,l),
(1025,-113,l),
(1005,740,l),
(579,740,l),
(532,455,l),
(522,455,l),
(475,740,l),
(45,740,l),
(25,-113,l),
(355,-113,l)
);
}
);
width = 1050;
}
);
unicode = 77;
},
{
glyphname = N;
lastChange = "2022-05-01 04:13:42 +0000";
layers = (
{
layerId = "75B71696-F68C-493E-998D-CC33CA41914E";
shapes = (
{
closed = 1;
nodes = (
(350,287,l),
(360,287,l),
(465,-113,l),
(825,-113,l),
(825,740,l),
(495,740,l),
(500,431,l),
(490,431,l),
(415,740,l),
(25,740,l),
(25,-113,l),
(355,-113,l)
);
}
);
width = 850;
}
);
unicode = 78;
},
{
glyphname = Ntilde;
lastChange = "2022-05-01 04:13:46 +0000";
layers = (
{
layerId = "75B71696-F68C-493E-998D-CC33CA41914E";
shapes = (
{
closed = 1;
nodes = (
(350,287,l),
(360,287,l),
(465,-113,l),
(825,-113,l),
(825,740,l),
(495,740,l),
(500,431,l),
(490,431,l),
(415,740,l),
(25,740,l),
(25,-113,l),
(355,-113,l)
);
},
{
closed = 1;
nodes = (
(560,766,o),
(623,783,o),
(673,830,c),
(614,974,l),
(590,957,o),
(567,942,o),
(527,942,cs),
(452,942,o),
(446,973,o),
(353,973,cs),
(303,973,o),
(246,961,o),
(179,909,c),
(227,765,l),
(252,783,o),
(280,800,o),
(324,800,cs),
(400,800,o),
(406,766,o),
(496,766,cs)
);
}
);
width = 850;
}
);
unicode = 209;
},
{
glyphname = O;
kernLeft = O;
kernRight = O;
lastChange = "2022-05-01 04:13:56 +0000";
layers = (
{
layerId = "75B71696-F68C-493E-998D-CC33CA41914E";
shapes = (
{
closed = 1;
nodes = (
(836,159,o),
(840,233,o),
(840,317,cs),
(840,401,o),
(836,475,o),
(830,516,cs),
(806,675,o),
(658,769,o),
(430,769,cs),
(203,769,o),
(54,674,o),
(30,512,cs),
(24,471,o),
(20,397,o),
(20,314,cs),
(20,231,o),
(24,157,o),
(30,116,cs),
(54,-40,o),
(202,-132,o),
(430,-132,cs),
(658,-132,o),
(806,-39,o),
(830,118,cs)
);
},
{
closed = 1;
nodes = (
(460,150,o),
(449,139,o),
(430,139,cs),
(411,139,o),
(400,150,o),
(400,169,cs),
(400,459,ls),
(400,478,o),
(411,489,o),
(430,489,cs),
(449,489,o),
(460,478,o),
(460,459,cs),
(460,169,ls)
);
}
);
width = 860;
}
);
metricLeft = O;
unicode = 79;
},
{
glyphname = Oacute;
kernLeft = O;
kernRight = O;
lastChange = "2022-05-01 04:14:41 +0000";
layers = (
{
layerId = "75B71696-F68C-493E-998D-CC33CA41914E";
shapes = (
{
closed = 1;
nodes = (
(836,159,o),
(840,233,o),
(840,317,cs),
(840,401,o),
(836,475,o),
(830,516,cs),
(806,675,o),
(658,769,o),
(430,769,cs),
(203,769,o),
(54,674,o),
(30,512,cs),
(24,471,o),
(20,397,o),
(20,314,cs),
(20,231,o),
(24,157,o),
(30,116,cs),
(54,-40,o),
(202,-132,o),
(430,-132,cs),
(658,-132,o),
(806,-39,o),
(830,118,cs)
);
},
{
closed = 1;
nodes = (
(460,150,o),
(449,139,o),
(430,139,cs),
(411,139,o),
(400,150,o),
(400,169,cs),
(400,459,ls),
(400,478,o),
(411,489,o),
(430,489,cs),
(449,489,o),
(460,478,o),
(460,459,cs),
(460,169,ls)
);
},
{
closed = 1;
nodes = (
(345,985,l),
(256,790,l),
(533,790,l),
(686,985,l)
);
}
);
width = 860;
}
);
unicode = 211;
},
{
glyphname = Ocircumflex;
kernLeft = O;
kernRight = O;
lastChange = "2022-05-01 04:14:49 +0000";
layers = (
{
layerId = "75B71696-F68C-493E-998D-CC33CA41914E";
shapes = (
{
closed = 1;
nodes = (
(836,159,o),
(840,233,o),
(840,317,cs),
(840,401,o),
(836,475,o),
(830,516,cs),
(806,675,o),
(658,769,o),
(430,769,cs),
(203,769,o),
(54,674,o),
(30,512,cs),
(24,471,o),
(20,397,o),
(20,314,cs),
(20,231,o),
(24,157,o),
(30,116,cs),
(54,-40,o),
(202,-132,o),
(430,-132,cs),
(658,-132,o),
(806,-39,o),
(830,118,cs)
);
},
{
closed = 1;
nodes = (
(460,150,o),
(449,139,o),
(430,139,cs),
(411,139,o),
(400,150,o),
(400,169,cs),
(400,459,ls),
(400,478,o),
(411,489,o),
(430,489,cs),
(449,489,o),
(460,478,o),
(460,459,cs),
(460,169,ls)
);
},
{
closed = 1;
nodes = (
(275,985,l),
(132,790,l),
(397,790,l),
(430,866,l),
(463,790,l),
(728,790,l),
(585,985,l)
);
}
);
width = 860;
}
);
unicode = 212;
},
{
glyphname = Odieresis;
kernLeft = O;
kernRight = O;
lastChange = "2022-05-01 04:14:57 +0000";
layers = (
{
layerId = "75B71696-F68C-493E-998D-CC33CA41914E";
shapes = (
{
closed = 1;
nodes = (
(836,159,o),
(840,233,o),
(840,317,cs),
(840,401,o),
(836,475,o),
(830,516,cs),
(806,675,o),
(658,769,o),
(430,769,cs),
(203,769,o),
(54,674,o),
(30,512,cs),
(24,471,o),
(20,397,o),
(20,314,cs),
(20,231,o),
(24,157,o),
(30,116,cs),
(54,-40,o),
(202,-132,o),
(430,-132,cs),
(658,-132,o),
(806,-39,o),
(830,118,cs)
);
},
{
closed = 1;
nodes = (
(460,150,o),
(449,139,o),
(430,139,cs),
(411,139,o),
(400,150,o),
(400,169,cs),
(400,459,ls),
(400,478,o),
(411,489,o),
(430,489,cs),
(449,489,o),
(460,478,o),
(460,459,cs),
(460,169,ls)
);
},
{
closed = 1;
nodes = (
(410,790,l),
(410,985,l),
(186,985,l),
(186,790,l)
);
},
{
closed = 1;
nodes = (
(674,790,l),
(674,985,l),
(450,985,l),
(450,790,l)
);
}
);
width = 860;
}
);
unicode = 214;
},
{
glyphname = Ograve;
kernLeft = O;
kernRight = O;
lastChange = "2022-05-01 04:15:06 +0000";
layers = (
{
layerId = "75B71696-F68C-493E-998D-CC33CA41914E";
shapes = (
{
closed = 1;
nodes = (
(836,159,o),
(840,233,o),
(840,317,cs),
(840,401,o),
(836,475,o),
(830,516,cs),
(806,675,o),
(658,769,o),
(430,769,cs),
(203,769,o),
(54,674,o),
(30,512,cs),
(24,471,o),
(20,397,o),
(20,314,cs),
(20,231,o),
(24,157,o),
(30,116,cs),
(54,-40,o),
(202,-132,o),
(430,-132,cs),
(658,-132,o),
(806,-39,o),
(830,118,cs)
);
},
{
closed = 1;
nodes = (
(460,150,o),
(449,139,o),
(430,139,cs),
(411,139,o),
(400,150,o),
(400,169,cs),
(400,459,ls),
(400,478,o),
(411,489,o),
(430,489,cs),
(449,489,o),
(460,478,o),
(460,459,cs),
(460,169,ls)
);
},
{
closed = 1;
nodes = (
(521,985,l),
(180,985,l),
(333,790,l),
(610,790,l)
);
}
);
width = 870;
}
);
unicode = 210;
},
{
glyphname = Oslash;
kernLeft = O;
kernRight = O;
lastChange = "2022-05-01 04:15:15 +0000";
layers = (
{
layerId = "75B71696-F68C-493E-998D-CC33CA41914E";
shapes = (
{
closed = 1;
nodes = (
(54,-103,l),
(135,-162,l),
(806,740,l),
(725,799,l)
);
},
{
closed = 1;
nodes = (
(836,159,o),
(840,233,o),
(840,317,cs),
(840,401,o),
(836,475,o),
(830,516,cs),
(806,675,o),
(658,769,o),
(430,769,cs),
(203,769,o),
(54,674,o),
(30,512,cs),
(24,471,o),
(20,397,o),
(20,314,cs),
(20,231,o),
(24,157,o),
(30,116,cs),
(54,-40,o),
(202,-132,o),
(430,-132,cs),
(658,-132,o),
(806,-39,o),
(830,118,cs)
);
},
{
closed = 1;
nodes = (
(460,150,o),
(449,139,o),
(430,139,cs),
(411,139,o),
(400,150,o),
(400,169,cs),
(400,459,ls),
(400,478,o),
(411,489,o),
(430,489,cs),
(449,489,o),
(460,478,o),
(460,459,cs),
(460,169,ls)
);
}
);
width = 870;
}
);
unicode = 216;
},
{
glyphname = Otilde;
kernLeft = O;
kernRight = O;
lastChange = "2022-05-01 04:15:24 +0000";
layers = (
{
layerId = "75B71696-F68C-493E-998D-CC33CA41914E";
shapes = (
{
closed = 1;
nodes = (
(836,159,o),
(840,233,o),
(840,317,cs),
(840,401,o),
(836,475,o),
(830,516,cs),
(806,675,o),
(658,769,o),
(430,769,cs),
(203,769,o),
(54,674,o),
(30,512,cs),
(24,471,o),
(20,397,o),
(20,314,cs),
(20,231,o),
(24,157,o),
(30,116,cs),
(54,-40,o),
(202,-132,o),
(430,-132,cs),
(658,-132,o),
(806,-39,o),
(830,118,cs)
);
},
{
closed = 1;
nodes = (
(460,150,o),
(449,139,o),
(430,139,cs),
(411,139,o),
(400,150,o),
(400,169,cs),
(400,459,ls),
(400,478,o),
(411,489,o),
(430,489,cs),
(449,489,o),
(460,478,o),
(460,459,cs),
(460,169,ls)
);
},
{
closed = 1;
nodes = (
(570,787,o),
(633,804,o),
(683,851,c),
(624,995,l),
(600,978,o),
(577,963,o),
(537,963,cs),
(462,963,o),
(456,994,o),
(363,994,cs),
(313,994,o),
(256,982,o),
(189,930,c),
(237,786,l),
(262,804,o),
(290,821,o),
(334,821,cs),
(410,821,o),
(416,787,o),
(506,787,cs)
);
}
);
width = 860;
}
);
unicode = 213;
},
{
glyphname = OE;
kernLeft = O;
kernRight = E;
lastChange = "2022-05-01 03:02:20 +0000";
layers = (
{
layerId = "75B71696-F68C-493E-998D-CC33CA41914E";
shapes = (
{
closed = 1;
nodes = (
(1039,222,l),
(1039,445,l),
(779,445,l),
(779,490,l),
(1064,490,l),
(1064,740,l),
(439,740,ls),
(203,740,o),
(54,674,o),
(30,512,cs),
(24,471,o),
(20,397,o),
(20,314,cs),
(20,231,o),
(24,157,o),
(30,116,cs),
(54,-40,o),
(202,-113,o),
(439,-113,cs),
(1080,-113,l),
(1080,177,l),
(779,177,l),
(779,222,l)
);
},
{
closed = 1;
nodes = (
(385,489,o),
(407,500,o),
(439,500,c),
(439,156,l),
(407,156,o),
(385,167,o),
(385,206,cs),
(385,450,ls)
);
}
);
width = 1090;
}
);
unicode = 338;
},
{
glyphname = P;
kernRight = P;
lastChange = "2022-05-01 04:15:29 +0000";
layers = (
{
layerId = "75B71696-F68C-493E-998D-CC33CA41914E";
shapes = (
{
closed = 1;
nodes = (
(377,122,l),
(545,122,ls),
(683,122,o),
(807,200,o),
(807,435,cs),
(807,670,o),
(688,740,o),
(545,740,cs),
(27,740,l),
(27,-113,l),
(377,-113,l)
);
},
{
closed = 1;
nodes = (
(475,461,o),
(497,455,o),
(497,430,cs),
(497,406,o),
(479,401,o),
(467,401,cs),
(357,401,l),
(357,461,l),
(463,461,ls)
);
}
);
width = 822;
}
);
metricLeft = H;
unicode = 80;
},
{
glyphname = Thorn;
kernLeft = H;
kernRight = P;
lastChange = "2022-05-01 03:02:20 +0000";
layers = (
{
layerId = "75B71696-F68C-493E-998D-CC33CA41914E";
shapes = (
{
closed = 1;
nodes = (
(375,740,l),
(25,740,l),
(25,-113,l),
(375,-113,l),
(375,22,l),
(553,22,ls),
(691,22,o),
(815,100,o),
(815,335,cs),
(815,570,o),
(696,640,o),
(553,640,cs),
(375,640,l)
);
},
{
closed = 1;
nodes = (
(375,361,l),
(471,361,ls),
(483,361,o),
(505,355,o),
(505,330,cs),
(505,306,o),
(487,301,o),
(475,301,cs),
(375,301,l)
);
}
);
width = 825;
}
);
unicode = 222;
},
{
glyphname = Q;
kernLeft = O;
lastChange = "2022-05-01 04:15:35 +0000";
layers = (
{
layerId = "75B71696-F68C-493E-998D-CC33CA41914E";
shapes = (
{
closed = 1;
nodes = (
(720,142,o),
(850,226,o),
(857,263,cs),
(860,278,o),
(860,295,o),
(860,312,cs),
(860,398,o),
(857,475,o),
(850,516,cs),
(822,681,o),
(670,779,o),
(440,779,cs),
(211,779,o),
(59,680,o),
(30,512,cs),
(24,475,o),
(20,399,o),
(20,324,cs),
(20,249,o),
(24,173,o),
(30,136,cs),
(73,-141,o),
(396,-201,o),
(676,-201,cs),
(769,-201,o),
(845,-192,o),
(880,-183,c),
(880,209,l),
(856,186,o),
(755,113,o),
(588,104,c),
(588,124,l)
);
},
{
closed = 1;
nodes = (
(420,454,o),
(420,479,o),
(450,479,cs),
(480,479,o),
(480,454,o),
(480,449,cs),
(480,239,ls),
(480,234,o),
(480,209,o),
(450,209,cs),
(420,209,o),
(420,234,o),
(420,239,cs),
(420,449,ls)
);
}
);
width = 898;
}
);
metricLeft = O;
unicode = 81;
},
{
glyphname = R;
lastChange = "2022-05-01 04:15:39 +0000";
layers = (
{
layerId = "75B71696-F68C-493E-998D-CC33CA41914E";
shapes = (
{
closed = 1;
nodes = (
(377,116,l),
(387,116,l),
(447,-113,l),
(837,-113,l),
(661,272,l),
(785,307,o),
(797,412,o),
(797,484,cs),
(797,669,o),
(678,739,o),
(535,739,cs),
(27,740,l),
(27,-113,l),
(377,-113,l)
);
},
{
closed = 1;
nodes = (
(465,469,o),
(487,463,o),
(487,438,cs),
(487,414,o),
(469,409,o),
(457,409,cs),
(347,409,l),
(347,469,l),
(453,469,ls)
);
}
);
width = 837;
}
);
metricLeft = H;
unicode = 82;
},
{
glyphname = S;
lastChange = "2022-05-01 04:15:43 +0000";
layers = (
{
layerId = "75B71696-F68C-493E-998D-CC33CA41914E";
shapes = (
{
closed = 1;
nodes = (
(662,409,o),
(580,430,o),
(456,439,cs),
(426,441,o),
(408,444,o),
(404,428,cs),
(399,407,o),
(417,405,o),
(451,401,cs),
(598,384,o),
(804,368,o),
(799,129,cs),
(792,-200,o),
(275,-165,o),
(14,-93,c),
(46,300,l),
(96,263,o),
(163,211,o),
(364,192,cs),
(389,190,o),
(405,189,o),
(408,203,cs),
(412,224,o),
(397,227,o),
(366,231,cs),
(210,250,o),
(36,280,o),
(30,465,cs),
(19,803,o),
(426,801,o),
(774,700,c),
(741,362,l)
);
}
);
width = 810;
}
);
unicode = 83;
},
{
glyphname = Germandbls;
kernLeft = H;
kernRight = B;
lastChange = "2022-05-01 03:02:20 +0000";
layers = (
{
layerId = "75B71696-F68C-493E-998D-CC33CA41914E";
shapes = (
{
closed = 1;
nodes = (
(789,356,o),
(815,413,o),
(815,506,cs),
(815,678,o),
(673,750,o),
(437,750,cs),
(190,750,o),
(26,654,o),
(22,398,cs),
(22,-113,l),
(352,-113,l),
(352,328,ls),
(352,417,o),
(404,461,o),
(477,461,cs),
(494,461,o),
(524,456,o),
(524,433,cs),
(524,401,o),
(475,378,o),
(395,363,c),
(395,241,l),
(476,236,o),
(534,210,o),
(534,179,cs),
(534,161,o),
(520,143,o),
(492,143,cs),
(464,143,o),
(420,162,o),
(397,180,c),
(377,-113,l),
(415,-119,o),
(456,-122,o),
(501,-122,cs),
(725,-122,o),
(839,-64,o),
(839,135,cs),
(839,229,o),
(804,287,o),
(742,320,c)
);
}
);
width = 849;
}
);
unicode = 7838;
},
{
glyphname = T;
lastChange = "2022-05-01 04:15:59 +0000";
layers = (
{
layerId = "75B71696-F68C-493E-998D-CC33CA41914E";
shapes = (
{
closed = 1;
nodes = (
(18,740,l),
(18,410,l),
(233,410,l),
(233,-113,l),
(603,-113,l),
(603,410,l),
(818,410,l),
(818,740,l)
);
}
);
width = 836;
}
);
unicode = 84;
},
{
glyphname = U;
kernLeft = U;
kernRight = U;
lastChange = "2022-05-01 04:16:14 +0000";
layers = (
{
layerId = "75B71696-F68C-493E-998D-CC33CA41914E";
shapes = (
{
closed = 1;
nodes = (
(22,171,ls),
(22,18,o),
(133,-127,o),
(402,-127,cs),
(708,-127,o),
(802,11,o),
(802,173,cs),
(802,740,l),
(442,740,l),
(442,189,ls),
(442,184,o),
(442,159,o),
(412,159,cs),
(382,159,o),
(382,184,o),
(382,189,cs),
(382,740,l),
(22,740,l)
);
}
);
width = 824;
}
);
unicode = 85;
},
{
glyphname = Uacute;
kernLeft = U;
kernRight = U;
lastChange = "2022-05-01 04:16:20 +0000";
layers = (
{
layerId = "75B71696-F68C-493E-998D-CC33CA41914E";
shapes = (
{
closed = 1;
nodes = (
(22,171,ls),
(22,18,o),
(133,-127,o),
(402,-127,cs),
(708,-127,o),
(802,11,o),
(802,173,cs),
(802,740,l),
(442,740,l),
(442,189,ls),
(442,184,o),
(442,159,o),
(412,159,cs),
(382,159,o),
(382,184,o),
(382,189,cs),
(382,740,l),
(22,740,l)
);
},
{
closed = 1;
nodes = (
(325,965,l),
(236,770,l),
(513,770,l),
(666,965,l)
);
}
);
width = 824;
}
);
unicode = 218;
},
{
glyphname = Ucircumflex;
kernLeft = U;
kernRight = U;
lastChange = "2022-05-01 04:16:27 +0000";
layers = (
{
layerId = "75B71696-F68C-493E-998D-CC33CA41914E";
shapes = (
{
closed = 1;
nodes = (
(22,171,ls),
(22,18,o),
(133,-127,o),
(402,-127,cs),
(708,-127,o),
(802,11,o),
(802,173,cs),
(802,740,l),
(442,740,l),
(442,189,ls),
(442,184,o),
(442,159,o),
(412,159,cs),
(382,159,o),
(382,184,o),
(382,189,cs),
(382,740,l),
(22,740,l)
);
},
{
closed = 1;
nodes = (
(255,965,l),
(112,770,l),
(377,770,l),
(410,846,l),
(443,770,l),
(708,770,l),
(565,965,l)
);
}
);
width = 824;
}
);
unicode = 219;
},
{
glyphname = Udieresis;
kernLeft = U;
kernRight = U;
lastChange = "2022-05-01 04:16:35 +0000";
layers = (
{
layerId = "75B71696-F68C-493E-998D-CC33CA41914E";
shapes = (
{
closed = 1;
nodes = (
(22,171,ls),
(22,18,o),
(133,-127,o),
(402,-127,cs),
(708,-127,o),
(802,11,o),
(802,173,cs),
(802,740,l),
(442,740,l),
(442,189,ls),
(442,184,o),
(442,159,o),
(412,159,cs),
(382,159,o),
(382,184,o),
(382,189,cs),
(382,740,l),
(22,740,l)
);
},
{
closed = 1;
nodes = (
(390,770,l),
(390,965,l),
(166,965,l),
(166,770,l)
);
},
{
closed = 1;
nodes = (
(654,770,l),
(654,965,l),
(430,965,l),
(430,770,l)
);
}
);
width = 824;
}
);
unicode = 220;
},
{
glyphname = Ugrave;
kernLeft = U;
kernRight = U;
lastChange = "2022-05-01 04:16:42 +0000";
layers = (
{
layerId = "75B71696-F68C-493E-998D-CC33CA41914E";
shapes = (
{
closed = 1;
nodes = (
(22,171,ls),
(22,18,o),
(133,-127,o),
(402,-127,cs),
(708,-127,o),
(802,11,o),
(802,173,cs),
(802,740,l),
(442,740,l),
(442,189,ls),
(442,184,o),
(442,159,o),
(412,159,cs),
(382,159,o),
(382,184,o),
(382,189,cs),
(382,740,l),
(22,740,l)
);
},
{
closed = 1;
nodes = (
(501,965,l),
(160,965,l),
(313,770,l),
(590,770,l)
);
}
);
width = 830;
}
);
unicode = 217;
},
{
glyphname = V;
lastChange = "2022-05-01 04:16:46 +0000";
layers = (
{
layerId = "75B71696-F68C-493E-998D-CC33CA41914E";
shapes = (
{
closed = 1;
nodes = (
(850,741,l),
(479,741,l),
(435,174,l),
(425,174,l),
(381,740,l),
(10,740,l),
(194,-113,l),
(667,-113,l)
);
}
);
width = 860;
}
);
unicode = 86;
},
{
glyphname = W;
kernLeft = W;
kernRight = W;
lastChange = "2022-05-01 04:16:50 +0000";
layers = (
{
layerId = "75B71696-F68C-493E-998D-CC33CA41914E";
shapes = (
{
closed = 1;
nodes = (
(572,112,l),
(582,112,l),
(635,-113,l),
(1018,-113,l),
(1132,739,l),
(791,739,l),
(777,183,l),
(767,183,l),
(703,740,l),
(441,740,l),
(377,184,l),
(367,184,l),
(353,740,l),
(12,740,l),
(136,-113,l),
(519,-113,l)
);
}
);
width = 1144;
}
);
unicode = 87;
},
{
glyphname = Wacute;
kernLeft = W;
kernRight = W;
lastChange = "2022-05-01 04:16:53 +0000";
layers = (
{
layerId = "75B71696-F68C-493E-998D-CC33CA41914E";
shapes = (
{
closed = 1;
nodes = (
(572,112,l),
(582,112,l),
(635,-113,l),
(1018,-113,l),
(1132,739,l),
(791,739,l),
(777,183,l),
(767,183,l),
(703,740,l),
(441,740,l),
(377,184,l),
(367,184,l),
(353,740,l),
(12,740,l),
(136,-113,l),
(519,-113,l)
);
},
{
closed = 1;
nodes = (
(485,965,l),
(396,770,l),
(673,770,l),
(826,965,l)
);
}
);
width = 1144;
}
);
unicode = 7810;
},
{
glyphname = Wcircumflex;
kernLeft = W;
kernRight = W;
lastChange = "2022-05-01 04:16:57 +0000";
layers = (
{
layerId = "75B71696-F68C-493E-998D-CC33CA41914E";
shapes = (
{
closed = 1;
nodes = (
(572,112,l),
(582,112,l),
(635,-113,l),
(1018,-113,l),
(1132,739,l),
(791,739,l),
(777,183,l),
(767,183,l),
(703,740,l),
(441,740,l),
(377,184,l),
(367,184,l),
(353,740,l),
(12,740,l),
(136,-113,l),
(519,-113,l)
);
},
{
closed = 1;
nodes = (
(415,965,l),
(272,770,l),
(537,770,l),
(570,846,l),
(603,770,l),
(868,770,l),
(725,965,l)
);
}
);
width = 1144;
}
);
unicode = 372;
},
{
glyphname = Wdieresis;
kernLeft = W;
kernRight = W;
lastChange = "2022-05-01 04:17:01 +0000";
layers = (
{
layerId = "75B71696-F68C-493E-998D-CC33CA41914E";
shapes = (
{
closed = 1;
nodes = (
(572,112,l),
(582,112,l),
(635,-113,l),
(1018,-113,l),
(1132,739,l),
(791,739,l),
(777,183,l),
(767,183,l),
(703,740,l),
(441,740,l),
(377,184,l),
(367,184,l),
(353,740,l),
(12,740,l),
(136,-113,l),
(519,-113,l)
);
},
{
closed = 1;
nodes = (
(550,770,l),
(550,965,l),
(326,965,l),
(326,770,l)
);
},
{
closed = 1;
nodes = (
(814,770,l),
(814,965,l),
(590,965,l),
(590,770,l)
);
}
);
width = 1144;
}
);
unicode = 7812;
},
{
glyphname = Wgrave;
kernLeft = W;
kernRight = W;
lastChange = "2022-05-01 04:17:05 +0000";
layers = (
{
layerId = "75B71696-F68C-493E-998D-CC33CA41914E";
shapes = (
{
closed = 1;
nodes = (
(572,112,l),
(582,112,l),
(635,-113,l),
(1018,-113,l),
(1132,739,l),
(791,739,l),
(777,183,l),
(767,183,l),
(703,740,l),
(441,740,l),
(377,184,l),
(367,184,l),
(353,740,l),
(12,740,l),
(136,-113,l),
(519,-113,l)
);
},
{
closed = 1;
nodes = (
(661,965,l),
(320,965,l),
(473,770,l),
(750,770,l)
);
}
);
width = 1140;
}
);
unicode = 7808;
},
{
glyphname = X;
lastChange = "2022-05-01 04:17:08 +0000";
layers = (
{
layerId = "75B71696-F68C-493E-998D-CC33CA41914E";
shapes = (
{
closed = 1;
nodes = (
(441,487,l),
(386,740,l),
(16,740,l),
(156,353,l),
(6,-113,l),
(386,-113,l),
(441,219,l),
(451,219,l),
(506,-113,l),
(876,-113,l),
(736,353,l),
(876,740,l),
(496,740,l),
(451,487,l)
);
}
);
width = 888;
}
);
unicode = 88;
},
{
glyphname = Y;
kernLeft = Y;
lastChange = "2022-05-01 04:17:13 +0000";
layers = (
{
layerId = "75B71696-F68C-493E-998D-CC33CA41914E";
shapes = (
{
closed = 1;
nodes = (
(415,373,l),
(381,740,l),
(10,740,l),
(235,102,l),
(235,-113,l),
(605,-113,l),
(605,102,l),
(830,740,l),
(459,740,l),
(425,373,l)
);
}
);
width = 840;
}
);
unicode = 89;
},
{
glyphname = Yacute;
kernLeft = Y;
kernRight = Y;
lastChange = "2022-05-01 04:17:18 +0000";
layers = (
{
layerId = "75B71696-F68C-493E-998D-CC33CA41914E";
shapes = (
{
closed = 1;
nodes = (
(415,373,l),
(381,740,l),
(10,740,l),
(235,102,l),
(235,-113,l),
(605,-113,l),
(605,102,l),
(830,740,l),
(459,740,l),
(425,373,l)
);
},
{
closed = 1;
nodes = (
(335,965,l),
(246,770,l),
(523,770,l),
(676,965,l)
);
}
);
width = 840;
}
);
unicode = 221;
},
{
glyphname = Ycircumflex;
kernLeft = Y;
kernRight = Y;
lastChange = "2022-05-01 04:17:22 +0000";
layers = (
{
layerId = "75B71696-F68C-493E-998D-CC33CA41914E";
shapes = (
{
closed = 1;
nodes = (
(415,373,l),
(381,740,l),
(10,740,l),
(235,102,l),
(235,-113,l),
(605,-113,l),
(605,102,l),
(830,740,l),
(459,740,l),
(425,373,l)
);
},
{
closed = 1;
nodes = (
(265,965,l),
(122,770,l),
(387,770,l),
(420,846,l),
(453,770,l),
(718,770,l),
(575,965,l)
);
}
);
width = 840;
}
);
unicode = 374;
},
{
glyphname = Ydieresis;
kernLeft = Y;
kernRight = Y;
lastChange = "2022-05-01 04:17:27 +0000";
layers = (
{
layerId = "75B71696-F68C-493E-998D-CC33CA41914E";
shapes = (
{
closed = 1;
nodes = (
(415,373,l),
(381,740,l),
(10,740,l),
(235,102,l),
(235,-113,l),
(605,-113,l),
(605,102,l),
(830,740,l),
(459,740,l),
(425,373,l)
);
},
{
closed = 1;
nodes = (
(400,770,l),
(400,965,l),
(176,965,l),
(176,770,l)
);
},
{
closed = 1;
nodes = (
(664,770,l),
(664,965,l),
(440,965,l),
(440,770,l)
);
}
);
width = 840;
}
);
unicode = 376;
},
{
glyphname = Ygrave;
kernLeft = Y;
kernRight = Y;
lastChange = "2022-05-01 04:17:32 +0000";
layers = (
{
layerId = "75B71696-F68C-493E-998D-CC33CA41914E";
shapes = (
{
closed = 1;
nodes = (
(415,373,l),
(381,740,l),
(10,740,l),
(235,102,l),
(235,-113,l),
(605,-113,l),
(605,102,l),
(830,740,l),
(459,740,l),
(425,373,l)
);
},
{
closed = 1;
nodes = (
(511,965,l),
(170,965,l),
(323,770,l),
(600,770,l)
);
}
);
width = 840;
}
);
unicode = 7922;
},
{
glyphname = Z;
lastChange = "2022-05-01 04:17:37 +0000";
layers = (
{
layerId = "75B71696-F68C-493E-998D-CC33CA41914E";
shapes = (
{
closed = 1;
nodes = (
(758,740,l),
(38,740,l),
(38,440,l),
(279,440,l),
(18,117,l),
(18,-113,l),
(768,-113,l),
(768,187,l),
(497,187,l),
(758,510,l)
);
}
);
width = 786;
}
);
unicode = 90;
},
{
glyphname = J_A_M_O.dlig;
lastChange = "2022-11-11 07:11:05 +0000";
layers = (
{
layerId = "75B71696-F68C-493E-998D-CC33CA41914E";
shapes = (
{
closed = 1;
nodes = (
(805,309,o),
(845,351,o),
(845,407,cs),
(845,550,ls),
(845,563,o),
(855,574,o),
(868,574,cs),
(882,574,o),
(891,563,o),
(891,550,cs),
(891,314,l),
(965,314,l),
(965,543,ls),
(965,603,o),
(924,643,o),
(868,643,cs),
(812,643,o),
(771,603,o),
(771,543,cs),
(771,400,ls),
(771,388,o),
(762,379,o),
(750,379,cs),
(738,379,o),
(729,388,o),
(729,400,cs),
(729,543,ls),
(729,603,o),
(688,643,o),
(632,643,cs),
(576,643,o),
(534,603,o),
(534,543,cs),
(534,314,l),
(609,314,l),
(609,550,ls),
(609,563,o),
(618,574,o),
(632,574,cs),
(645,574,o),
(655,563,o),
(655,550,cs),
(655,407,ls),
(655,351,o),
(695,309,o),
(750,309,cs)
);
},
{
closed = 1;
nodes = (
(63,154,ls),
(128,154,o),
(176,202,o),
(176,265,cs),
(176,479,l),
(102,479,l),
(102,270,ls),
(102,245,o),
(82,224,o),
(58,224,cs),
(30,224,l),
(30,154,l)
);
},
{
closed = 1;
nodes = (
(260,154,l),
(286,225,l),
(406,225,l),
(432,154,l),
(514,154,l),
(406,433,ls),
(393,467,o),
(373,483,o),
(347,483,cs),
(321,483,o),
(301,467,o),
(288,433,cs),
(180,154,l)
);
},
{
closed = 1;
nodes = (
(346,388,l),
(381,293,l),
(311,293,l)
);
},
{
closed = 1;
nodes = (
(848,-43,o),
(920,32,o),
(920,124,cs),
(920,216,o),
(848,291,o),
(750,291,cs),
(652,291,o),
(580,216,o),
(580,124,cs),
(580,32,o),
(652,-43,o),
(750,-43,cs)
);
},
{
closed = 1;
nodes = (
(700,31,o),
(661,73,o),
(661,124,cs),
(661,175,o),
(700,217,o),
(750,217,cs),
(800,217,o),
(839,175,o),
(839,124,cs),
(839,73,o),
(800,31,o),
(750,31,cs)
);
}
);
width = 1000;
}
);
},
{
glyphname = a;
kernLeft = a;
kernRight = a;
lastChange = "2022-05-01 03:36:22 +0000";
layers = (
{
layerId = "75B71696-F68C-493E-998D-CC33CA41914E";
shapes = (
{
closed = 1;
nodes = (
(695,-71,o),
(692,-27,o),
(690,16,c),
(690,360,ls),
(690,521,o),
(573,608,o),
(369,608,cs),
(274,608,o),
(160,589,o),
(30,549,c),
(50,305,l),
(96,332,o),
(175,367,o),
(294,367,cs),
(319,367,o),
(345,365,o),
(373,362,cs),
(390,360,o),
(403,350,o),
(400,324,c),
(366,326,o),
(335,328,o),
(307,328,cs),
(94,328,o),
(14,259,o),
(14,117,cs),
(14,64,ls),
(14,-37,o),
(67,-131,o),
(232,-131,cs),
(352,-131,o),
(395,-61,o),
(396,-14,c),
(405,-14,l),
(406,-57,o),
(410,-85,o),
(416,-113,c),
(700,-113,l)
);
},
{
closed = 1;
nodes = (
(378,91,o),
(378,66,o),
(348,66,cs),
(318,66,o),
(318,91,o),
(318,96,cs),
(318,166,ls),
(318,171,o),
(318,196,o),
(348,196,cs),
(378,196,o),
(378,171,o),
(378,166,cs),
(378,96,ls)
);
}
);
width = 710;
}
);
unicode = 97;
},
{
glyphname = aacute;
kernLeft = a;
kernRight = a;
lastChange = "2022-05-01 03:36:32 +0000";
layers = (
{
anchors = (
{
name = bottom;
pos = (-26,-123);
}
);
layerId = "75B71696-F68C-493E-998D-CC33CA41914E";
shapes = (
{
closed = 1;
nodes = (
(695,-71,o),
(692,-27,o),
(690,16,c),
(690,360,ls),
(690,521,o),
(573,608,o),
(369,608,cs),
(274,608,o),
(160,589,o),
(30,549,c),
(50,305,l),
(96,332,o),
(175,367,o),
(294,367,cs),
(319,367,o),
(345,365,o),
(373,362,cs),
(390,360,o),
(403,350,o),
(400,324,c),
(366,326,o),
(335,328,o),
(307,328,cs),
(94,328,o),
(14,259,o),
(14,117,cs),
(14,64,ls),
(14,-37,o),
(67,-131,o),
(232,-131,cs),
(352,-131,o),
(395,-61,o),
(396,-14,c),
(405,-14,l),
(406,-57,o),
(410,-85,o),
(416,-113,c),
(700,-113,l)
);
},
{
closed = 1;
nodes = (
(378,91,o),
(378,66,o),
(348,66,cs),
(318,66,o),
(318,91,o),
(318,96,cs),
(318,166,ls),
(318,171,o),
(318,196,o),
(348,196,cs),
(378,196,o),
(378,171,o),
(378,166,cs),
(378,96,ls)
);
},
{
closed = 1;
nodes = (
(622,802,l),
(311,802,l),
(197,628,l),
(464,628,l)
);
}
);
width = 710;
}
);
unicode = 225;
},
{
glyphname = acircumflex;
kernLeft = a;
kernRight = a;
lastChange = "2022-05-01 03:37:11 +0000";
layers = (
{
anchors = (
{
name = bottom;
pos = (-26,-123);
}
);
layerId = "75B71696-F68C-493E-998D-CC33CA41914E";
shapes = (
{
closed = 1;
nodes = (
(14,-37,o),
(67,-131,o),
(232,-131,cs),
(352,-131,o),
(395,-61,o),
(396,-14,c),
(405,-14,l),
(406,-57,o),
(410,-85,o),
(416,-113,c),
(700,-113,l),
(695,-71,o),
(692,-27,o),
(690,16,c),
(690,360,ls),
(690,521,o),
(573,608,o),
(369,608,cs),
(274,608,o),
(160,589,o),
(30,549,c),
(50,305,l),
(96,332,o),
(175,367,o),
(294,367,cs),
(319,367,o),
(345,365,o),
(373,362,cs),
(390,360,o),
(403,350,o),
(400,324,c),
(366,326,o),
(335,328,o),
(307,328,cs),
(94,328,o),
(14,259,o),
(14,117,cs),
(14,64,ls)
);
},
{
closed = 1;
nodes = (
(339,634,l),
(363,684,l),
(387,634,l),
(622,634,l),
(508,808,l),
(218,808,l),
(104,634,l)
);
},
{
closed = 1;
nodes = (
(318,166,ls),
(318,171,o),
(318,196,o),
(348,196,cs),
(378,196,o),
(378,171,o),
(378,166,cs),
(378,96,ls),
(378,91,o),
(378,66,o),
(348,66,cs),
(318,66,o),
(318,91,o),
(318,96,cs)
);
}
);
width = 710;
}
);
unicode = 226;
},
{
glyphname = adieresis;
kernLeft = a;
kernRight = a;
lastChange = "2022-05-01 03:37:49 +0000";
layers = (
{
layerId = "75B71696-F68C-493E-998D-CC33CA41914E";
shapes = (
{
closed = 1;
nodes = (
(695,-71,o),
(692,-27,o),
(690,16,c),
(690,360,ls),
(690,521,o),
(573,608,o),
(369,608,cs),
(274,608,o),
(160,589,o),
(30,549,c),
(50,305,l),
(96,332,o),
(175,367,o),
(294,367,cs),
(319,367,o),
(345,365,o),
(373,362,cs),
(390,360,o),
(403,350,o),
(400,324,c),
(366,326,o),
(335,328,o),
(307,328,cs),
(94,328,o),
(14,259,o),
(14,117,cs),
(14,64,ls),
(14,-37,o),
(67,-131,o),
(232,-131,cs),
(352,-131,o),
(395,-61,o),
(396,-14,c),
(405,-14,l),
(406,-57,o),
(410,-85,o),
(416,-113,c),
(700,-113,l)
);
},
{
closed = 1;
nodes = (
(378,91,o),
(378,66,o),
(348,66,cs),
(318,66,o),
(318,91,o),
(318,96,cs),
(318,166,ls),
(318,171,o),
(318,196,o),
(348,196,cs),
(378,196,o),
(378,171,o),
(378,166,cs),
(378,96,ls)
);
},
{
closed = 1;
nodes = (
(144,633,l),
(354,633,l),
(354,807,l),
(144,807,l)
);
},
{
closed = 1;
nodes = (
(390,633,l),
(600,633,l),
(600,807,l),
(390,807,l)
);
}
);
width = 710;
}
);
unicode = 228;
},
{
glyphname = agrave;
kernLeft = a;
kernRight = a;
lastChange = "2022-05-01 03:37:54 +0000";
layers = (
{
layerId = "75B71696-F68C-493E-998D-CC33CA41914E";
shapes = (
{
closed = 1;
nodes = (
(695,-71,o),
(692,-27,o),
(690,16,c),
(690,360,ls),
(690,521,o),
(573,608,o),
(369,608,cs),
(274,608,o),
(160,589,o),
(30,549,c),
(50,305,l),
(96,332,o),
(175,367,o),
(294,367,cs),
(319,367,o),
(345,365,o),
(373,362,cs),
(390,360,o),
(403,350,o),
(400,324,c),
(366,326,o),
(335,328,o),
(307,328,cs),
(94,328,o),
(14,259,o),
(14,117,cs),
(14,64,ls),
(14,-37,o),
(67,-131,o),
(232,-131,cs),
(352,-131,o),
(395,-61,o),
(396,-14,c),
(405,-14,l),
(406,-57,o),
(410,-85,o),
(416,-113,c),
(700,-113,l)
);
},
{
closed = 1;
nodes = (
(378,91,o),
(378,66,o),
(348,66,cs),
(318,66,o),
(318,91,o),
(318,96,cs),
(318,166,ls),
(318,171,o),
(318,196,o),
(348,196,cs),
(378,196,o),
(378,171,o),
(378,166,cs),
(378,96,ls)
);
},
{
closed = 1;
nodes = (
(543,628,l),
(429,802,l),
(128,802,l),
(286,628,l)
);
}
);
width = 710;
}
);
unicode = 224;
},
{
glyphname = aring;
kernLeft = a;
kernRight = a;
lastChange = "2022-05-01 03:38:02 +0000";
layers = (
{
layerId = "75B71696-F68C-493E-998D-CC33CA41914E";
shapes = (
{
closed = 1;
nodes = (
(695,-71,o),
(692,-27,o),
(690,16,c),
(690,360,ls),
(690,521,o),
(573,608,o),
(369,608,cs),
(274,608,o),
(160,589,o),
(30,549,c),
(50,305,l),
(96,332,o),
(175,367,o),
(294,367,cs),
(319,367,o),
(345,365,o),
(373,362,cs),
(390,360,o),
(403,350,o),
(400,324,c),
(366,326,o),
(335,328,o),
(307,328,cs),
(94,328,o),
(14,259,o),
(14,117,cs),
(14,64,ls),
(14,-37,o),
(67,-131,o),
(232,-131,cs),
(352,-131,o),
(395,-61,o),
(396,-14,c),
(405,-14,l),
(406,-57,o),
(410,-85,o),
(416,-113,c),
(700,-113,l)
);
},
{
closed = 1;
nodes = (
(378,91,o),
(378,66,o),
(348,66,cs),
(318,66,o),
(318,91,o),
(318,96,cs),
(318,166,ls),
(318,171,o),
(318,196,o),
(348,196,cs),
(378,196,o),
(378,171,o),
(378,166,cs),
(378,96,ls)
);
},
{
closed = 1;
nodes = (
(595,738,l),
(595,788,o),
(542,830,o),
(353,830,c),
(164,830,o),
(121,788,o),
(121,738,c),
(121,715,l),
(121,665,o),
(164,622,o),
(353,622,c),
(542,621,o),
(595,665,o),
(595,715,c)
);
},
{
closed = 1;
nodes = (
(404,711,o),
(388,706,o),
(358,706,c),
(328,706,o),
(312,711,o),
(312,723,c),
(312,730,l),
(312,742,o),
(328,746,o),
(358,746,c),
(388,746,o),
(404,742,o),
(404,730,c),
(404,723,l)
);
}
);
width = 710;
}
);
unicode = 229;
},
{
glyphname = atilde;
kernLeft = a;
kernRight = a;
lastChange = "2022-05-01 03:38:08 +0000";
layers = (
{
layerId = "75B71696-F68C-493E-998D-CC33CA41914E";
shapes = (
{
closed = 1;
nodes = (
(695,-71,o),
(692,-27,o),
(690,16,c),
(690,360,ls),
(690,521,o),
(573,608,o),
(369,608,cs),
(274,608,o),
(160,589,o),
(30,549,c),
(50,305,l),
(96,332,o),
(175,367,o),
(294,367,cs),
(319,367,o),
(345,365,o),
(373,362,cs),
(390,360,o),
(403,350,o),
(400,324,c),
(366,326,o),
(335,328,o),
(307,328,cs),
(94,328,o),
(14,259,o),
(14,117,cs),
(14,64,ls),
(14,-37,o),
(67,-131,o),
(232,-131,cs),
(352,-131,o),
(395,-61,o),
(396,-14,c),
(405,-14,l),
(406,-57,o),
(410,-85,o),
(416,-113,c),
(700,-113,l)
);
},
{
closed = 1;
nodes = (
(378,91,o),
(378,66,o),
(348,66,cs),
(318,66,o),
(318,91,o),
(318,96,cs),
(318,166,ls),
(318,171,o),
(318,196,o),
(348,196,cs),
(378,196,o),
(378,171,o),
(378,166,cs),
(378,96,ls)
);
},
{
closed = 1;
nodes = (
(472,619,o),
(527,634,o),
(571,679,c),
(519,811,l),
(499,796,o),
(478,782,o),
(443,782,cs),
(377,782,o),
(373,810,o),
(292,810,cs),
(248,810,o),
(198,799,o),
(139,749,c),
(181,618,l),
(203,634,o),
(227,648,o),
(266,648,cs),
(333,648,o),
(337,619,o),
(417,619,cs)
);
}
);
width = 710;
}
);
unicode = 227;
},
{
glyphname = ae;
kernLeft = a;
kernRight = o;
lastChange = "2022-05-01 03:02:20 +0000";
layers = (
{
layerId = "75B71696-F68C-493E-998D-CC33CA41914E";
shapes = (
{
closed = 1;
nodes = (
(655,599,o),
(601,582,o),
(558,550,c),
(520,586,o),
(458,608,o),
(360,608,cs),
(265,608,o),
(151,589,o),
(31,549,c),
(51,305,l),
(97,332,o),
(176,367,o),
(295,367,cs),
(320,367,o),
(346,365,o),
(374,362,cs),
(391,360,o),
(404,350,o),
(401,324,c),
(367,326,o),
(336,328,o),
(308,328,cs),
(95,328,o),
(15,259,o),
(15,117,cs),
(15,64,ls),
(15,-37,o),
(78,-126,o),
(243,-126,cs),
(404,-126,o),
(491,-102,o),
(518,-52,c),
(570,-97,o),
(640,-122,o),
(731,-122,cs),
(931,-122,o),
(1061,-29,o),
(1061,128,cs),
(1061,149,l),
(769,166,l),
(769,139,ls),
(769,120,o),
(760,109,o),
(741,109,cs),
(722,109,o),
(713,120,o),
(713,139,cs),
(713,199,l),
(1065,199,l),
(1065,316,ls),
(1059,489,o),
(925,599,o),
(731,599,cs)
);
},
{
closed = 1;
nodes = (
(713,338,o),
(722,349,o),
(741,349,cs),
(760,349,o),
(769,338,o),
(769,319,cs),
(769,279,l),
(713,279,l),
(713,319,ls)
);
},
{
closed = 1;
nodes = (
(399,91,o),
(399,66,o),
(369,66,cs),
(339,66,o),
(339,91,o),
(339,96,cs),
(339,166,ls),
(339,171,o),
(339,196,o),
(369,196,cs),
(399,196,o),
(399,171,o),
(399,166,cs),
(399,96,ls)
);
}
);
width = 1080;
}
);
unicode = 230;
},
{
glyphname = b;
kernRight = b;
lastChange = "2022-05-01 03:38:14 +0000";
layers = (
{
layerId = "75B71696-F68C-493E-998D-CC33CA41914E";
shapes = (
{
closed = 1;
nodes = (
(419,597,o),
(356,533,o),
(354,428,c),
(344,428,l),
(354,588,l),
(354,780,l),
(24,780,l),
(29,28,ls),
(28,-19,o),
(25,-66,o),
(20,-113,c),
(320,-113,l),
(323,-91,o),
(324,-69,o),
(325,-47,c),
(360,-90,o),
(412,-123,o),
(484,-124,cs),
(748,-127,o),
(760,45,o),
(760,235,cs),
(760,407,o),
(758,597,o),
(554,597,cs)
);
},
{
closed = 1;
nodes = (
(434,153,o),
(434,128,o),
(404,128,cs),
(374,128,o),
(374,153,o),
(374,158,cs),
(374,308,ls),
(374,313,o),
(374,338,o),
(404,338,cs),
(434,338,o),
(434,313,o),
(434,308,cs),
(434,158,ls)
);
}
);
width = 774;
}
);
unicode = 98;
},
{
glyphname = c;
kernLeft = o;
kernRight = o;
lastChange = "2022-05-01 03:38:19 +0000";
layers = (
{
layerId = "75B71696-F68C-493E-998D-CC33CA41914E";
shapes = (
{
closed = 1;
nodes = (
(400,179,ls),
(400,160,o),
(389,149,o),
(370,149,cs),
(351,149,o),
(340,160,o),
(340,179,cs),
(340,299,ls),
(340,318,o),
(351,329,o),
(370,329,cs),
(389,329,o),
(400,318,o),
(400,299,cs),
(400,259,l),
(710,294,l),
(710,356,ls),
(704,509,o),
(574,599,o),
(360,599,cs),
(175,599,o),
(28,509,o),
(20,352,cs),
(19,332,o),
(18,290,o),
(18,238,cs),
(18,186,o),
(19,145,o),
(20,126,cs),
(28,-32,o),
(175,-122,o),
(360,-122,cs),
(580,-122,o),
(710,-29,o),
(710,128,cs),
(710,204,l),
(400,221,l)
);
}
);
width = 728;
}
);
unicode = 99;
},
{
glyphname = ccedilla;
kernLeft = o;
kernRight = o;
lastChange = "2022-05-01 03:38:23 +0000";
layers = (
{
layerId = "75B71696-F68C-493E-998D-CC33CA41914E";
shapes = (
{
closed = 1;
nodes = (
(18,186,o),
(19,145,o),
(20,126,cs),
(26,12,o),
(104,-66,o),
(216,-101,c),
(186,-139,l),
(307,-145,o),
(350,-149,o),
(350,-167,cs),
(350,-185,o),
(280,-180,o),
(161,-160,c),
(140,-290,l),
(402,-324,o),
(599,-294,o),
(599,-202,cs),
(599,-155,o),
(576,-124,o),
(478,-116,c),
(481,-111,l),
(627,-82,o),
(710,2,o),
(710,128,cs),
(710,204,l),
(400,221,l),
(400,179,ls),
(400,160,o),
(389,149,o),
(370,149,cs),
(351,149,o),
(340,160,o),
(340,179,cs),
(340,299,ls),
(340,318,o),
(351,329,o),
(370,329,cs),
(389,329,o),
(400,318,o),
(400,299,cs),
(400,259,l),
(710,294,l),
(710,356,ls),
(704,509,o),
(574,599,o),
(360,599,cs),
(175,599,o),
(28,509,o),
(20,352,cs),
(19,332,o),
(18,290,o),
(18,238,cs)
);
}
);
width = 728;
}
);
unicode = 231;
},
{
glyphname = d;
kernLeft = d;
lastChange = "2022-05-01 03:38:31 +0000";
layers = (
{
layerId = "75B71696-F68C-493E-998D-CC33CA41914E";
shapes = (
{
closed = 1;
nodes = (
(747,780,l),
(422,780,l),
(422,527,l),
(398,564,o),
(358,594,o),
(292,594,cs),
(48,596,o),
(16,425,o),
(16,235,cs),
(16,63,o),
(28,-127,o),
(262,-127,cs),
(377,-127,o),
(430,-42,o),
(432,33,c),
(442,33,l),
(440,-16,o),
(440,-64,o),
(446,-113,c),
(756,-113,l),
(748,-40,o),
(747,34,o),
(747,95,cs)
);
},
{
closed = 1;
nodes = (
(402,153,o),
(402,128,o),
(372,128,cs),
(342,128,o),
(342,153,o),
(342,158,cs),
(342,308,ls),
(342,313,o),
(342,338,o),
(372,338,cs),
(402,338,o),
(402,313,o),
(402,308,cs),
(402,158,ls)
);
}
);
width = 774;
}
);
unicode = 100;
},
{
glyphname = eth;
lastChange = "2022-05-01 03:02:20 +0000";
layers = (
{
layerId = "75B71696-F68C-493E-998D-CC33CA41914E";
shapes = (
{
closed = 1;
nodes = (
(446,825,l),
(397,754,l),
(361,759,o),
(323,762,o),
(283,762,cs),
(238,762,o),
(191,759,o),
(141,753,c),
(135,525,l),
(161,528,o),
(185,529,o),
(207,529,cs),
(219,529,o),
(230,529,o),
(240,528,c),
(216,493,l),
(269,459,l),
(309,518,l),
(380,499,o),
(416,459,o),
(430,410,c),
(376,439,o),
(323,453,o),
(274,453,cs),
(127,453,o),
(15,335,o),
(15,176,cs),
(15,-26,o),
(155,-127,o),
(373,-127,cs),
(616,-127,o),
(741,7,o),
(741,265,cs),
(741,546,o),
(639,689,o),
(461,740,c),
(497,793,l)
);
},
{
closed = 1;
nodes = (
(318,164,o),
(298,190,o),
(298,214,cs),
(298,236,o),
(316,257,o),
(369,257,cs),
(385,257,o),
(402,256,o),
(424,252,c),
(409,203,o),
(382,164,o),
(344,164,cs)
);
}
);
width = 757;
}
);
unicode = 240;
},
{
glyphname = e;
kernLeft = o;
kernRight = o;
lastChange = "2022-05-01 03:38:37 +0000";
layers = (
{
layerId = "75B71696-F68C-493E-998D-CC33CA41914E";
shapes = (
{
closed = 1;
nodes = (
(169,599,o),
(49,507,o),
(24,352,cs),
(20,332,o),
(18,290,o),
(18,238,cs),
(18,186,o),
(20,145,o),
(24,126,cs),
(49,-30,o),
(169,-122,o),
(364,-122,cs),
(584,-122,o),
(714,-29,o),
(714,128,cs),
(714,149,l),
(404,166,l),
(404,139,ls),
(404,120,o),
(393,109,o),
(374,109,cs),
(355,109,o),
(344,120,o),
(344,139,cs),
(344,199,l),
(718,199,l),
(718,326,ls),
(712,499,o),
(578,599,o),
(364,599,cs)
);
},
{
closed = 1;
nodes = (
(344,338,o),
(355,349,o),
(374,349,cs),
(393,349,o),
(404,338,o),
(404,319,cs),
(404,279,l),
(344,279,l),
(344,319,ls)
);
}
);
width = 734;
}
);
unicode = 101;
},
{
glyphname = eacute;
kernLeft = o;
kernRight = o;
lastChange = "2022-05-01 03:38:42 +0000";
layers = (
{
layerId = "75B71696-F68C-493E-998D-CC33CA41914E";
shapes = (
{
closed = 1;
nodes = (
(169,599,o),
(49,507,o),
(24,352,cs),
(20,332,o),
(18,290,o),
(18,238,cs),
(18,186,o),
(20,145,o),
(24,126,cs),
(49,-30,o),
(169,-122,o),
(364,-122,cs),
(584,-122,o),
(714,-29,o),
(714,128,cs),
(714,149,l),
(404,166,l),
(404,139,ls),
(404,120,o),
(393,109,o),
(374,109,cs),
(355,109,o),
(344,120,o),
(344,139,cs),
(344,199,l),
(718,199,l),
(718,326,ls),
(712,499,o),
(578,599,o),
(364,599,cs)
);
},
{
closed = 1;
nodes = (
(344,338,o),
(355,349,o),
(374,349,cs),
(393,349,o),
(404,338,o),
(404,319,cs),
(404,279,l),
(344,279,l),
(344,319,ls)
);
},
{
closed = 1;
nodes = (
(628,793,l),
(317,793,l),
(203,619,l),
(470,619,l)
);
}
);
width = 740;
}
);
unicode = 233;
},
{
glyphname = ecircumflex;
kernLeft = o;
kernRight = o;
lastChange = "2022-05-01 03:38:48 +0000";
layers = (
{
layerId = "75B71696-F68C-493E-998D-CC33CA41914E";
shapes = (
{
closed = 1;
nodes = (
(169,599,o),
(49,507,o),
(24,352,cs),
(20,332,o),
(18,290,o),
(18,238,cs),
(18,186,o),
(20,145,o),
(24,126,cs),
(49,-30,o),
(169,-122,o),
(364,-122,cs),
(584,-122,o),
(714,-29,o),
(714,128,cs),
(714,149,l),
(404,166,l),
(404,139,ls),
(404,120,o),
(393,109,o),
(374,109,cs),
(355,109,o),
(344,120,o),
(344,139,cs),
(344,199,l),
(718,199,l),
(718,326,ls),
(712,499,o),
(578,599,o),
(364,599,cs)
);
},
{
closed = 1;
nodes = (
(344,338,o),
(355,349,o),
(374,349,cs),
(393,349,o),
(404,338,o),
(404,319,cs),
(404,279,l),
(344,279,l),
(344,319,ls)
);
},
{
closed = 1;
nodes = (
(347,628,l),
(371,678,l),
(395,628,l),
(630,628,l),
(516,802,l),
(226,802,l),
(112,628,l)
);
}
);
width = 734;
}
);
unicode = 234;
},
{
glyphname = edieresis;
kernLeft = o;
kernRight = o;
lastChange = "2022-05-01 03:38:53 +0000";
layers = (
{
layerId = "75B71696-F68C-493E-998D-CC33CA41914E";
shapes = (
{
closed = 1;
nodes = (
(169,599,o),
(49,507,o),
(24,352,cs),
(20,332,o),
(18,290,o),
(18,238,cs),
(18,186,o),
(20,145,o),
(24,126,cs),
(49,-30,o),
(169,-122,o),
(364,-122,cs),
(584,-122,o),
(714,-29,o),
(714,128,cs),
(714,149,l),
(404,166,l),
(404,139,ls),
(404,120,o),
(393,109,o),
(374,109,cs),
(355,109,o),
(344,120,o),
(344,139,cs),
(344,199,l),
(718,199,l),
(718,326,ls),
(712,499,o),
(578,599,o),
(364,599,cs)
);
},
{
closed = 1;
nodes = (
(344,338,o),
(355,349,o),
(374,349,cs),
(393,349,o),
(404,338,o),
(404,319,cs),
(404,279,l),
(344,279,l),
(344,319,ls)
);
},
{
closed = 1;
nodes = (
(140,619,l),
(350,619,l),
(350,793,l),
(140,793,l)
);
},
{
closed = 1;
nodes = (
(386,619,l),
(596,619,l),
(596,793,l),
(386,793,l)
);
}
);
width = 734;
}
);
unicode = 235;
},
{
glyphname = egrave;
kernLeft = o;
kernRight = o;
lastChange = "2022-05-01 03:38:59 +0000";
layers = (
{
layerId = "75B71696-F68C-493E-998D-CC33CA41914E";
shapes = (
{
closed = 1;
nodes = (
(169,599,o),
(49,507,o),
(24,352,cs),
(20,332,o),
(18,290,o),
(18,238,cs),
(18,186,o),
(20,145,o),
(24,126,cs),
(49,-30,o),
(169,-122,o),
(364,-122,cs),
(584,-122,o),
(714,-29,o),
(714,128,cs),
(714,149,l),
(404,166,l),
(404,139,ls),
(404,120,o),
(393,109,o),
(374,109,cs),
(355,109,o),
(344,120,o),
(344,139,cs),
(344,199,l),
(718,199,l),
(718,326,ls),
(712,499,o),
(578,599,o),
(364,599,cs)
);
},
{
closed = 1;
nodes = (
(344,338,o),
(355,349,o),
(374,349,cs),
(393,349,o),
(404,338,o),
(404,319,cs),
(404,279,l),
(344,279,l),
(344,319,ls)
);
},
{
closed = 1;
nodes = (
(543,619,l),
(429,793,l),
(128,793,l),
(286,619,l)
);
}
);
width = 740;
}
);
unicode = 232;
},
{
glyphname = f;
lastChange = "2022-05-01 03:39:03 +0000";
layers = (
{
layerId = "75B71696-F68C-493E-998D-CC33CA41914E";
shapes = (
{
closed = 1;
nodes = (
(276,846,o),
(75,824,o),
(75,590,cs),
(75,576,l),
(15,576,l),
(15,336,l),
(75,336,l),
(75,-113,l),
(395,-113,l),
(395,336,l),
(506,336,l),
(506,576,l),
(396,576,l),
(404,630,o),
(446,622,o),
(492,617,c),
(507,788,l)
);
}
);
width = 521;
}
);
unicode = 102;
},
{
glyphname = g;
lastChange = "2022-05-01 03:39:07 +0000";
layers = (
{
layerId = "75B71696-F68C-493E-998D-CC33CA41914E";
shapes = (
{
closed = 1;
nodes = (
(747,476,o),
(750,526,o),
(756,576,c),
(457,576,l),
(453,541,o),
(451,506,o),
(451,472,c),
(441,472,l),
(436,553,o),
(374,587,o),
(271,587,cs),
(87,587,o),
(20,495,o),
(20,339,cs),
(20,263,ls),
(20,110,o),
(117,26,o),
(311,26,cs),
(398,26,o),
(421,37,o),
(441,46,c),
(428,5,o),
(361,-13,o),
(289,-13,cs),
(232,-13,o),
(172,-10,o),
(84,20,c),
(60,-284,l),
(141,-293,o),
(293,-296,o),
(355,-296,cs),
(680,-296,o),
(753,-187,o),
(751,15,cs),
(746,427,ls)
);
},
{
closed = 1;
nodes = (
(401,210,o),
(401,185,o),
(371,185,cs),
(341,185,o),
(341,210,o),
(341,215,cs),
(341,345,ls),
(341,350,o),
(341,375,o),
(371,375,cs),
(401,375,o),
(401,350,o),
(401,345,cs),
(401,215,ls)
);
}
);
width = 771;
}
);
unicode = 103;
},
{
glyphname = h;
kernRight = n;
lastChange = "2022-05-01 03:39:13 +0000";
layers = (
{
layerId = "75B71696-F68C-493E-998D-CC33CA41914E";
shapes = (
{
closed = 1;
nodes = (
(461,588,o),
(386,545,o),
(376,457,c),
(366,457,l),
(366,780,l),
(25,780,l),
(30,-113,l),
(368,-113,l),
(368,299,ls),
(368,304,o),
(368,329,o),
(398,329,cs),
(428,329,o),
(428,304,o),
(428,299,cs),
(428,-113,l),
(758,-113,l),
(758,325,ls),
(756,463,o),
(729,588,o),
(547,588,cs)
);
}
);
width = 776;
}
);
metricRight = n;
unicode = 104;
},
{
glyphname = i;
kernLeft = i;
kernRight = i;
lastChange = "2022-05-01 03:39:15 +0000";
layers = (
{
layerId = "75B71696-F68C-493E-998D-CC33CA41914E";
shapes = (
{
closed = 1;
nodes = (
(345,606,l),
(345,780,l),
(25,780,l),
(25,606,l)
);
},
{
closed = 1;
nodes = (
(345,576,l),
(25,576,l),
(25,-113,l),
(345,-113,l)
);
}
);
width = 370;
}
);
unicode = 105;
},
{
glyphname = idotless;
lastChange = "2022-05-01 03:02:20 +0000";
layers = (
{
layerId = "75B71696-F68C-493E-998D-CC33CA41914E";
shapes = (
{
closed = 1;
nodes = (
(345,583,l),
(25,583,l),
(25,-113,l),
(345,-113,l)
);
}
);
width = 370;
}
);
unicode = 305;
},
{
glyphname = iacute;
kernLeft = i;
lastChange = "2022-05-01 03:12:29 +0000";
layers = (
{
layerId = "75B71696-F68C-493E-998D-CC33CA41914E";
shapes = (
{
closed = 1;
nodes = (
(340,583,l),
(20,583,l),
(20,-113,l),
(340,-113,l)
);
},
{
closed = 1;
nodes = (
(468,787,l),
(157,787,l),
(43,613,l),
(310,613,l)
);
}
);
width = 360;
}
);
unicode = 237;
},
{
glyphname = icircumflex;
lastChange = "2022-05-01 03:12:35 +0000";
layers = (
{
layerId = "75B71696-F68C-493E-998D-CC33CA41914E";
shapes = (
{
closed = 1;
nodes = (
(340,583,l),
(20,583,l),
(20,-113,l),
(340,-113,l)
);
},
{
closed = 1;
nodes = (
(120,787,l),
(204,613,l),
(439,613,l),
(325,787,l)
);
},
{
closed = 1;
nodes = (
(-79,613,l),
(156,613,l),
(240,787,l),
(35,787,l)
);
}
);
width = 360;
}
);
unicode = 238;
},
{
glyphname = idieresis;
lastChange = "2022-05-01 03:12:44 +0000";
layers = (
{
layerId = "75B71696-F68C-493E-998D-CC33CA41914E";
shapes = (
{
closed = 1;
nodes = (
(340,576,l),
(20,576,l),
(20,-113,l),
(340,-113,l)
);
},
{
closed = 1;
nodes = (
(-48,606,l),
(162,606,l),
(162,780,l),
(-48,780,l)
);
},
{
closed = 1;
nodes = (
(198,606,l),
(408,606,l),
(408,780,l),
(198,780,l)
);
}
);
width = 360;
}
);
unicode = 239;
},
{
glyphname = igrave;
kernRight = i;
lastChange = "2022-05-01 03:12:49 +0000";
layers = (
{
layerId = "75B71696-F68C-493E-998D-CC33CA41914E";
shapes = (
{
closed = 1;
nodes = (
(340,576,l),
(20,576,l),
(20,-113,l),
(340,-113,l)
);
},
{
closed = 1;
nodes = (
(325,606,l),
(211,780,l),
(-90,780,l),
(68,606,l)
);
}
);
width = 360;
}
);
unicode = 236;
},
{
glyphname = j;
lastChange = "2022-05-01 03:02:20 +0000";
layers = (
{
layerId = "75B71696-F68C-493E-998D-CC33CA41914E";
shapes = (
{
closed = 1;
nodes = (
(448,606,l),
(448,780,l),
(128,780,l),
(128,606,l)
);
},
{
closed = 1;
nodes = (
(177,-323,o),
(448,-352,o),
(448,-6,cs),
(448,576,l),
(128,576,l),
(128,-13,ls),
(128,-138,o),
(74,-134,o),
(28,-136,c),
(13,-316,l)
);
}
);
width = 468;
}
);
unicode = 106;
},
{
glyphname = k;
lastChange = "2022-05-01 03:39:27 +0000";
layers = (
{
layerId = "75B71696-F68C-493E-998D-CC33CA41914E";
shapes = (
{
closed = 1;
nodes = (
(344,42,l),
(344,155,l),
(354,155,l),
(411,-113,l),
(759,-113,l),
(603,250,l),
(745,576,l),
(414,576,l),
(355,335,l),
(345,335,l),
(355,469,l),
(355,780,l),
(25,780,l),
(25,-113,l),
(345,-113,l)
);
}
);
width = 767;
}
);
metricLeft = h;
unicode = 107;
},
{
glyphname = l;
lastChange = "2022-05-01 03:44:54 +0000";
layers = (
{
layerId = "75B71696-F68C-493E-998D-CC33CA41914E";
shapes = (
{
closed = 1;
nodes = (
(370,80,o),
(344,91,o),
(344,132,cs),
(344,780,l),
(24,780,l),
(24,159,ls),
(24,-72,o),
(114,-124,o),
(253,-124,cs),
(310,-124,o),
(379,-120,o),
(424,-109,c),
(407,86,l)
);
}
);
width = 431;
}
);
unicode = 108;
},
{
glyphname = m;
kernLeft = n;
kernRight = n;
lastChange = "2022-05-01 03:44:58 +0000";
layers = (
{
layerId = "75B71696-F68C-493E-998D-CC33CA41914E";
shapes = (
{
closed = 1;
nodes = (
(752,593,o),
(705,516,o),
(705,431,c),
(696,431,l),
(685,526,o),
(645,593,o),
(502,593,cs),
(372,593,o),
(325,516,o),
(325,431,c),
(316,431,l),
(315,480,o),
(311,529,o),
(302,576,c),
(20,576,l),
(31,480,o),
(28,381,o),
(28,334,cs),
(28,-113,l),
(357,-113,l),
(357,298,ls),
(357,303,o),
(357,328,o),
(387,328,cs),
(417,328,o),
(417,303,o),
(417,298,cs),
(417,-114,l),
(712,-113,l),
(712,298,ls),
(712,303,o),
(712,328,o),
(742,328,cs),
(772,328,o),
(772,303,o),
(772,298,cs),
(772,-114,l),
(1082,-113,l),
(1082,324,ls),
(1080,472,o),
(1064,593,o),
(887,593,cs)
);
}
);
width = 1100;
}
);
metricLeft = n;
metricRight = n;
unicode = 109;
},
{
glyphname = n;
kernLeft = n;
kernRight = n;
lastChange = "2022-05-01 03:45:02 +0000";
layers = (
{
layerId = "75B71696-F68C-493E-998D-CC33CA41914E";
shapes = (
{
closed = 1;
nodes = (
(372,593,o),
(325,516,o),
(325,431,c),
(316,431,l),
(315,480,o),
(311,529,o),
(302,576,c),
(20,576,l),
(31,480,o),
(28,381,o),
(28,334,cs),
(28,-113,l),
(357,-113,l),
(357,298,ls),
(357,303,o),
(357,328,o),
(387,328,cs),
(417,328,o),
(417,303,o),
(417,298,cs),
(417,-114,l),
(742,-113,l),
(742,324,ls),
(740,472,o),
(724,593,o),
(502,593,cs)
);
}
);
width = 760;
}
);
unicode = 110;
},
{
glyphname = ntilde;
lastChange = "2022-05-01 03:45:07 +0000";
layers = (
{
layerId = "75B71696-F68C-493E-998D-CC33CA41914E";
shapes = (
{
closed = 1;
nodes = (
(372,593,o),
(325,516,o),
(325,431,c),
(316,431,l),
(315,480,o),
(311,529,o),
(302,576,c),
(20,576,l),
(31,480,o),
(28,381,o),
(28,334,cs),
(28,-113,l),
(357,-113,l),
(357,298,ls),
(357,303,o),
(357,328,o),
(387,328,cs),
(417,328,o),
(417,303,o),
(417,298,cs),
(417,-114,l),
(742,-113,l),
(742,324,ls),
(740,472,o),
(724,593,o),
(502,593,cs)
);
},
{
closed = 1;
nodes = (
(486,609,o),
(541,624,o),
(585,669,c),
(533,801,l),
(513,786,o),
(492,772,o),
(457,772,cs),
(391,772,o),
(387,800,o),
(306,800,cs),
(262,800,o),
(212,789,o),
(153,739,c),
(195,608,l),
(217,624,o),
(241,638,o),
(280,638,cs),
(347,638,o),
(351,609,o),
(431,609,cs)
);
}
);
width = 752;
}
);
unicode = 241;
},
{
glyphname = o;
kernLeft = o;
kernRight = o;
lastChange = "2022-05-01 03:45:14 +0000";
layers = (
{
layerId = "75B71696-F68C-493E-998D-CC33CA41914E";
shapes = (
{
closed = 1;
nodes = (
(725,165,o),
(727,200,o),
(727,243,cs),
(727,286,o),
(725,320,o),
(723,346,cs),
(710,518,o),
(578,599,o),
(373,599,cs),
(169,599,o),
(37,518,o),
(23,342,cs),
(21,316,o),
(19,282,o),
(19,239,cs),
(19,196,o),
(21,162,o),
(23,136,cs),
(36,-39,o),
(168,-122,o),
(373,-122,cs),
(578,-122,o),
(710,-39,o),
(723,138,cs)
);
},
{
closed = 1;
nodes = (
(403,164,o),
(403,139,o),
(373,139,cs),
(343,139,o),
(343,164,o),
(343,169,cs),
(343,309,ls),
(343,314,o),
(343,339,o),
(373,339,cs),
(403,339,o),
(403,314,o),
(403,309,cs),
(403,169,ls)
);
}
);
width = 742;
}
);
unicode = 111;
},
{
glyphname = oacute;
kernLeft = o;
kernRight = o;
lastChange = "2022-05-01 03:45:20 +0000";
layers = (
{
layerId = "75B71696-F68C-493E-998D-CC33CA41914E";
shapes = (
{
closed = 1;
nodes = (
(725,165,o),
(727,200,o),
(727,243,cs),
(727,286,o),
(725,320,o),
(723,346,cs),
(710,518,o),
(578,599,o),
(373,599,cs),
(169,599,o),
(37,518,o),
(23,342,cs),
(21,316,o),
(19,282,o),
(19,239,cs),
(19,196,o),
(21,162,o),
(23,136,cs),
(36,-39,o),
(168,-122,o),
(373,-122,cs),
(578,-122,o),
(710,-39,o),
(723,138,cs)
);
},
{
closed = 1;
nodes = (
(403,164,o),
(403,139,o),
(373,139,cs),
(343,139,o),
(343,164,o),
(343,169,cs),
(343,309,ls),
(343,314,o),
(343,339,o),
(373,339,cs),
(403,339,o),
(403,314,o),
(403,309,cs),
(403,169,ls)
);
},
{
closed = 1;
nodes = (
(622,793,l),
(311,793,l),
(197,619,l),
(464,619,l)
);
}
);
width = 738;
}
);
unicode = 243;
},
{
glyphname = ocircumflex;
kernLeft = o;
kernRight = o;
lastChange = "2022-05-01 03:45:28 +0000";
layers = (
{
layerId = "75B71696-F68C-493E-998D-CC33CA41914E";
shapes = (
{
closed = 1;
nodes = (
(725,165,o),
(727,200,o),
(727,243,cs),
(727,286,o),
(725,320,o),
(723,346,cs),
(710,518,o),
(578,599,o),
(373,599,cs),
(169,599,o),
(37,518,o),
(23,342,cs),
(21,316,o),
(19,282,o),
(19,239,cs),
(19,196,o),
(21,162,o),
(23,136,cs),
(36,-39,o),
(168,-122,o),
(373,-122,cs),
(578,-122,o),
(710,-39,o),
(723,138,cs)
);
},
{
closed = 1;
nodes = (
(403,164,o),
(403,139,o),
(373,139,cs),
(343,139,o),
(343,164,o),
(343,169,cs),
(343,309,ls),
(343,314,o),
(343,339,o),
(373,339,cs),
(403,339,o),
(403,314,o),
(403,309,cs),
(403,169,ls)
);
},
{
closed = 1;
nodes = (
(345,618,l),
(369,668,l),
(393,618,l),
(628,618,l),
(514,792,l),
(224,792,l),
(110,618,l)
);
}
);
width = 742;
}
);
unicode = 244;
},
{
glyphname = odieresis;
kernLeft = o;
kernRight = o;
lastChange = "2022-05-01 03:45:35 +0000";
layers = (
{
layerId = "75B71696-F68C-493E-998D-CC33CA41914E";
shapes = (
{
closed = 1;
nodes = (
(725,165,o),
(727,200,o),
(727,243,cs),
(727,286,o),
(725,320,o),
(723,346,cs),
(710,518,o),
(578,599,o),
(373,599,cs),
(169,599,o),
(37,518,o),
(23,342,cs),
(21,316,o),
(19,282,o),
(19,239,cs),
(19,196,o),
(21,162,o),
(23,136,cs),
(36,-39,o),
(168,-122,o),
(373,-122,cs),
(578,-122,o),
(710,-39,o),
(723,138,cs)
);
},
{
closed = 1;
nodes = (
(403,164,o),
(403,139,o),
(373,139,cs),
(343,139,o),
(343,164,o),
(343,169,cs),
(343,309,ls),
(343,314,o),
(343,339,o),
(373,339,cs),
(403,339,o),
(403,314,o),
(403,309,cs),
(403,169,ls)
);
},
{
closed = 1;
nodes = (
(141,618,l),
(351,618,l),
(351,792,l),
(141,792,l)
);
},
{
closed = 1;
nodes = (
(387,618,l),
(597,618,l),
(597,792,l),
(387,792,l)
);
}
);
width = 742;
}
);
unicode = 246;
},
{
glyphname = ograve;
kernLeft = o;
kernRight = o;
lastChange = "2022-05-01 03:45:44 +0000";
layers = (
{
guides = (
{
angle = 90;
pos = (369,-57);
}
);
layerId = "75B71696-F68C-493E-998D-CC33CA41914E";
shapes = (
{
closed = 1;
nodes = (
(725,165,o),
(727,200,o),
(727,243,cs),
(727,286,o),
(725,320,o),
(723,346,cs),
(710,518,o),
(578,599,o),
(373,599,cs),
(169,599,o),
(37,518,o),
(23,342,cs),
(21,316,o),
(19,282,o),
(19,239,cs),
(19,196,o),
(21,162,o),
(23,136,cs),
(36,-39,o),
(168,-122,o),
(373,-122,cs),
(578,-122,o),
(710,-39,o),
(723,138,cs)
);
},
{
closed = 1;
nodes = (
(403,164,o),
(403,139,o),
(373,139,cs),
(343,139,o),
(343,164,o),
(343,169,cs),
(343,309,ls),
(343,314,o),
(343,339,o),
(373,339,cs),
(403,339,o),
(403,314,o),
(403,309,cs),
(403,169,ls)
);
},
{
closed = 1;
nodes = (
(544,619,l),
(430,793,l),
(129,793,l),
(287,619,l)
);
}
);
width = 738;
}
);
unicode = 242;
},
{
glyphname = oslash;
kernLeft = o;
kernRight = o;
lastChange = "2022-05-01 03:45:51 +0000";
layers = (
{
layerId = "75B71696-F68C-493E-998D-CC33CA41914E";
shapes = (
{
closed = 1;
nodes = (
(69,-115,l),
(118,-151,l),
(669,591,l),
(620,627,l)
);
},
{
closed = 1;
nodes = (
(725,165,o),
(727,200,o),
(727,243,cs),
(727,286,o),
(725,320,o),
(723,346,cs),
(710,518,o),
(578,599,o),
(373,599,cs),
(169,599,o),
(37,518,o),
(23,342,cs),
(21,316,o),
(19,282,o),
(19,239,cs),
(19,196,o),
(21,162,o),
(23,136,cs),
(36,-39,o),
(168,-122,o),
(373,-122,cs),
(578,-122,o),
(710,-39,o),
(723,138,cs)
);
},
{
closed = 1;
nodes = (
(403,164,o),
(403,139,o),
(373,139,cs),
(343,139,o),
(343,164,o),
(343,169,cs),
(343,309,ls),
(343,314,o),
(343,339,o),
(373,339,cs),
(403,339,o),
(403,314,o),
(403,309,cs),
(403,169,ls)
);
}
);
width = 738;
}
);
unicode = 248;
},
{
glyphname = otilde;
kernLeft = o;
kernRight = o;
lastChange = "2022-05-01 03:45:58 +0000";
layers = (
{
layerId = "75B71696-F68C-493E-998D-CC33CA41914E";
shapes = (
{
closed = 1;
nodes = (
(725,165,o),
(727,200,o),
(727,243,cs),
(727,286,o),
(725,320,o),
(723,346,cs),
(710,518,o),
(578,599,o),
(373,599,cs),
(169,599,o),
(37,518,o),
(23,342,cs),
(21,316,o),
(19,282,o),
(19,239,cs),
(19,196,o),
(21,162,o),
(23,136,cs),
(36,-39,o),
(168,-122,o),
(373,-122,cs),
(578,-122,o),
(710,-39,o),
(723,138,cs)
);
},
{
closed = 1;
nodes = (
(403,164,o),
(403,139,o),
(373,139,cs),
(343,139,o),
(343,164,o),
(343,169,cs),
(343,309,ls),
(343,314,o),
(343,339,o),
(373,339,cs),
(403,339,o),
(403,314,o),
(403,309,cs),
(403,169,ls)
);
},
{
closed = 1;
nodes = (
(488,614,o),
(543,629,o),
(587,674,c),
(535,806,l),
(515,791,o),
(494,777,o),
(459,777,cs),
(393,777,o),
(389,805,o),
(308,805,cs),
(264,805,o),
(214,794,o),
(155,744,c),
(197,613,l),
(219,629,o),
(243,643,o),
(282,643,cs),
(349,643,o),
(353,614,o),
(433,614,cs)
);
}
);
width = 742;
}
);
unicode = 245;
},
{
glyphname = oe;
kernLeft = o;
kernRight = o;
lastChange = "2022-05-01 03:02:20 +0000";
layers = (
{
layerId = "75B71696-F68C-493E-998D-CC33CA41914E";
shapes = (
{
closed = 1;
nodes = (
(654,599,o),
(600,581,o),
(557,549,c),
(503,582,o),
(433,599,o),
(349,599,cs),
(155,599,o),
(33,518,o),
(19,342,cs),
(17,316,o),
(15,282,o),
(15,239,cs),
(15,196,o),
(17,162,o),
(19,136,cs),
(32,-39,o),
(154,-122,o),
(349,-122,cs),
(427,-122,o),
(494,-105,o),
(547,-73,c),
(595,-105,o),
(656,-122,o),
(731,-122,cs),
(931,-122,o),
(1061,-29,o),
(1061,128,cs),
(1061,149,l),
(769,166,l),
(769,139,ls),
(769,120,o),
(760,109,o),
(741,109,cs),
(722,109,o),
(713,120,o),
(713,139,cs),
(713,199,l),
(1065,199,l),
(1065,316,ls),
(1059,489,o),
(925,599,o),
(731,599,cs)
);
},
{
closed = 1;
nodes = (
(713,338,o),
(722,349,o),
(741,349,cs),
(760,349,o),
(769,338,o),
(769,319,cs),
(769,279,l),
(713,279,l),
(713,319,ls)
);
},
{
closed = 1;
nodes = (
(377,150,o),
(377,125,o),
(349,125,cs),
(321,125,o),
(321,150,o),
(321,155,cs),
(321,313,ls),
(321,318,o),
(321,343,o),
(349,343,cs),
(377,343,o),
(377,318,o),
(377,313,cs),
(377,155,ls)
);
}
);
width = 1080;
}
);
unicode = 339;
},
{
glyphname = p;
kernRight = b;
lastChange = "2022-05-01 03:46:04 +0000";
layers = (
{
layerId = "75B71696-F68C-493E-998D-CC33CA41914E";
shapes = (
{
closed = 1;
nodes = (
(25,532,o),
(29,488,o),
(29,444,cs),
(28,-284,l),
(358,-284,l),
(358,-94,ls),
(358,-76,o),
(414,-124,o),
(474,-124,cs),
(724,-124,o),
(760,48,o),
(760,238,cs),
(760,442,o),
(726,598,o),
(494,587,cs),
(412,583,o),
(357,526,o),
(345,427,c),
(335,427,l),
(336,470,o),
(335,533,o),
(330,576,c),
(20,576,l)
);
},
{
closed = 1;
nodes = (
(434,150,o),
(434,125,o),
(404,125,cs),
(374,125,o),
(374,150,o),
(374,155,cs),
(374,305,ls),
(374,310,o),
(374,335,o),
(404,335,cs),
(434,335,o),
(434,310,o),
(434,305,cs),
(434,155,ls)
);
}
);
width = 772;
}
);
unicode = 112;
},
{
glyphname = thorn;
kernLeft = H;
kernRight = b;
lastChange = "2022-05-01 03:02:20 +0000";
layers = (
{
layerId = "75B71696-F68C-493E-998D-CC33CA41914E";
shapes = (
{
closed = 1;
nodes = (
(421,594,o),
(373,557,o),
(350,493,c),
(350,770,l),
(20,770,l),
(20,-284,l),
(350,-284,l),
(350,-94,l),
(364,-107,o),
(406,-124,o),
(466,-124,cs),
(716,-124,o),
(752,48,o),
(752,238,cs),
(752,442,o),
(718,608,o),
(486,597,cs)
);
},
{
closed = 1;
nodes = (
(426,150,o),
(426,125,o),
(396,125,cs),
(366,125,o),
(366,150,o),
(366,155,cs),
(366,305,ls),
(366,310,o),
(366,335,o),
(396,335,cs),
(426,335,o),
(426,310,o),
(426,305,cs),
(426,155,ls)
);
}
);
width = 767;
}
);
unicode = 254;
},
{
glyphname = q;
kernLeft = d;
lastChange = "2022-05-01 03:46:10 +0000";
layers = (
{
layerId = "75B71696-F68C-493E-998D-CC33CA41914E";
shapes = (
{
closed = 1;
nodes = (
(454,543,o),
(453,510,o),
(453,477,c),
(438,530,o),
(398,583,o),
(294,584,cs),
(50,586,o),
(18,425,o),
(18,235,cs),
(18,63,o),
(38,-127,o),
(252,-127,cs),
(380,-127,o),
(418,-45,o),
(420,30,c),
(430,30,l),
(420,-108,l),
(420,-284,l),
(750,-284,l),
(749,445,ls),
(749,489,o),
(753,533,o),
(758,576,c),
(458,576,l)
);
},
{
closed = 1;
nodes = (
(404,150,o),
(404,125,o),
(374,125,cs),
(344,125,o),
(344,150,o),
(344,155,cs),
(344,305,ls),
(344,310,o),
(344,335,o),
(374,335,cs),
(404,335,o),
(404,310,o),
(404,305,cs),
(404,155,ls)
);
}
);
width = 772;
}
);
unicode = 113;
},
{
glyphname = r;
kernLeft = n;
lastChange = "2022-05-01 03:46:14 +0000";
layers = (
{
layerId = "75B71696-F68C-493E-998D-CC33CA41914E";
shapes = (
{
closed = 1;
nodes = (
(411,581,o),
(389,537,o),
(368,512,cs),
(343,482,o),
(325,401,o),
(325,385,c),
(317,385,l),
(314,445,o),
(309,520,o),
(279,576,c),
(20,576,l),
(27,516,o),
(28,454,o),
(28,402,cs),
(28,346,l),
(28,-113,l),
(348,-114,l),
(342,184,l),
(368,210,o),
(416,225,o),
(467,225,cs),
(508,225,o),
(538,216,o),
(559,202,c),
(560,202,l),
(593,572,l),
(564,579,o),
(538,581,o),
(520,581,cs)
);
}
);
width = 603;
}
);
unicode = 114;
},
{
glyphname = s;
lastChange = "2022-05-01 03:46:18 +0000";
layers = (
{
layerId = "75B71696-F68C-493E-998D-CC33CA41914E";
shapes = (
{
closed = 1;
nodes = (
(555,307,o),
(486,324,o),
(382,332,cs),
(357,333,o),
(342,336,o),
(339,323,cs),
(335,305,o),
(350,304,o),
(378,300,cs),
(501,286,o),
(674,273,o),
(670,72,cs),
(664,-204,o),
(230,-155,o),
(10,-103,c),
(37,215,l),
(79,185,o),
(137,140,o),
(305,125,cs),
(325,123,o),
(340,122,o),
(342,134,cs),
(345,151,o),
(333,154,o),
(306,157,cs),
(176,174,o),
(30,199,o),
(24,353,cs),
(15,637,o),
(357,636,o),
(649,551,c),
(621,268,l)
);
}
);
width = 678;
}
);
unicode = 115;
},
{
glyphname = germandbls;
lastChange = "2022-05-01 03:02:20 +0000";
layers = (
{
layerId = "75B71696-F68C-493E-998D-CC33CA41914E";
shapes = (
{
closed = 1;
nodes = (
(827,357,o),
(853,413,o),
(853,506,cs),
(853,678,o),
(711,750,o),
(485,750,cs),
(245,750,o),
(84,660,o),
(71,420,c),
(10,420,l),
(10,260,l),
(70,260,l),
(70,-113,l),
(400,-113,l),
(400,328,ls),
(400,417,o),
(452,461,o),
(525,461,cs),
(542,461,o),
(572,456,o),
(572,433,cs),
(572,401,o),
(523,378,o),
(443,363,c),
(443,241,l),
(524,236,o),
(582,210,o),
(582,179,cs),
(582,161,o),
(568,143,o),
(540,143,cs),
(512,143,o),
(468,162,o),
(445,180,c),
(425,-113,l),
(463,-119,o),
(504,-122,o),
(549,-122,cs),
(763,-122,o),
(877,-64,o),
(877,135,cs),
(877,229,o),
(842,287,o),
(781,321,c)
);
}
);
width = 887;
}
);
unicode = 223;
},
{
glyphname = t;
lastChange = "2022-05-01 03:46:27 +0000";
layers = (
{
layerId = "75B71696-F68C-493E-998D-CC33CA41914E";
shapes = (
{
closed = 1;
nodes = (
(428,152,o),
(398,162,o),
(398,227,cs),
(398,336,l),
(478,336,l),
(478,576,l),
(398,576,l),
(398,696,l),
(98,666,l),
(80,576,l),
(18,576,l),
(18,336,l),
(78,336,l),
(78,154,ls),
(78,-134,o),
(266,-145,o),
(497,-113,c),
(474,157,l)
);
}
);
width = 504;
}
);
unicode = 116;
},
{
glyphname = u;
kernLeft = u;
kernRight = u;
lastChange = "2022-05-01 03:46:33 +0000";
layers = (
{
layerId = "75B71696-F68C-493E-998D-CC33CA41914E";
shapes = (
{
closed = 1;
nodes = (
(734,-81,o),
(733,97,o),
(733,129,cs),
(733,576,l),
(404,576,l),
(404,165,ls),
(404,160,o),
(404,135,o),
(374,135,cs),
(344,135,o),
(344,160,o),
(344,165,cs),
(344,576,l),
(19,576,l),
(19,139,ls),
(21,-9,o),
(37,-130,o),
(259,-130,cs),
(389,-130,o),
(436,-53,o),
(436,32,c),
(446,32,l),
(446,-16,o),
(450,-69,o),
(461,-113,c),
(744,-113,l)
);
}
);
width = 756;
}
);
unicode = 117;
},
{
glyphname = uacute;
kernLeft = u;
kernRight = u;
lastChange = "2022-05-01 03:46:39 +0000";
layers = (
{
layerId = "75B71696-F68C-493E-998D-CC33CA41914E";
shapes = (
{
closed = 1;
nodes = (
(734,-81,o),
(733,97,o),
(733,129,cs),
(733,576,l),
(404,576,l),
(404,165,ls),
(404,160,o),
(404,135,o),
(374,135,cs),
(344,135,o),
(344,160,o),
(344,165,cs),
(344,576,l),
(19,576,l),
(19,139,ls),
(21,-9,o),
(37,-130,o),
(259,-130,cs),
(389,-130,o),
(436,-53,o),
(436,32,c),
(446,32,l),
(446,-16,o),
(450,-69,o),
(461,-113,c),
(744,-113,l)
);
},
{
closed = 1;
nodes = (
(629,780,l),
(318,780,l),
(204,606,l),
(471,606,l)
);
}
);
width = 755;
}
);
unicode = 250;
},
{
glyphname = ucircumflex;
kernLeft = u;
kernRight = u;
lastChange = "2022-05-01 03:46:55 +0000";
layers = (
{
layerId = "75B71696-F68C-493E-998D-CC33CA41914E";
shapes = (
{
closed = 1;
nodes = (
(734,-81,o),
(733,97,o),
(733,129,cs),
(733,576,l),
(404,576,l),
(404,165,ls),
(404,160,o),
(404,135,o),
(374,135,cs),
(344,135,o),
(344,160,o),
(344,165,cs),
(344,576,l),
(19,576,l),
(19,139,ls),
(21,-9,o),
(37,-130,o),
(259,-130,cs),
(389,-130,o),
(436,-53,o),
(436,32,c),
(446,32,l),
(446,-16,o),
(450,-69,o),
(461,-113,c),
(744,-113,l)
);
},
{
closed = 1;
nodes = (
(352,606,l),
(376,656,l),
(400,606,l),
(635,606,l),
(521,780,l),
(231,780,l),
(117,606,l)
);
}
);
width = 756;
}
);
unicode = 251;
},
{
glyphname = udieresis;
kernLeft = u;
kernRight = u;
lastChange = "2022-05-01 03:47:02 +0000";
layers = (
{
layerId = "75B71696-F68C-493E-998D-CC33CA41914E";
shapes = (
{
closed = 1;
nodes = (
(734,-81,o),
(733,97,o),
(733,129,cs),
(733,576,l),
(404,576,l),
(404,165,ls),
(404,160,o),
(404,135,o),
(374,135,cs),
(344,135,o),
(344,160,o),
(344,165,cs),
(344,576,l),
(19,576,l),
(19,139,ls),
(21,-9,o),
(37,-130,o),
(259,-130,cs),
(389,-130,o),
(436,-53,o),
(436,32,c),
(446,32,l),
(446,-16,o),
(450,-69,o),
(461,-113,c),
(744,-113,l)
);
},
{
closed = 1;
nodes = (
(148,606,l),
(358,606,l),
(358,780,l),
(148,780,l)
);
},
{
closed = 1;
nodes = (
(394,606,l),
(604,606,l),
(604,780,l),
(394,780,l)
);
}
);
width = 756;
}
);
unicode = 252;
},
{
glyphname = ugrave;
kernLeft = u;
kernRight = u;
lastChange = "2022-05-01 03:47:08 +0000";
layers = (
{
layerId = "75B71696-F68C-493E-998D-CC33CA41914E";
shapes = (
{
closed = 1;
nodes = (
(734,-81,o),
(733,97,o),
(733,129,cs),
(733,576,l),
(404,576,l),
(404,165,ls),
(404,160,o),
(404,135,o),
(374,135,cs),
(344,135,o),
(344,160,o),
(344,165,cs),
(344,576,l),
(19,576,l),
(19,139,ls),
(21,-9,o),
(37,-130,o),
(259,-130,cs),
(389,-130,o),
(436,-53,o),
(436,32,c),
(446,32,l),
(446,-16,o),
(450,-69,o),
(461,-113,c),
(744,-113,l)
);
},
{
closed = 1;
nodes = (
(550,606,l),
(436,780,l),
(135,780,l),
(293,606,l)
);
}
);
width = 752;
}
);
unicode = 249;
},
{
glyphname = v;
lastChange = "2022-05-01 03:47:12 +0000";
layers = (
{
layerId = "75B71696-F68C-493E-998D-CC33CA41914E";
shapes = (
{
closed = 1;
nodes = (
(768,577,l),
(427,577,l),
(393,174,l),
(383,174,l),
(349,576,l),
(8,576,l),
(172,-113,l),
(605,-113,l)
);
}
);
width = 778;
}
);
unicode = 118;
},
{
glyphname = w;
kernLeft = w;
kernRight = w;
lastChange = "2022-05-01 03:35:24 +0000";
layers = (
{
layerId = "75B71696-F68C-493E-998D-CC33CA41914E";
shapes = (
{
closed = 1;
nodes = (
(519,102,l),
(529,102,l),
(576,-113,l),
(926,-113,l),
(1042,576,l),
(707,576,l),
(695,213,l),
(685,213,l),
(631,577,l),
(419,577,l),
(365,214,l),
(355,214,l),
(341,577,l),
(6,577,l),
(122,-113,l),
(472,-113,l)
);
}
);
width = 1054;
}
);
unicode = 119;
},
{
glyphname = wacute;
kernLeft = w;
kernRight = w;
lastChange = "2022-05-01 03:35:10 +0000";
layers = (
{
layerId = "75B71696-F68C-493E-998D-CC33CA41914E";
shapes = (
{
closed = 1;
nodes = (
(519,102,l),
(529,102,l),
(576,-113,l),
(926,-113,l),
(1042,576,l),
(707,576,l),
(695,213,l),
(685,213,l),
(631,577,l),
(419,577,l),
(365,214,l),
(355,214,l),
(341,577,l),
(6,577,l),
(122,-113,l),
(472,-113,l)
);
},
{
closed = 1;
nodes = (
(791,781,l),
(480,781,l),
(366,607,l),
(633,607,l)
);
}
);
width = 1056;
}
);
unicode = 7811;
},
{
glyphname = wcircumflex;
kernLeft = w;
kernRight = w;
lastChange = "2022-05-01 03:35:03 +0000";
layers = (
{
layerId = "75B71696-F68C-493E-998D-CC33CA41914E";
shapes = (
{
closed = 1;
nodes = (
(519,102,l),
(529,102,l),
(576,-113,l),
(926,-113,l),
(1042,576,l),
(707,576,l),
(695,213,l),
(685,213,l),
(631,577,l),
(419,577,l),
(365,214,l),
(355,214,l),
(341,577,l),
(6,577,l),
(122,-113,l),
(472,-113,l)
);
},
{
closed = 1;
nodes = (
(504,603,l),
(528,653,l),
(552,603,l),
(787,603,l),
(673,777,l),
(383,777,l),
(269,603,l)
);
}
);
width = 1054;
}
);
unicode = 373;
},
{
glyphname = wdieresis;
kernLeft = w;
kernRight = w;
lastChange = "2022-05-01 03:34:59 +0000";
layers = (
{
layerId = "75B71696-F68C-493E-998D-CC33CA41914E";
shapes = (
{
closed = 1;
nodes = (
(519,102,l),
(529,102,l),
(576,-113,l),
(926,-113,l),
(1042,576,l),
(707,576,l),
(695,213,l),
(685,213,l),
(631,577,l),
(419,577,l),
(365,214,l),
(355,214,l),
(341,577,l),
(6,577,l),
(122,-113,l),
(472,-113,l)
);
},
{
closed = 1;
nodes = (
(300,601,l),
(510,601,l),
(510,775,l),
(300,775,l)
);
},
{
closed = 1;
nodes = (
(546,601,l),
(756,601,l),
(756,775,l),
(546,775,l)
);
}
);
width = 1054;
}
);
unicode = 7813;
},
{
glyphname = wgrave;
kernLeft = w;
kernRight = w;
lastChange = "2022-05-01 03:34:54 +0000";
layers = (
{
layerId = "75B71696-F68C-493E-998D-CC33CA41914E";
shapes = (
{
closed = 1;
nodes = (
(519,102,l),
(529,102,l),
(576,-113,l),
(926,-113,l),
(1042,576,l),
(707,576,l),
(695,213,l),
(685,213,l),
(631,577,l),
(419,577,l),
(365,214,l),
(355,214,l),
(341,577,l),
(6,577,l),
(122,-113,l),
(472,-113,l)
);
},
{
closed = 1;
nodes = (
(693,602,l),
(579,776,l),
(278,776,l),
(436,602,l)
);
}
);
width = 1056;
}
);
unicode = 7809;
},
{
glyphname = x;
lastChange = "2022-05-01 03:34:49 +0000";
layers = (
{
layerId = "75B71696-F68C-493E-998D-CC33CA41914E";
shapes = (
{
closed = 1;
nodes = (
(379,362,l),
(356,576,l),
(16,576,l),
(119,246,l),
(10,-113,l),
(356,-113,l),
(379,130,l),
(389,130,l),
(416,-113,l),
(758,-113,l),
(643,246,l),
(752,576,l),
(408,576,l),
(389,362,l)
);
}
);
width = 762;
}
);
unicode = 120;
},
{
glyphname = y;
kernLeft = y;
kernRight = y;
lastChange = "2022-05-01 03:34:44 +0000";
layers = (
{
layerId = "75B71696-F68C-493E-998D-CC33CA41914E";
shapes = (
{
closed = 1;
nodes = (
(776,576,l),
(416,576,l),
(414,197,l),
(395,197,l),
(366,576,l),
(6,576,l),
(214,-9,l),
(100,-284,l),
(510,-284,l)
);
}
);
width = 784;
}
);
unicode = 121;
},
{
glyphname = yacute;
kernLeft = y;
kernRight = y;
lastChange = "2022-05-01 03:34:39 +0000";
layers = (
{
layerId = "75B71696-F68C-493E-998D-CC33CA41914E";
shapes = (
{
closed = 1;
nodes = (
(776,576,l),
(416,576,l),
(414,197,l),
(395,197,l),
(366,576,l),
(6,576,l),
(214,-9,l),
(100,-284,l),
(510,-284,l)
);
},
{
closed = 1;
nodes = (
(653,780,l),
(342,780,l),
(228,606,l),
(495,606,l)
);
}
);
width = 790;
}
);
unicode = 253;
},
{
glyphname = ycircumflex;
kernLeft = y;
kernRight = y;
lastChange = "2022-05-01 03:34:33 +0000";
layers = (
{
layerId = "75B71696-F68C-493E-998D-CC33CA41914E";
shapes = (
{
closed = 1;
nodes = (
(776,576,l),
(416,576,l),
(414,197,l),
(395,197,l),
(366,576,l),
(6,576,l),
(214,-9,l),
(100,-284,l),
(510,-284,l)
);
},
{
closed = 1;
nodes = (
(376,603,l),
(400,653,l),
(424,603,l),
(659,603,l),
(545,777,l),
(255,777,l),
(141,603,l)
);
}
);
width = 784;
}
);
unicode = 375;
},
{
glyphname = ydieresis;
kernLeft = y;
kernRight = y;
lastChange = "2022-05-01 03:33:32 +0000";
layers = (
{
layerId = "75B71696-F68C-493E-998D-CC33CA41914E";
shapes = (
{
closed = 1;
nodes = (
(776,576,l),
(416,576,l),
(414,197,l),
(395,197,l),
(366,576,l),
(6,576,l),
(214,-9,l),
(100,-284,l),
(510,-284,l)
);
},
{
closed = 1;
nodes = (
(172,605,l),
(382,605,l),
(382,779,l),
(172,779,l)
);
},
{
closed = 1;
nodes = (
(418,605,l),
(628,605,l),
(628,779,l),
(418,779,l)
);
}
);
width = 784;
}
);
unicode = 255;
},
{
glyphname = ygrave;
kernLeft = y;
kernRight = y;
lastChange = "2022-05-01 03:33:27 +0000";
layers = (
{
layerId = "75B71696-F68C-493E-998D-CC33CA41914E";
shapes = (
{
closed = 1;
nodes = (
(776,576,l),
(416,576,l),
(414,197,l),
(395,197,l),
(366,576,l),
(6,576,l),
(214,-9,l),
(100,-284,l),
(510,-284,l)
);
},
{
closed = 1;
nodes = (
(575,602,l),
(461,776,l),
(160,776,l),
(318,602,l)
);
}
);
width = 790;
}
);
unicode = 7923;
},
{
glyphname = z;
lastChange = "2022-05-01 03:33:22 +0000";
layers = (
{
layerId = "75B71696-F68C-493E-998D-CC33CA41914E";
shapes = (
{
closed = 1;
nodes = (
(648,576,l),
(38,576,l),
(38,316,l),
(242,316,l),
(18,77,l),
(18,-113,l),
(658,-113,l),
(658,147,l),
(425,147,l),
(648,386,l)
);
}
);
width = 668;
}
);
unicode = 122;
},
{
glyphname = uni52A0;
lastChange = "2022-05-01 03:02:20 +0000";
layers = (
{
layerId = "75B71696-F68C-493E-998D-CC33CA41914E";
shapes = (
{
closed = 1;
nodes = (
(79,700,l),
(19,700,l),
(24,470,l),
(75,470,l),
(63,235,o),
(33,-7,o),
(0,-144,c),
(213,-188,l),
(227,-148,o),
(240,-83,o),
(252,-3,c),
(268,-170,l),
(514,-170,o),
(552,-152,o),
(552,32,cs),
(552,700,l),
(319,700,l),
(319,800,l),
(79,800,l)
);
},
{
closed = 1;
nodes = (
(580,740,l),
(580,-150,l),
(798,-150,l),
(798,-95,l),
(836,-95,l),
(836,-148,l),
(1056,-148,l),
(1056,740,l)
);
},
{
closed = 1;
nodes = (
(798,135,l),
(798,515,l),
(836,515,l),
(836,135,l)
);
},
{
closed = 1;
nodes = (
(330,43,o),
(315,26,o),
(257,34,c),
(273,158,o),
(286,312,o),
(294,470,c),
(330,470,l),
(330,105,ls)
);
}
);
width = 1080;
}
);
unicode = 21152;
},
{
glyphname = uni77F3;
lastChange = "2022-05-01 03:02:20 +0000";
layers = (
{
layerId = "75B71696-F68C-493E-998D-CC33CA41914E";
shapes = (
{
closed = 1;
nodes = (
(42,760,l),
(42,520,l),
(250,520,l),
(193,416,o),
(87,323,o),
(5,290,c),
(43,-3,l),
(43,-2,l),
(81,19,o),
(123,46,o),
(167,78,c),
(167,-170,l),
(422,-170,l),
(422,-125,l),
(764,-125,l),
(764,-170,l),
(1019,-170,l),
(1019,425,l),
(483,425,l),
(499,456,o),
(514,487,o),
(526,520,c),
(1062,520,l),
(1062,760,l)
);
},
{
closed = 1;
nodes = (
(422,200,l),
(764,200,l),
(764,110,l),
(422,110,l)
);
}
);
width = 1080;
}
);
unicode = 30707;
},
{
glyphname = "ga-ko";
lastChange = "2022-05-01 03:02:20 +0000";
layers = (
{
layerId = "75B71696-F68C-493E-998D-CC33CA41914E";
shapes = (
{
closed = 1;
nodes = (
(270,470,l),
(266,331,o),
(211,200,o),
(10,200,c),
(46,-122,l),
(493,-102,o),
(570,93,o),
(570,770,c),
(35,770,l),
(35,470,l)
);
},
{
closed = 1;
nodes = (
(900,800,l),
(600,800,l),
(600,-160,l),
(900,-160,l),
(900,225,l),
(970,225,l),
(970,535,l),
(900,535,l)
);
}
);
width = 980;
}
);
unicode = 44032;
},
{
glyphname = "gag-ko";
lastChange = "2022-05-01 03:02:20 +0000";
layers = (
{
layerId = "75B71696-F68C-493E-998D-CC33CA41914E";
shapes = (
{
closed = 1;
nodes = (
(910,800,l),
(610,800,l),
(610,235,l),
(910,235,l),
(910,380,l),
(970,380,l),
(970,670,l),
(910,670,l)
);
},
{
closed = 1;
nodes = (
(43,540,l),
(298,540,l),
(298,519,o),
(283,501,o),
(15,491,c),
(35,238,l),
(560,246,o),
(590,294,o),
(585,785,c),
(43,785,l)
);
},
{
closed = 1;
nodes = (
(600,-160,l),
(910,-160,l),
(910,210,l),
(50,210,l),
(50,-55,l),
(600,-55,l)
);
}
);
width = 980;
}
);
unicode = 44033;
},
{
glyphname = "gan-ko";
lastChange = "2022-05-01 03:02:20 +0000";
layers = (
{
layerId = "75B71696-F68C-493E-998D-CC33CA41914E";
shapes = (
{
closed = 1;
nodes = (
(610,800,l),
(610,145,l),
(910,145,l),
(910,352,l),
(970,352,l),
(970,642,l),
(910,642,l),
(910,800,l)
);
},
{
closed = 1;
nodes = (
(33,545,l),
(297,545,l),
(297,524,o),
(272,506,o),
(5,496,c),
(25,243,l),
(548,251,o),
(589,304,o),
(585,785,c),
(33,785,l)
);
},
{
closed = 1;
nodes = (
(40,-160,l),
(920,-160,l),
(920,105,l),
(360,105,l),
(360,215,l),
(40,215,l)
);
}
);
width = 980;
}
);
unicode = 44036;
},
{
glyphname = "gad-ko";
lastChange = "2022-05-01 03:02:20 +0000";
layers = (
{
layerId = "75B71696-F68C-493E-998D-CC33CA41914E";
shapes = (
{
closed = 1;
nodes = (
(610,800,l),
(610,270,l),
(910,270,l),
(910,398,l),
(970,398,l),
(970,688,l),
(910,688,l),
(910,800,l)
);
},
{
closed = 1;
nodes = (
(43,560,l),
(298,560,l),
(298,539,o),
(283,531,o),
(15,521,c),
(35,278,l),
(558,286,o),
(589,334,o),
(585,790,c),
(43,790,l)
);
},
{
closed = 1;
nodes = (
(910,246,l),
(45,246,l),
(45,-160,l),
(920,-160,l),
(920,54,l),
(355,54,l),
(355,86,l),
(910,86,l)
);
}
);
width = 980;
}
);
unicode = 44039;
},
{
glyphname = "gal-ko";
lastChange = "2022-10-12 10:57:55 +0000";
layers = (
{
layerId = "75B71696-F68C-493E-998D-CC33CA41914E";
shapes = (
{
closed = 1;
nodes = (
(610,800,l),
(610,300,l),
(910,300,l),
(910,420,l),
(970,420,l),
(970,700,l),
(910,700,l),
(910,800,l)
);
},
{
closed = 1;
nodes = (
(38,580,l),
(298,580,l),
(298,559,o),
(278,551,o),
(10,541,c),
(30,303,l),
(553,311,o),
(589,354,o),
(585,790,c),
(38,790,l)
);
},
{
closed = 1;
nodes = (
(904,98,o),
(831,38,o),
(524,25,c),
(524,45,l),
(806,57,o),
(910,118,o),
(910,131,cs),
(910,277,l),
(45,277,l),
(45,137,l),
(431,137,l),
(431,117,l),
(45,117,l),
(45,-105,ls),
(45,-214,o),
(915,-188,o),
(942,-124,c),
(914,100,l),
(911,102,l)
);
}
);
width = 980;
}
);
unicode = 44040;
},
{
glyphname = "galg-ko";
lastChange = "2022-05-01 03:02:20 +0000";
layers = (
{
layerId = "75B71696-F68C-493E-998D-CC33CA41914E";
shapes = (
{
closed = 1;
nodes = (
(910,800,l),
(620,800,l),
(620,312,l),
(910,312,l),
(910,422,l),
(970,422,l),
(970,712,l),
(910,712,l)
);
},
{
closed = 1;
nodes = (
(553,291,o),
(599,329,o),
(595,785,c),
(38,785,l),
(38,555,l),
(298,555,l),
(298,534,o),
(278,526,o),
(10,516,c),
(30,283,l)
);
},
{
closed = 1;
nodes = (
(501,51,o),
(397,26,o),
(279,31,c),
(279,51,l),
(407,46,o),
(481,75,o),
(481,97,cs),
(481,261,l),
(30,261,l),
(30,116,l),
(210,116,l),
(210,96,l),
(30,96,l),
(33,-110,ls),
(33,-200,o),
(496,-190,o),
(560,-135,c),
(513,51,l),
(600,51,l),
(600,-160,l),
(910,-160,l),
(910,286,l),
(501,286,l),
(501,97,ls)
);
}
);
width = 980;
}
);
unicode = 44041;
},
{
glyphname = "galm-ko";
lastChange = "2022-05-01 03:02:20 +0000";
layers = (
{
layerId = "75B71696-F68C-493E-998D-CC33CA41914E";
shapes = (
{
closed = 1;
nodes = (
(910,800,l),
(620,800,l),
(620,306,l),
(910,306,l),
(910,414,l),
(970,414,l),
(970,704,l),
(910,704,l)
);
},
{
closed = 1;
nodes = (
(553,291,o),
(599,329,o),
(595,785,c),
(38,785,l),
(38,555,l),
(298,555,l),
(298,534,o),
(278,526,o),
(10,516,c),
(30,283,l)
);
},
{
closed = 1;
nodes = (
(466,70,l),
(456,63,o),
(393,26,o),
(275,31,c),
(275,51,l),
(403,46,o),
(467,92,o),
(467,97,cs),
(467,251,l),
(30,251,l),
(30,106,l),
(210,106,l),
(210,86,l),
(30,86,l),
(33,-110,ls),
(33,-191,o),
(396,-199,o),
(516,-160,c),
(910,-160,l),
(910,281,l),
(500,281,l),
(500,-20,l),
(467,69,l)
);
},
{
closed = 1;
nodes = (
(710,23,l),
(690,23,l),
(690,143,l),
(710,143,l)
);
}
);
width = 980;
}
);
unicode = 44042;
},
{
glyphname = "galb-ko";
lastChange = "2022-05-01 03:02:20 +0000";
layers = (
{
layerId = "75B71696-F68C-493E-998D-CC33CA41914E";
shapes = (
{
closed = 1;
nodes = (
(910,800,l),
(620,800,l),
(620,306,l),
(910,306,l),
(910,416,l),
(970,416,l),
(970,706,l),
(910,706,l)
);
},
{
closed = 1;
nodes = (
(553,291,o),
(599,329,o),
(595,785,c),
(38,785,l),
(38,555,l),
(298,555,l),
(298,534,o),
(278,526,o),
(10,516,c),
(30,283,l)
);
},
{
closed = 1;
nodes = (
(671,281,l),
(481,281,l),
(481,-12,l),
(451,69,l),
(450,70,l),
(440,63,o),
(387,26,o),
(279,31,c),
(279,51,l),
(397,46,o),
(451,92,o),
(451,97,cs),
(451,261,l),
(30,261,l),
(30,116,l),
(210,116,l),
(210,96,l),
(30,96,l),
(33,-110,ls),
(33,-191,o),
(383,-199,o),
(500,-160,c),
(910,-160,l),
(910,281,l),
(710,281,l),
(710,216,l),
(671,216,l)
);
},
{
closed = 1;
nodes = (
(710,66,l),
(710,0,l),
(671,0,l),
(671,66,l)
);
}
);
width = 980;
}
);
unicode = 44043;
},
{
glyphname = "gam-ko";
lastChange = "2022-05-01 03:02:20 +0000";
layers = (
{
layerId = "75B71696-F68C-493E-998D-CC33CA41914E";
shapes = (
{
closed = 1;
nodes = (
(910,800,l),
(610,800,l),
(610,266,l),
(910,266,l),
(910,400,l),
(970,400,l),
(970,690,l),
(910,690,l)
);
},
{
closed = 1;
nodes = (
(38,555,l),
(298,555,l),
(298,534,o),
(278,526,o),
(10,516,c),
(30,268,l),
(553,276,o),
(589,324,o),
(585,790,c),
(38,790,l)
);
},
{
closed = 1;
nodes = (
(910,241,l),
(45,241,l),
(45,-160,l),
(910,-160,l)
);
},
{
closed = 1;
nodes = (
(610,45,l),
(345,45,l),
(345,65,l),
(610,65,l)
);
}
);
width = 980;
}
);
unicode = 44048;
},
{
glyphname = "gab-ko";
lastChange = "2022-05-01 03:02:20 +0000";
layers = (
{
layerId = "75B71696-F68C-493E-998D-CC33CA41914E";
shapes = (
{
closed = 1;
nodes = (
(910,800,l),
(610,800,l),
(610,302,l),
(910,302,l),
(910,418,l),
(970,418,l),
(970,708,l),
(910,708,l)
);
},
{
closed = 1;
nodes = (
(38,567,l),
(298,567,l),
(298,546,o),
(278,538,o),
(10,528,c),
(30,290,l),
(553,298,o),
(589,336,o),
(585,792,c),
(38,792,l)
);
},
{
closed = 1;
nodes = (
(360,266,l),
(50,266,l),
(50,-160,l),
(910,-160,l),
(910,276,l),
(600,276,l),
(600,203,l),
(360,203,l)
);
},
{
closed = 1;
nodes = (
(600,63,l),
(600,20,l),
(360,20,l),
(360,63,l)
);
}
);
width = 980;
}
);
unicode = 44049;
},
{
glyphname = "gabs-ko";
lastChange = "2022-05-01 03:02:20 +0000";
layers = (
{
layerId = "75B71696-F68C-493E-998D-CC33CA41914E";
shapes = (
{
closed = 0;
nodes = (
(310,265,l)
);
},
{
closed = 1;
nodes = (
(970,698,l),
(910,698,l),
(910,800,l),
(610,800,l),
(610,286,l),
(910,286,l),
(910,408,l),
(970,408,l)
);
},
{
closed = 1;
nodes = (
(38,555,l),
(298,555,l),
(298,534,o),
(278,526,o),
(10,516,c),
(30,273,l),
(553,281,o),
(589,319,o),
(585,785,c),
(38,785,l)
);
},
{
closed = 1;
nodes = (
(834,172,o),
(837,217,o),
(835,261,c),
(565,261,l),
(566,150,o),
(548,120,o),
(488,96,c),
(488,241,l),
(288,241,l),
(288,195,l),
(249,195,l),
(249,241,l),
(39,241,l),
(39,-160,l),
(488,-160,l),
(488,-25,l),
(534,-174,l),
(623,-150,o),
(691,-104,o),
(740,-45,c),
(723,-136,l),
(803,-140,o),
(866,-150,o),
(919,-171,c),
(974,87,l),
(941,107,o),
(885,123,o),
(824,129,c)
);
},
{
closed = 1;
nodes = (
(288,45,l),
(288,0,l),
(249,0,l),
(249,45,l)
);
}
);
width = 980;
}
);
unicode = 44050;
},
{
glyphname = "gas-ko";
lastChange = "2022-05-01 03:02:20 +0000";
layers = (
{
layerId = "75B71696-F68C-493E-998D-CC33CA41914E";
shapes = (
{
closed = 1;
nodes = (
(970,373,l),
(970,663,l),
(910,663,l),
(910,800,l),
(610,800,l),
(610,257,l),
(346,257,l),
(318,151,o),
(168,111,o),
(40,104,c),
(69,-171,l),
(252,-172,o),
(417,-114,o),
(525,-21,c),
(512,-114,l),
(706,-114,o),
(857,-142,o),
(903,-160,c),
(949,113,l),
(898,132,o),
(784,148,o),
(643,153,c),
(647,167,o),
(650,181,o),
(652,195,c),
(910,195,l),
(910,373,l)
);
},
{
closed = 1;
nodes = (
(38,550,l),
(298,550,l),
(298,529,o),
(278,521,o),
(10,511,c),
(30,261,l),
(553,269,o),
(589,317,o),
(585,785,c),
(38,785,l)
);
}
);
width = 980;
}
);
unicode = 44051;
},
{
glyphname = "gass-ko";
lastChange = "2022-05-01 03:02:20 +0000";
layers = (
{
layerId = "75B71696-F68C-493E-998D-CC33CA41914E";
shapes = (
{
closed = 1;
nodes = (
(610,800,l),
(610,277,l),
(910,277,l),
(910,407,l),
(970,407,l),
(970,697,l),
(910,697,l),
(910,800,l)
);
},
{
closed = 1;
nodes = (
(553,274,o),
(589,317,o),
(585,785,c),
(38,785,l),
(38,555,l),
(298,555,l),
(298,534,o),
(278,526,o),
(10,516,c),
(30,266,l)
);
},
{
closed = 1;
nodes = (
(483,207,o),
(473,153,o),
(454,116,c),
(436,123,l),
(453,165,o),
(461,194,o),
(461,240,c),
(161,240,l),
(160,200,o),
(113,119,o),
(10,97,c),
(92,-178,l),
(181,-162,o),
(290,-105,o),
(329,-74,c),
(373,-178,l),
(502,-154,o),
(598,-104,o),
(665,-41,c),
(653,-134,l),
(747,-134,o),
(858,-152,o),
(904,-170,c),
(950,113,l),
(909,128,o),
(843,138,o),
(779,142,c),
(789,181,o),
(793,220,o),
(791,257,c),
(482,257,l)
);
}
);
width = 980;
}
);
unicode = 44052;
},
{
glyphname = "gang-ko";
lastChange = "2022-05-01 03:02:20 +0000";
layers = (
{
layerId = "75B71696-F68C-493E-998D-CC33CA41914E";
shapes = (
{
closed = 1;
nodes = (
(970,675,l),
(910,675,l),
(910,800,l),
(610,800,l),
(610,229,l),
(218,229,ls),
(108,228,o),
(25,145,o),
(21,33,cs),
(21,-94,o),
(107,-170,o),
(218,-170,cs),
(739,-170,ls),
(852,-171,o),
(935,-96,o),
(935,33,cs),
(935,127,o),
(882,204,o),
(793,224,c),
(910,224,l),
(910,385,l),
(970,385,l)
);
},
{
closed = 1;
nodes = (
(553,260,o),
(589,316,o),
(585,784,c),
(38,784,l),
(38,549,l),
(298,549,l),
(298,527,o),
(278,515,o),
(10,505,c),
(30,252,l)
);
},
{
closed = 1;
nodes = (
(296,42,o),
(291,42,o),
(291,52,cs),
(291,62,o),
(296,62,o),
(301,62,cs),
(656,62,ls),
(660,62,o),
(666,62,o),
(666,52,cs),
(666,42,o),
(660,42,o),
(656,42,cs),
(301,42,ls)
);
}
);
width = 980;
}
);
unicode = 44053;
},
{
glyphname = "gaj-ko";
lastChange = "2022-05-01 03:02:20 +0000";
layers = (
{
layerId = "75B71696-F68C-493E-998D-CC33CA41914E";
shapes = (
{
closed = 1;
nodes = (
(610,800,l),
(610,286,l),
(910,286,l),
(910,408,l),
(970,408,l),
(970,698,l),
(910,698,l),
(910,800,l)
);
},
{
closed = 1;
nodes = (
(553,294,o),
(589,347,o),
(585,790,c),
(38,790,l),
(38,565,l),
(298,565,l),
(298,544,o),
(278,536,o),
(10,526,c),
(30,286,l)
);
},
{
closed = 1;
nodes = (
(910,261,l),
(50,261,l),
(50,121,l),
(271,121,l),
(200,86,o),
(103,73,o),
(25,69,c),
(53,-171,l),
(229,-171,o),
(400,-120,o),
(518,-39,c),
(508,-124,l),
(702,-124,o),
(843,-146,o),
(889,-164,c),
(925,59,l),
(876,77,o),
(776,89,o),
(646,93,c),
(651,102,o),
(656,112,o),
(660,121,c),
(910,121,l)
);
}
);
width = 980;
}
);
unicode = 44054;
},
{
glyphname = "gac-ko";
lastChange = "2022-05-01 03:02:20 +0000";
layers = (
{
layerId = "75B71696-F68C-493E-998D-CC33CA41914E";
shapes = (
{
closed = 1;
nodes = (
(970,688,l),
(910,688,l),
(910,800,l),
(610,800,l),
(610,281,l),
(324,281,l),
(325,264,o),
(324,249,o),
(323,236,c),
(35,236,l),
(35,111,l),
(267,111,l),
(198,76,o),
(103,63,o),
(25,59,c),
(53,-171,l),
(245,-171,o),
(410,-121,o),
(519,-39,c),
(508,-124,l),
(702,-124,o),
(843,-146,o),
(889,-164,c),
(925,49,l),
(874,68,o),
(766,80,o),
(626,84,c),
(631,93,o),
(635,102,o),
(638,111,c),
(910,111,l),
(910,236,l),
(655,236,l),
(655,267,l),
(910,267,l),
(910,398,l),
(970,398,l)
);
},
{
closed = 1;
nodes = (
(553,292,o),
(589,345,o),
(585,788,c),
(38,788,l),
(38,563,l),
(298,563,l),
(298,542,o),
(278,534,o),
(10,524,c),
(30,284,l)
);
}
);
width = 980;
}
);
unicode = 44055;
},
{
glyphname = "gat-ko";
lastChange = "2022-05-01 03:02:20 +0000";
layers = (
{
layerId = "75B71696-F68C-493E-998D-CC33CA41914E";
shapes = (
{
closed = 1;
nodes = (
(610,800,l),
(610,287,l),
(910,287,l),
(910,398,l),
(970,398,l),
(970,688,l),
(910,688,l),
(910,800,l)
);
},
{
closed = 1;
nodes = (
(43,570,l),
(298,570,l),
(298,549,o),
(283,541,o),
(15,531,c),
(35,293,l),
(558,301,o),
(589,335,o),
(585,791,c),
(43,791,l)
);
},
{
closed = 1;
nodes = (
(900,120,l),
(355,120,l),
(355,145,l),
(910,145,l),
(910,265,l),
(45,265,l),
(45,-160,l),
(920,-160,l),
(920,10,l),
(355,10,l),
(355,35,l),
(900,35,l)
);
}
);
width = 980;
}
);
unicode = 44057;
},
{
glyphname = "gap-ko";
lastChange = "2022-05-01 03:02:20 +0000";
layers = (
{
layerId = "75B71696-F68C-493E-998D-CC33CA41914E";
shapes = (
{
closed = 1;
nodes = (
(620,800,l),
(620,300,l),
(910,300,l),
(910,415,l),
(970,415,l),
(970,705,l),
(910,705,l),
(910,800,l)
);
},
{
closed = 1;
nodes = (
(38,570,l),
(308,570,l),
(308,553,o),
(288,545,o),
(10,535,c),
(30,300,l),
(563,308,o),
(599,336,o),
(595,792,c),
(38,792,l)
);
},
{
closed = 1;
nodes = (
(910,105,l),
(910,275,l),
(48,275,l),
(48,105,l),
(300,105,l),
(108,75,l),
(122,20,l),
(38,20,l),
(38,-170,l),
(920,-170,l),
(920,20,l),
(836,20,l),
(850,75,l),
(658,105,l)
);
},
{
closed = 1;
nodes = (
(524,20,l),
(434,20,l),
(429,105,l),
(529,105,l)
);
}
);
width = 980;
}
);
unicode = 44058;
},
{
glyphname = "gah-ko";
lastChange = "2022-05-01 03:02:20 +0000";
layers = (
{
layerId = "75B71696-F68C-493E-998D-CC33CA41914E";
shapes = (
{
closed = 1;
nodes = (
(970,419,l),
(970,709,l),
(910,709,l),
(910,800,l),
(610,800,l),
(610,306,l),
(325,306,l),
(325,266,l),
(40,266,l),
(40,96,l),
(108,96,l),
(78,79,o),
(59,49,o),
(59,-5,cs),
(59,-101,o),
(119,-170,o),
(234,-170,cs),
(724,-170,ls),
(841,-171,o),
(902,-103,o),
(902,-5,cs),
(902,48,o),
(885,79,o),
(857,96,c),
(920,96,l),
(920,266,l),
(635,266,l),
(635,294,l),
(910,294,l),
(910,419,l)
);
},
{
closed = 1;
nodes = (
(38,577,l),
(298,577,l),
(298,560,o),
(278,552,o),
(10,542,c),
(30,310,l),
(553,318,o),
(589,346,o),
(585,792,c),
(38,792,l)
);
},
{
closed = 1;
nodes = (
(328,35,o),
(323,35,o),
(323,45,cs),
(323,55,o),
(328,55,o),
(333,55,cs),
(627,55,ls),
(631,55,o),
(637,55,o),
(637,45,cs),
(637,35,o),
(631,35,o),
(627,35,cs),
(333,35,ls)
);
}
);
width = 980;
}
);
unicode = 44059;
},
{
glyphname = "gae-ko";
lastChange = "2022-05-01 03:02:20 +0000";
layers = (
{
layerId = "75B71696-F68C-493E-998D-CC33CA41914E";
shapes = (
{
closed = 1;
nodes = (
(700,515,l),
(700,780,l),
(490,780,l),
(490,-140,l),
(700,-140,l),
(700,205,l),
(740,205,l),
(740,-160,l),
(960,-160,l),
(960,800,l),
(740,800,l),
(740,515,l)
);
},
{
closed = 1;
nodes = (
(192,450,l),
(187,314,o),
(125,219,o),
(10,200,c),
(46,-112,l),
(384,-52,o),
(463,73,o),
(462,750,c),
(47,750,l),
(47,450,l)
);
}
);
width = 980;
}
);
unicode = 44060;
},
{
glyphname = "gaeg-ko";
lastChange = "2022-05-01 03:02:20 +0000";
layers = (
{
layerId = "75B71696-F68C-493E-998D-CC33CA41914E";
shapes = (
{
closed = 1;
nodes = (
(725,650,l),
(725,790,l),
(535,790,l),
(535,225,l),
(725,225,l),
(725,380,l),
(760,380,l),
(760,225,l),
(960,225,l),
(960,800,l),
(760,800,l),
(760,650,l)
);
},
{
closed = 1;
nodes = (
(38,535,l),
(233,535,l),
(233,514,o),
(183,496,o),
(15,486,c),
(35,230,l),
(448,238,o),
(514,299,o),
(510,770,c),
(38,770,l)
);
},
{
closed = 1;
nodes = (
(650,-160,l),
(960,-160,l),
(960,200,l),
(60,200,l),
(60,-65,l),
(650,-65,l)
);
}
);
width = 980;
}
);
unicode = 44061;
},
{
glyphname = "gaen-ko";
lastChange = "2022-05-01 03:02:20 +0000";
layers = (
{
layerId = "75B71696-F68C-493E-998D-CC33CA41914E";
shapes = (
{
closed = 1;
nodes = (
(760,140,l),
(960,140,l),
(960,800,l),
(760,800,l),
(760,630,l),
(725,630,l),
(725,790,l),
(535,790,l),
(535,160,l),
(725,160,l),
(725,360,l),
(760,360,l)
);
},
{
closed = 1;
nodes = (
(38,540,l),
(233,540,l),
(233,519,o),
(183,501,o),
(15,491,c),
(35,235,l),
(448,243,o),
(514,304,o),
(510,775,c),
(38,775,l)
);
},
{
closed = 1;
nodes = (
(60,210,l),
(60,-160,l),
(970,-160,l),
(970,105,l),
(380,105,l),
(380,210,l)
);
}
);
width = 980;
}
);
unicode = 44064;
},
{
glyphname = "gaed-ko";
lastChange = "2022-05-01 03:02:20 +0000";
layers = (
{
layerId = "75B71696-F68C-493E-998D-CC33CA41914E";
shapes = (
{
closed = 1;
nodes = (
(750,258,l),
(950,258,l),
(950,800,l),
(750,800,l),
(750,665,l),
(715,665,l),
(715,790,l),
(525,790,l),
(525,258,l),
(715,258,l),
(715,395,l),
(750,395,l)
);
},
{
closed = 1;
nodes = (
(38,555,l),
(233,555,l),
(233,534,o),
(183,516,o),
(15,506,c),
(35,265,l),
(438,273,o),
(504,309,o),
(500,780,c),
(38,780,l)
);
},
{
closed = 1;
nodes = (
(950,80,l),
(950,236,l),
(45,236,l),
(45,-160,l),
(960,-160,l),
(960,50,l),
(355,50,l),
(355,80,l)
);
}
);
width = 980;
}
);
unicode = 44067;
},
{
glyphname = "gael-ko";
lastChange = "2022-10-12 10:53:07 +0000";
layers = (
{
layerId = "75B71696-F68C-493E-998D-CC33CA41914E";
shapes = (
{
closed = 1;
nodes = (
(738,292,l),
(938,292,l),
(938,800,l),
(738,800,l),
(738,686,l),
(703,686,l),
(703,790,l),
(513,790,l),
(513,292,l),
(703,292,l),
(703,416,l),
(738,416,l)
);
},
{
closed = 1;
nodes = (
(38,565,l),
(223,565,l),
(223,544,o),
(173,531,o),
(15,521,c),
(35,290,l),
(438,298,o),
(494,329,o),
(490,780,c),
(38,780,l)
);
},
{
closed = 1;
nodes = (
(932,98,o),
(859,38,o),
(552,25,c),
(552,45,l),
(834,57,o),
(938,118,o),
(938,131,cs),
(938,267,l),
(58,267,l),
(58,137,l),
(444,137,l),
(444,117,l),
(58,117,l),
(58,-105,ls),
(58,-214,o),
(943,-188,o),
(970,-124,c),
(942,100,l),
(939,102,l)
);
}
);
width = 980;
}
);
unicode = 44068;
},
{
glyphname = "gaem-ko";
lastChange = "2022-05-01 03:02:20 +0000";
layers = (
{
layerId = "75B71696-F68C-493E-998D-CC33CA41914E";
shapes = (
{
closed = 1;
nodes = (
(720,664,l),
(720,790,l),
(530,790,l),
(530,256,l),
(720,256,l),
(720,394,l),
(755,394,l),
(755,256,l),
(955,256,l),
(955,800,l),
(755,800,l),
(755,664,l)
);
},
{
closed = 1;
nodes = (
(43,553,l),
(238,553,l),
(238,532,o),
(188,514,o),
(20,504,c),
(40,263,l),
(443,271,o),
(509,307,o),
(505,778,c),
(43,778,l)
);
},
{
closed = 1;
nodes = (
(955,231,l),
(55,231,l),
(55,-160,l),
(955,-160,l)
);
},
{
closed = 1;
nodes = (
(655,40,l),
(355,40,l),
(355,60,l),
(655,60,l)
);
}
);
width = 980;
}
);
unicode = 44076;
},
{
glyphname = "gaeb-ko";
lastChange = "2022-05-01 03:02:20 +0000";
layers = (
{
layerId = "75B71696-F68C-493E-998D-CC33CA41914E";
shapes = (
{
closed = 1;
nodes = (
(720,683,l),
(720,790,l),
(530,790,l),
(530,293,l),
(720,293,l),
(720,413,l),
(755,413,l),
(755,293,l),
(955,293,l),
(955,800,l),
(755,800,l),
(755,683,l)
);
},
{
closed = 1;
nodes = (
(43,563,l),
(238,563,l),
(238,542,o),
(188,524,o),
(20,514,c),
(40,283,l),
(443,291,o),
(509,327,o),
(505,778,c),
(43,778,l)
);
},
{
closed = 1;
nodes = (
(380,256,l),
(70,256,l),
(70,-160,l),
(955,-160,l),
(955,266,l),
(645,266,l),
(645,203,l),
(380,203,l)
);
},
{
closed = 1;
nodes = (
(645,63,l),
(645,20,l),
(380,20,l),
(380,63,l)
);
}
);
width = 980;
}
);
unicode = 44077;
},
{
glyphname = "gaes-ko";
lastChange = "2022-05-01 03:02:20 +0000";
layers = (
{
layerId = "75B71696-F68C-493E-998D-CC33CA41914E";
shapes = (
{
closed = 1;
nodes = (
(755,196,l),
(960,196,l),
(960,800,l),
(755,800,l),
(755,669,l),
(715,669,l),
(715,790,l),
(525,790,l),
(525,271,l),
(715,271,l),
(715,399,l),
(755,399,l)
);
},
{
closed = 1;
nodes = (
(38,545,l),
(233,545,l),
(233,524,o),
(183,506,o),
(15,496,c),
(35,249,l),
(438,257,o),
(504,299,o),
(500,775,c),
(38,775,l)
);
},
{
closed = 1;
nodes = (
(663,183,o),
(667,215,o),
(666,247,c),
(356,247,l),
(328,151,o),
(178,101,o),
(44,94,c),
(73,-171,l),
(260,-172,o),
(426,-114,o),
(535,-22,c),
(522,-114,l),
(716,-114,o),
(867,-142,o),
(919,-160,c),
(965,113,l),
(909,132,o),
(795,148,o),
(655,153,c)
);
}
);
width = 980;
}
);
unicode = 44079;
},
{
glyphname = "gaess-ko";
lastChange = "2022-05-01 03:02:20 +0000";
layers = (
{
layerId = "75B71696-F68C-493E-998D-CC33CA41914E";
shapes = (
{
closed = 1;
nodes = (
(796,164,o),
(800,185,o),
(801,207,c),
(950,207,l),
(950,800,l),
(750,800,l),
(750,686,l),
(715,686,l),
(715,790,l),
(525,790,l),
(525,285,l),
(715,285,l),
(715,416,l),
(750,416,l),
(750,257,l),
(493,257,l),
(494,207,o),
(484,153,o),
(465,116,c),
(447,123,l),
(464,165,o),
(472,194,o),
(472,240,c),
(172,240,l),
(171,200,o),
(124,119,o),
(21,97,c),
(103,-178,l),
(192,-162,o),
(301,-105,o),
(340,-74,c),
(384,-178,l),
(513,-154,o),
(609,-104,o),
(676,-41,c),
(664,-134,l),
(758,-134,o),
(869,-152,o),
(915,-170,c),
(961,113,l),
(920,128,o),
(854,138,o),
(790,142,c)
);
},
{
closed = 1;
nodes = (
(450,266,o),
(504,279,o),
(500,780,c),
(38,780,l),
(38,550,l),
(223,550,l),
(220,529,o),
(203,521,o),
(15,511,c),
(35,258,l)
);
}
);
width = 980;
}
);
unicode = 44080;
},
{
glyphname = "gaeng-ko";
lastChange = "2022-05-01 03:02:20 +0000";
layers = (
{
layerId = "75B71696-F68C-493E-998D-CC33CA41914E";
shapes = (
{
closed = 1;
nodes = (
(955,800,l),
(755,800,l),
(755,664,l),
(720,664,l),
(720,790,l),
(530,790,l),
(530,246,l),
(720,246,l),
(720,394,l),
(755,394,l),
(755,220,l),
(228,220,ls),
(118,219,o),
(35,136,o),
(31,28,cs),
(31,-94,o),
(117,-170,o),
(228,-170,cs),
(769,-170,ls),
(882,-171,o),
(965,-96,o),
(965,28,cs),
(965,119,o),
(912,195,o),
(823,215,c),
(955,215,l)
);
},
{
closed = 1;
nodes = (
(438,257,o),
(504,299,o),
(500,775,c),
(38,775,l),
(38,545,l),
(233,545,l),
(233,524,o),
(183,506,o),
(15,496,c),
(35,249,l)
);
},
{
closed = 1;
nodes = (
(306,37,o),
(301,37,o),
(301,47,cs),
(301,57,o),
(306,57,o),
(311,57,cs),
(686,57,ls),
(690,57,o),
(696,57,o),
(696,47,cs),
(696,37,o),
(690,37,o),
(686,37,cs),
(311,37,ls)
);
}
);
width = 980;
}
);
unicode = 44081;
},
{
glyphname = "gya-ko";
lastChange = "2022-05-01 03:02:20 +0000";
layers = (
{
layerId = "75B71696-F68C-493E-998D-CC33CA41914E";
shapes = (
{
closed = 1;
nodes = (
(270,470,l),
(266,331,o),
(211,200,o),
(10,200,c),
(46,-122,l),
(493,-102,o),
(570,93,o),
(570,770,c),
(35,770,l),
(35,470,l)
);
},
{
closed = 1;
nodes = (
(900,660,l),
(900,800,l),
(600,800,l),
(600,-160,l),
(900,-160,l),
(900,30,l),
(970,30,l),
(970,310,l),
(900,310,l),
(900,380,l),
(970,380,l),
(970,660,l)
);
}
);
width = 980;
}
);
unicode = 44088;
},
{
glyphname = "gyag-ko";
lastChange = "2022-05-01 03:02:20 +0000";
layers = (
{
layerId = "75B71696-F68C-493E-998D-CC33CA41914E";
shapes = (
{
closed = 1;
nodes = (
(910,738,l),
(910,800,l),
(610,800,l),
(610,235,l),
(910,235,l),
(910,313,l),
(970,313,l),
(970,503,l),
(910,503,l),
(910,548,l),
(970,548,l),
(970,738,l)
);
},
{
closed = 1;
nodes = (
(43,540,l),
(298,540,l),
(298,519,o),
(283,501,o),
(15,491,c),
(35,238,l),
(558,246,o),
(589,294,o),
(585,785,c),
(43,785,l)
);
},
{
closed = 1;
nodes = (
(600,-160,l),
(910,-160,l),
(910,210,l),
(50,210,l),
(50,-55,l),
(600,-55,l)
);
}
);
width = 980;
}
);
unicode = 44089;
},
{
glyphname = "gyan-ko";
lastChange = "2022-05-01 03:02:20 +0000";
layers = (
{
layerId = "75B71696-F68C-493E-998D-CC33CA41914E";
shapes = (
{
closed = 1;
nodes = (
(910,715,l),
(910,800,l),
(610,800,l),
(610,145,l),
(910,145,l),
(910,275,l),
(970,275,l),
(970,465,l),
(910,465,l),
(910,525,l),
(970,525,l),
(970,715,l)
);
},
{
closed = 1;
nodes = (
(33,545,l),
(298,545,l),
(298,524,o),
(273,506,o),
(5,496,c),
(25,243,l),
(548,251,o),
(589,304,o),
(585,785,c),
(33,785,l)
);
},
{
closed = 1;
nodes = (
(40,-160,l),
(920,-160,l),
(920,105,l),
(360,105,l),
(360,215,l),
(40,215,l)
);
}
);
width = 980;
},
{
associatedMasterId = "75B71696-F68C-493E-998D-CC33CA41914E";
layerId = "408DACA4-686D-482A-96BA-6B43E2131E02";
name = "Mar 29 22, 15:34";
shapes = (
{
closed = 1;
nodes = (
(610,145,l),
(910,145,l),
(910,800,l),
(610,800,l)
);
},
{
closed = 1;
nodes = (
(40,-77,l),
(360,-77,l),
(360,215,l),
(40,215,l)
);
},
{
closed = 1;
nodes = (
(920,-160,l),
(920,105,l),
(40,105,l),
(40,-160,l)
);
},
{
closed = 1;
nodes = (
(33,785,l),
(33,545,l),
(298,545,l),
(298,524,o),
(273,506,o),
(5,496,c),
(25,243,l),
(548,251,o),
(589,304,o),
(585,785,c)
);
},
{
closed = 1;
nodes = (
(970,275,l),
(970,465,l),
(654,465,l),
(654,275,l)
);
},
{
closed = 1;
nodes = (
(970,525,l),
(970,715,l),
(654,715,l),
(654,525,l)
);
}
);
visible = 1;
width = 980;
}
);
unicode = 44092;
},
{
glyphname = "gyal-ko";
lastChange = "2022-10-12 10:52:32 +0000";
layers = (
{
layerId = "75B71696-F68C-493E-998D-CC33CA41914E";
shapes = (
{
closed = 1;
nodes = (
(910,754,l),
(910,800,l),
(610,800,l),
(610,300,l),
(910,300,l),
(910,354,l),
(970,354,l),
(970,534,l),
(910,534,l),
(910,574,l),
(970,574,l),
(970,754,l)
);
},
{
closed = 1;
nodes = (
(38,580,l),
(298,580,l),
(298,559,o),
(278,551,o),
(10,541,c),
(30,303,l),
(553,311,o),
(589,354,o),
(585,790,c),
(38,790,l)
);
},
{
closed = 1;
nodes = (
(904,98,o),
(831,38,o),
(524,25,c),
(524,45,l),
(806,57,o),
(910,118,o),
(910,131,cs),
(910,277,l),
(44,277,l),
(44,137,l),
(430,137,l),
(430,117,l),
(44,117,l),
(44,-105,ls),
(44,-214,o),
(915,-188,o),
(942,-124,c),
(914,100,l),
(911,102,l)
);
}
);
width = 980;
}
);
unicode = 44096;
},
{
glyphname = "gyas-ko";
lastChange = "2022-05-01 03:02:20 +0000";
layers = (
{
layerId = "75B71696-F68C-493E-998D-CC33CA41914E";
shapes = (
{
closed = 1;
nodes = (
(910,705,l),
(910,800,l),
(610,800,l),
(610,257,l),
(346,257,l),
(318,151,o),
(168,111,o),
(40,104,c),
(69,-171,l),
(252,-172,o),
(417,-114,o),
(525,-21,c),
(512,-114,l),
(706,-114,o),
(857,-142,o),
(903,-160,c),
(949,113,l),
(898,132,o),
(784,148,o),
(643,153,c),
(647,167,o),
(650,181,o),
(652,195,c),
(910,195,l),
(910,310,l),
(970,310,l),
(970,480,l),
(910,480,l),
(910,535,l),
(970,535,l),
(970,705,l)
);
},
{
closed = 1;
nodes = (
(38,550,l),
(298,550,l),
(298,529,o),
(278,521,o),
(10,511,c),
(30,261,l),
(553,269,o),
(589,317,o),
(585,785,c),
(38,785,l)
);
}
);
width = 980;
}
);
unicode = 44107;
},
{
glyphname = "gyang-ko";
lastChange = "2022-05-01 03:02:20 +0000";
layers = (
{
layerId = "75B71696-F68C-493E-998D-CC33CA41914E";
shapes = (
{
closed = 1;
nodes = (
(910,736,l),
(910,800,l),
(610,800,l),
(610,229,l),
(218,229,ls),
(108,228,o),
(25,145,o),
(21,33,cs),
(21,-94,o),
(107,-170,o),
(218,-170,cs),
(739,-170,ls),
(852,-171,o),
(935,-96,o),
(935,33,cs),
(935,127,o),
(882,204,o),
(793,224,c),
(910,224,l),
(910,309,l),
(970,309,l),
(970,499,l),
(910,499,l),
(910,546,l),
(970,546,l),
(970,736,l)
);
},
{
closed = 1;
nodes = (
(553,260,o),
(589,316,o),
(585,784,c),
(38,784,l),
(38,549,l),
(298,549,l),
(298,527,o),
(278,515,o),
(10,505,c),
(30,252,l)
);
},
{
closed = 1;
nodes = (
(296,42,o),
(291,42,o),
(291,52,cs),
(291,62,o),
(296,62,o),
(301,62,cs),
(656,62,ls),
(660,62,o),
(666,62,o),
(666,52,cs),
(666,42,o),
(660,42,o),
(656,42,cs),
(301,42,ls)
);
}
);
width = 980;
}
);
unicode = 44109;
},
{
glyphname = "gyae-ko";
lastChange = "2022-05-01 03:02:20 +0000";
layers = (
{
layerId = "75B71696-F68C-493E-998D-CC33CA41914E";
shapes = (
{
closed = 1;
nodes = (
(700,651,l),
(700,780,l),
(490,780,l),
(490,-140,l),
(700,-140,l),
(700,51,l),
(740,51,l),
(740,-160,l),
(960,-160,l),
(960,800,l),
(740,800,l),
(740,651,l)
);
},
{
closed = 1;
nodes = (
(192,450,l),
(187,314,o),
(125,219,o),
(10,200,c),
(46,-112,l),
(384,-52,o),
(463,73,o),
(462,750,c),
(47,750,l),
(47,450,l)
);
},
{
closed = 1;
nodes = (
(740,411,l),
(740,291,l),
(700,291,l),
(700,411,l)
);
}
);
width = 980;
}
);
unicode = 44116;
},
{
glyphname = "gyaen-ko";
lastChange = "2022-05-01 03:02:20 +0000";
layers = (
{
layerId = "75B71696-F68C-493E-998D-CC33CA41914E";
shapes = (
{
closed = 1;
nodes = (
(750,140,l),
(950,140,l),
(950,800,l),
(750,800,l),
(750,715,l),
(715,715,l),
(715,790,l),
(525,790,l),
(525,160,l),
(715,160,l),
(715,290,l),
(750,290,l)
);
},
{
closed = 1;
nodes = (
(38,540,l),
(233,540,l),
(233,519,o),
(183,501,o),
(15,491,c),
(35,235,l),
(438,243,o),
(504,304,o),
(500,775,c),
(38,775,l)
);
},
{
closed = 1;
nodes = (
(715,460,l),
(715,545,l),
(750,545,l),
(750,460,l)
);
},
{
closed = 1;
nodes = (
(60,210,l),
(60,-160,l),
(960,-160,l),
(960,105,l),
(380,105,l),
(380,210,l)
);
}
);
width = 980;
}
);
unicode = 44120;
},
{
glyphname = "gyael-ko";
lastChange = "2022-10-11 15:06:45 +0000";
layers = (
{
layerId = "75B71696-F68C-493E-998D-CC33CA41914E";
shapes = (
{
closed = 1;
nodes = (
(738,292,l),
(938,292,l),
(938,800,l),
(738,800,l),
(738,741,l),
(703,741,l),
(703,790,l),
(513,790,l),
(513,292,l),
(703,292,l),
(703,346,l),
(738,346,l)
);
},
{
closed = 1;
nodes = (
(38,565,l),
(223,565,l),
(223,544,o),
(173,531,o),
(15,521,c),
(35,290,l),
(438,298,o),
(494,329,o),
(490,780,c),
(38,780,l)
);
},
{
closed = 1;
nodes = (
(703,516,l),
(703,571,l),
(738,571,l),
(738,516,l)
);
},
{
closed = 1;
nodes = (
(932,98,o),
(859,38,o),
(552,25,c),
(552,45,l),
(834,57,o),
(938,118,o),
(938,131,cs),
(938,267,l),
(58,267,l),
(58,137,l),
(444,137,l),
(444,117,l),
(58,117,l),
(58,-105,ls),
(58,-214,o),
(943,-188,o),
(970,-124,c),
(941,100,l),
(939,102,l)
);
}
);
width = 980;
}
);
unicode = 44124;
},
{
glyphname = "gyaeb-ko";
lastChange = "2022-05-01 03:02:20 +0000";
layers = (
{
layerId = "75B71696-F68C-493E-998D-CC33CA41914E";
shapes = (
{
closed = 1;
nodes = (
(720,740,l),
(720,790,l),
(530,790,l),
(530,293,l),
(720,293,l),
(720,350,l),
(755,350,l),
(755,293,l),
(955,293,l),
(955,800,l),
(755,800,l),
(755,740,l)
);
},
{
closed = 1;
nodes = (
(43,563,l),
(238,563,l),
(238,542,o),
(188,524,o),
(20,514,c),
(40,283,l),
(443,291,o),
(509,327,o),
(505,778,c),
(43,778,l)
);
},
{
closed = 1;
nodes = (
(755,570,l),
(755,520,l),
(720,520,l),
(720,570,l)
);
},
{
closed = 1;
nodes = (
(380,256,l),
(70,256,l),
(70,-160,l),
(955,-160,l),
(955,266,l),
(645,266,l),
(645,203,l),
(380,203,l)
);
},
{
closed = 1;
nodes = (
(645,63,l),
(645,20,l),
(380,20,l),
(380,63,l)
);
}
);
width = 980;
}
);
unicode = 44133;
},
{
glyphname = "geo-ko";
lastChange = "2022-05-01 03:02:20 +0000";
layers = (
{
layerId = "75B71696-F68C-493E-998D-CC33CA41914E";
shapes = (
{
closed = 1;
nodes = (
(585,535,l),
(589,606,o),
(590,684,o),
(590,770,c),
(45,770,l),
(45,470,l),
(290,470,l),
(285,332,o),
(221,210,o),
(10,210,c),
(46,-112,l),
(57,-113,l),
(347,-100,o),
(485,-17,o),
(546,225,c),
(660,225,l),
(660,-160,l),
(960,-160,l),
(960,800,l),
(660,800,l),
(660,535,l)
);
}
);
width = 980;
}
);
unicode = 44144;
},
{
glyphname = "geog-ko";
lastChange = "2022-05-01 03:02:20 +0000";
layers = (
{
layerId = "75B71696-F68C-493E-998D-CC33CA41914E";
shapes = (
{
closed = 1;
nodes = (
(600,670,l),
(600,785,l),
(53,785,l),
(53,540,l),
(313,540,l),
(313,519,o),
(298,501,o),
(25,491,c),
(45,238,l),
(359,243,o),
(498,262,o),
(557,380,c),
(655,380,l),
(655,235,l),
(955,235,l),
(955,800,l),
(655,800,l),
(655,670,l)
);
},
{
closed = 1;
nodes = (
(645,-160,l),
(955,-160,l),
(955,210,l),
(65,210,l),
(65,-55,l),
(645,-55,l)
);
}
);
width = 980;
}
);
unicode = 44145;
},
{
glyphname = "geon-ko";
lastChange = "2022-05-01 03:02:20 +0000";
layers = (
{
layerId = "75B71696-F68C-493E-998D-CC33CA41914E";
shapes = (
{
closed = 1;
nodes = (
(650,145,l),
(950,145,l),
(950,800,l),
(650,800,l),
(650,652,l),
(594,652,l),
(595,692,o),
(595,736,o),
(595,785,c),
(43,785,l),
(43,545,l),
(308,545,l),
(308,524,o),
(283,506,o),
(15,496,c),
(35,243,l),
(324,247,o),
(466,266,o),
(534,362,c),
(650,362,l)
);
},
{
closed = 1;
nodes = (
(60,215,l),
(60,-160,l),
(960,-160,l),
(960,105,l),
(380,105,l),
(380,215,l)
);
}
);
width = 980;
}
);
unicode = 44148;
},
{
glyphname = "geod-ko";
lastChange = "2022-05-01 03:02:20 +0000";
layers = (
{
layerId = "75B71696-F68C-493E-998D-CC33CA41914E";
shapes = (
{
closed = 1;
nodes = (
(645,398,l),
(645,270,l),
(945,270,l),
(945,800,l),
(645,800,l),
(645,688,l),
(590,688,l),
(590,790,l),
(48,790,l),
(48,560,l),
(303,560,l),
(303,539,o),
(288,531,o),
(20,521,c),
(40,278,l),
(337,283,o),
(476,300,o),
(539,398,c)
);
},
{
closed = 1;
nodes = (
(945,86,l),
(945,246,l),
(60,246,l),
(60,-160,l),
(955,-160,l),
(955,54,l),
(370,54,l),
(370,86,l)
);
}
);
width = 980;
}
);
unicode = 44151;
},
{
glyphname = "geol-ko";
lastChange = "2022-10-11 15:07:01 +0000";
layers = (
{
layerId = "75B71696-F68C-493E-998D-CC33CA41914E";
shapes = (
{
closed = 1;
nodes = (
(638,300,l),
(938,300,l),
(938,800,l),
(638,800,l),
(638,700,l),
(583,700,l),
(583,790,l),
(41,790,l),
(41,580,l),
(291,580,l),
(291,559,o),
(271,551,o),
(13,541,c),
(33,303,l),
(334,308,o),
(472,324,o),
(534,420,c),
(638,420,l)
);
},
{
closed = 1;
nodes = (
(932,98,o),
(859,38,o),
(552,25,c),
(552,45,l),
(834,57,o),
(938,118,o),
(938,131,cs),
(938,277,l),
(58,277,l),
(58,137,l),
(444,137,l),
(444,117,l),
(58,117,l),
(58,-105,ls),
(58,-214,o),
(943,-188,o),
(970,-124,c),
(941,100,l),
(939,102,l)
);
}
);
width = 980;
}
);
unicode = 44152;
},
{
glyphname = "geolm-ko";
lastChange = "2022-05-01 03:02:20 +0000";
layers = (
{
layerId = "75B71696-F68C-493E-998D-CC33CA41914E";
shapes = (
{
closed = 1;
nodes = (
(605,703,l),
(605,785,l),
(58,785,l),
(58,555,l),
(318,555,l),
(318,534,o),
(298,526,o),
(30,516,c),
(50,283,l),
(363,288,o),
(502,303,o),
(562,413,c),
(660,413,l),
(660,306,l),
(950,306,l),
(950,800,l),
(660,800,l),
(660,703,l)
);
},
{
closed = 1;
nodes = (
(506,70,l),
(496,63,o),
(433,26,o),
(315,31,c),
(315,51,l),
(443,46,o),
(507,92,o),
(507,97,cs),
(507,251,l),
(60,251,l),
(60,106,l),
(240,106,l),
(240,86,l),
(60,86,l),
(63,-110,ls),
(63,-191,o),
(434,-199,o),
(555,-160,c),
(950,-160,l),
(950,281,l),
(540,281,l),
(540,-20,l),
(507,69,l)
);
},
{
closed = 1;
nodes = (
(750,23,l),
(730,23,l),
(730,143,l),
(750,143,l)
);
}
);
width = 980;
}
);
unicode = 44154;
},
{
glyphname = "geom-ko";
lastChange = "2022-05-01 03:02:20 +0000";
layers = (
{
layerId = "75B71696-F68C-493E-998D-CC33CA41914E";
shapes = (
{
closed = 1;
nodes = (
(600,690,l),
(600,790,l),
(53,790,l),
(53,555,l),
(313,555,l),
(313,534,o),
(293,526,o),
(25,516,c),
(45,268,l),
(352,273,o),
(491,291,o),
(553,400,c),
(650,400,l),
(650,266,l),
(950,266,l),
(950,800,l),
(650,800,l),
(650,690,l)
);
},
{
closed = 1;
nodes = (
(950,241,l),
(70,241,l),
(70,-160,l),
(950,-160,l)
);
},
{
closed = 1;
nodes = (
(650,45,l),
(370,45,l),
(370,65,l),
(650,65,l)
);
}
);
width = 980;
}
);
unicode = 44160;
},
{
glyphname = "geob-ko";
lastChange = "2022-05-01 03:02:20 +0000";
layers = (
{
layerId = "75B71696-F68C-493E-998D-CC33CA41914E";
shapes = (
{
closed = 1;
nodes = (
(595,708,l),
(595,792,l),
(48,792,l),
(48,567,l),
(308,567,l),
(308,546,o),
(288,538,o),
(20,528,c),
(40,290,l),
(351,295,o),
(490,310,o),
(551,418,c),
(650,418,l),
(650,302,l),
(950,302,l),
(950,800,l),
(650,800,l),
(650,708,l)
);
},
{
closed = 1;
nodes = (
(365,266,l),
(55,266,l),
(55,-160,l),
(950,-160,l),
(950,276,l),
(640,276,l),
(640,203,l),
(365,203,l)
);
},
{
closed = 1;
nodes = (
(640,63,l),
(640,20,l),
(365,20,l),
(365,63,l)
);
}
);
width = 980;
}
);
unicode = 44161;
},
{
glyphname = "geobs-ko";
lastChange = "2022-05-01 03:02:20 +0000";
layers = (
{
layerId = "75B71696-F68C-493E-998D-CC33CA41914E";
shapes = (
{
closed = 0;
nodes = (
(310,265,l)
);
},
{
closed = 1;
nodes = (
(630,286,l),
(930,286,l),
(930,800,l),
(630,800,l),
(630,698,l),
(575,698,l),
(575,785,l),
(38,785,l),
(38,555,l),
(298,555,l),
(298,534,o),
(278,526,o),
(10,516,c),
(30,273,l),
(346,278,o),
(480,294,o),
(537,408,c),
(630,408,l)
);
},
{
closed = 1;
nodes = (
(844,172,o),
(847,217,o),
(845,261,c),
(575,261,l),
(576,150,o),
(558,120,o),
(498,96,c),
(498,241,l),
(298,241,l),
(298,195,l),
(259,195,l),
(259,241,l),
(49,241,l),
(49,-160,l),
(498,-160,l),
(498,-25,l),
(544,-174,l),
(627,-152,o),
(692,-110,o),
(740,-56,c),
(725,-136,l),
(805,-140,o),
(868,-150,o),
(921,-171,c),
(976,87,l),
(945,106,o),
(891,121,o),
(834,128,c)
);
},
{
closed = 1;
nodes = (
(298,45,l),
(298,0,l),
(259,0,l),
(259,45,l)
);
}
);
width = 980;
}
);
unicode = 44162;
},
{
glyphname = "geos-ko";
lastChange = "2022-05-01 03:02:20 +0000";
layers = (
{
layerId = "75B71696-F68C-493E-998D-CC33CA41914E";
shapes = (
{
closed = 1;
nodes = (
(657,167,o),
(660,181,o),
(662,195,c),
(950,195,l),
(950,800,l),
(650,800,l),
(650,663,l),
(595,663,l),
(595,785,l),
(48,785,l),
(48,550,l),
(308,550,l),
(308,529,o),
(288,521,o),
(20,511,c),
(40,261,l),
(327,265,o),
(467,282,o),
(535,373,c),
(650,373,l),
(650,257,l),
(356,257,l),
(328,151,o),
(178,111,o),
(50,104,c),
(79,-171,l),
(262,-172,o),
(427,-114,o),
(535,-21,c),
(522,-114,l),
(716,-114,o),
(867,-142,o),
(913,-160,c),
(959,113,l),
(908,132,o),
(794,148,o),
(653,153,c)
);
}
);
width = 980;
}
);
unicode = 44163;
},
{
glyphname = "geoss-ko";
lastChange = "2022-05-01 03:02:20 +0000";
layers = (
{
layerId = "75B71696-F68C-493E-998D-CC33CA41914E";
shapes = (
{
closed = 1;
nodes = (
(358,271,o),
(492,289,o),
(548,407,c),
(640,407,l),
(640,277,l),
(940,277,l),
(940,800,l),
(640,800,l),
(640,697,l),
(585,697,l),
(585,785,l),
(48,785,l),
(48,555,l),
(308,555,l),
(308,534,o),
(288,526,o),
(20,516,c),
(40,266,l)
);
},
{
closed = 1;
nodes = (
(799,181,o),
(803,220,o),
(801,257,c),
(492,257,l),
(493,207,o),
(483,153,o),
(464,116,c),
(446,123,l),
(463,165,o),
(471,194,o),
(471,240,c),
(171,240,l),
(170,200,o),
(123,119,o),
(20,97,c),
(102,-178,l),
(191,-162,o),
(300,-105,o),
(339,-74,c),
(383,-178,l),
(512,-154,o),
(608,-104,o),
(675,-41,c),
(663,-134,l),
(757,-134,o),
(868,-152,o),
(914,-170,c),
(960,113,l),
(919,128,o),
(853,138,o),
(789,142,c)
);
}
);
width = 980;
}
);
unicode = 44164;
},
{
glyphname = "geong-ko";
lastChange = "2022-05-01 03:02:20 +0000";
layers = (
{
layerId = "75B71696-F68C-493E-998D-CC33CA41914E";
shapes = (
{
closed = 1;
nodes = (
(950,800,l),
(650,800,l),
(650,675,l),
(595,675,l),
(595,784,l),
(48,784,l),
(48,549,l),
(308,549,l),
(308,527,o),
(288,515,o),
(20,505,c),
(40,252,l),
(343,257,o),
(483,277,o),
(546,385,c),
(650,385,l),
(650,229,l),
(237,229,ls),
(127,228,o),
(44,145,o),
(40,33,cs),
(40,-94,o),
(126,-170,o),
(237,-170,cs),
(764,-170,ls),
(877,-171,o),
(960,-96,o),
(960,33,cs),
(960,127,o),
(907,204,o),
(818,224,c),
(950,224,l)
);
},
{
closed = 1;
nodes = (
(315,42,o),
(310,42,o),
(310,52,cs),
(310,62,o),
(315,62,o),
(320,62,cs),
(681,62,ls),
(685,62,o),
(691,62,o),
(691,52,cs),
(691,42,o),
(685,42,o),
(681,42,cs),
(320,42,ls)
);
}
);
width = 980;
}
);
unicode = 44165;
},
{
glyphname = "geoj-ko";
lastChange = "2022-05-01 03:02:20 +0000";
layers = (
{
layerId = "75B71696-F68C-493E-998D-CC33CA41914E";
shapes = (
{
closed = 1;
nodes = (
(640,286,l),
(940,286,l),
(940,800,l),
(640,800,l),
(640,698,l),
(585,698,l),
(585,790,l),
(48,790,l),
(48,563,l),
(308,563,l),
(308,546,o),
(288,538,o),
(20,528,c),
(40,286,l),
(339,291,o),
(475,310,o),
(537,408,c),
(640,408,l)
);
},
{
closed = 1;
nodes = (
(681,102,o),
(686,112,o),
(690,121,c),
(940,121,l),
(940,261,l),
(70,261,l),
(70,121,l),
(301,121,l),
(230,86,o),
(133,73,o),
(55,69,c),
(83,-171,l),
(259,-171,o),
(430,-120,o),
(548,-39,c),
(538,-124,l),
(732,-124,o),
(873,-146,o),
(919,-164,c),
(955,59,l),
(906,77,o),
(806,89,o),
(676,93,c)
);
}
);
width = 980;
}
);
unicode = 44166;
},
{
glyphname = "geot-ko";
lastChange = "2022-05-01 03:02:20 +0000";
layers = (
{
layerId = "75B71696-F68C-493E-998D-CC33CA41914E";
shapes = (
{
closed = 1;
nodes = (
(650,287,l),
(950,287,l),
(950,800,l),
(650,800,l),
(650,688,l),
(595,688,l),
(595,791,l),
(53,791,l),
(53,570,l),
(308,570,l),
(308,549,o),
(293,541,o),
(25,531,c),
(45,293,l),
(335,297,o),
(474,310,o),
(539,398,c),
(650,398,l)
);
},
{
closed = 1;
nodes = (
(940,35,l),
(940,120,l),
(380,120,l),
(380,145,l),
(950,145,l),
(950,265,l),
(70,265,l),
(70,-160,l),
(960,-160,l),
(960,10,l),
(380,10,l),
(380,35,l)
);
}
);
width = 980;
}
);
unicode = 44169;
},
{
glyphname = "geop-ko";
lastChange = "2022-05-01 03:02:20 +0000";
layers = (
{
layerId = "75B71696-F68C-493E-998D-CC33CA41914E";
shapes = (
{
closed = 1;
nodes = (
(655,300,l),
(945,300,l),
(945,800,l),
(655,800,l),
(655,695,l),
(600,695,l),
(600,792,l),
(53,792,l),
(53,570,l),
(313,570,l),
(313,553,o),
(293,545,o),
(25,535,c),
(45,300,l),
(339,304,o),
(479,315,o),
(545,405,c),
(655,405,l)
);
},
{
closed = 1;
nodes = (
(688,105,l),
(945,105,l),
(945,275,l),
(73,275,l),
(73,105,l),
(330,105,l),
(138,75,l),
(152,20,l),
(63,20,l),
(63,-170,l),
(955,-170,l),
(955,20,l),
(866,20,l),
(880,75,l)
);
},
{
closed = 1;
nodes = (
(554,20,l),
(464,20,l),
(459,105,l),
(559,105,l)
);
}
);
width = 980;
}
);
unicode = 44170;
},
{
glyphname = "geoh-ko";
lastChange = "2022-05-01 03:02:20 +0000";
layers = (
{
layerId = "75B71696-F68C-493E-998D-CC33CA41914E";
shapes = (
{
closed = 1;
nodes = (
(645,800,l),
(645,709,l),
(590,709,l),
(590,792,l),
(53,792,l),
(53,577,l),
(313,577,l),
(313,560,o),
(293,552,o),
(25,542,c),
(45,310,l),
(345,315,o),
(482,326,o),
(543,419,c),
(645,419,l),
(645,306,l),
(345,306,l),
(345,266,l),
(55,266,l),
(55,96,l),
(123,96,l),
(93,79,o),
(74,49,o),
(74,-5,cs),
(74,-101,o),
(134,-170,o),
(249,-170,cs),
(749,-170,ls),
(866,-171,o),
(927,-103,o),
(927,-5,cs),
(927,48,o),
(910,79,o),
(882,96,c),
(945,96,l),
(945,266,l),
(655,266,l),
(655,294,l),
(945,294,l),
(945,800,l)
);
},
{
closed = 1;
nodes = (
(343,35,o),
(338,35,o),
(338,45,cs),
(338,55,o),
(343,55,o),
(348,55,cs),
(652,55,ls),
(656,55,o),
(662,55,o),
(662,45,cs),
(662,35,o),
(656,35,o),
(652,35,cs),
(348,35,ls)
);
}
);
width = 980;
}
);
unicode = 44171;
},
{
glyphname = "ge-ko";
lastChange = "2022-05-01 03:02:20 +0000";
layers = (
{
layerId = "75B71696-F68C-493E-998D-CC33CA41914E";
shapes = (
{
closed = 1;
nodes = (
(960,-160,l),
(960,800,l),
(740,800,l),
(740,-160,l)
);
},
{
closed = 1;
nodes = (
(461,567,o),
(462,653,o),
(462,750,c),
(47,750,l),
(47,450,l),
(192,450,l),
(187,314,o),
(125,219,o),
(10,200,c),
(46,-112,l),
(262,-74,o),
(373,-9,o),
(424,211,c),
(500,211,l),
(500,-140,l),
(710,-140,l),
(710,780,l),
(500,780,l),
(500,491,l),
(457,491,l)
);
}
);
width = 980;
}
);
unicode = 44172;
},
{
glyphname = "geg-ko";
lastChange = "2022-05-01 03:02:20 +0000";
layers = (
{
layerId = "75B71696-F68C-493E-998D-CC33CA41914E";
shapes = (
{
closed = 1;
nodes = (
(960,225,l),
(960,800,l),
(760,800,l),
(760,225,l)
);
},
{
closed = 1;
nodes = (
(545,225,l),
(735,225,l),
(735,790,l),
(545,790,l),
(545,650,l),
(494,650,l),
(495,687,o),
(495,727,o),
(495,770,c),
(33,770,l),
(33,535,l),
(228,535,l),
(228,514,o),
(178,496,o),
(10,486,c),
(30,230,l),
(273,235,o),
(393,259,o),
(450,380,c),
(545,380,l)
);
},
{
closed = 1;
nodes = (
(650,-160,l),
(960,-160,l),
(960,200,l),
(60,200,l),
(60,-65,l),
(650,-65,l)
);
}
);
width = 980;
}
);
unicode = 44173;
},
{
glyphname = "gen-ko";
lastChange = "2022-05-01 03:02:20 +0000";
layers = (
{
layerId = "75B71696-F68C-493E-998D-CC33CA41914E";
shapes = (
{
closed = 1;
nodes = (
(760,140,l),
(960,140,l),
(960,800,l),
(760,800,l)
);
},
{
closed = 1;
nodes = (
(545,160,l),
(735,160,l),
(735,790,l),
(545,790,l),
(545,630,l),
(499,630,l),
(500,673,o),
(500,722,o),
(500,775,c),
(38,775,l),
(38,540,l),
(233,540,l),
(233,519,o),
(183,501,o),
(15,491,c),
(35,235,l),
(271,239,o),
(390,260,o),
(448,360,c),
(545,360,l)
);
},
{
closed = 1;
nodes = (
(60,210,l),
(60,-160,l),
(970,-160,l),
(970,105,l),
(380,105,l),
(380,210,l)
);
}
);
width = 980;
}
);
unicode = 44176;
},
{
glyphname = "gel-ko";
lastChange = "2022-10-11 15:07:10 +0000";
layers = (
{
layerId = "75B71696-F68C-493E-998D-CC33CA41914E";
shapes = (
{
closed = 1;
nodes = (
(738,292,l),
(938,292,l),
(938,800,l),
(738,800,l)
);
},
{
closed = 1;
nodes = (
(523,292,l),
(713,292,l),
(713,790,l),
(523,790,l),
(523,686,l),
(478,686,l),
(478,780,l),
(36,780,l),
(36,565,l),
(221,565,l),
(221,544,o),
(171,531,o),
(13,521,c),
(33,290,l),
(276,295,o),
(389,308,o),
(440,416,c),
(523,416,l)
);
},
{
closed = 1;
nodes = (
(932,98,o),
(859,38,o),
(552,25,c),
(552,45,l),
(834,57,o),
(938,118,o),
(938,131,cs),
(938,267,l),
(58,267,l),
(58,137,l),
(444,137,l),
(444,117,l),
(58,117,l),
(58,-105,ls),
(58,-214,o),
(943,-188,o),
(970,-124,c),
(941,100,l),
(939,102,l)
);
}
);
width = 980;
}
);
unicode = 44180;
},
{
glyphname = "gem-ko";
lastChange = "2022-05-01 03:02:20 +0000";
layers = (
{
layerId = "75B71696-F68C-493E-998D-CC33CA41914E";
shapes = (
{
closed = 1;
nodes = (
(955,256,l),
(955,800,l),
(755,800,l),
(755,256,l)
);
},
{
closed = 1;
nodes = (
(540,256,l),
(730,256,l),
(730,790,l),
(540,790,l),
(540,664,l),
(494,664,l),
(495,699,o),
(495,737,o),
(495,778,c),
(43,778,l),
(43,553,l),
(238,553,l),
(238,532,o),
(188,514,o),
(20,504,c),
(40,263,l),
(281,268,o),
(398,283,o),
(452,394,c),
(540,394,l)
);
},
{
closed = 1;
nodes = (
(955,231,l),
(55,231,l),
(55,-160,l),
(955,-160,l)
);
},
{
closed = 1;
nodes = (
(655,40,l),
(355,40,l),
(355,60,l),
(655,60,l)
);
}
);
width = 980;
}
);
unicode = 44188;
},
{
glyphname = "geb-ko";
lastChange = "2022-05-01 03:02:20 +0000";
layers = (
{
layerId = "75B71696-F68C-493E-998D-CC33CA41914E";
shapes = (
{
closed = 1;
nodes = (
(955,293,l),
(955,800,l),
(755,800,l),
(755,293,l)
);
},
{
closed = 1;
nodes = (
(540,293,l),
(730,293,l),
(730,790,l),
(540,790,l),
(540,683,l),
(495,683,l),
(495,778,l),
(43,778,l),
(43,563,l),
(238,563,l),
(238,542,o),
(188,524,o),
(20,514,c),
(40,283,l),
(283,288,o),
(400,303,o),
(454,413,c),
(540,413,l)
);
},
{
closed = 1;
nodes = (
(380,256,l),
(70,256,l),
(70,-160,l),
(955,-160,l),
(955,266,l),
(645,266,l),
(645,203,l),
(380,203,l)
);
},
{
closed = 1;
nodes = (
(645,63,l),
(645,20,l),
(380,20,l),
(380,63,l)
);
}
);
width = 980;
}
);
unicode = 44189;
},
{
glyphname = "ges-ko";
lastChange = "2022-05-01 03:02:20 +0000";
layers = (
{
layerId = "75B71696-F68C-493E-998D-CC33CA41914E";
shapes = (
{
closed = 1;
nodes = (
(755,196,l),
(960,196,l),
(960,800,l),
(755,800,l)
);
},
{
closed = 1;
nodes = (
(540,271,l),
(730,271,l),
(730,790,l),
(540,790,l),
(540,669,l),
(494,669,l),
(495,702,o),
(495,737,o),
(495,775,c),
(38,775,l),
(38,545,l),
(233,545,l),
(233,524,o),
(183,506,o),
(15,496,c),
(35,249,l),
(282,254,o),
(401,272,o),
(455,399,c),
(540,399,l)
);
},
{
closed = 1;
nodes = (
(663,183,o),
(667,215,o),
(666,247,c),
(356,247,l),
(328,151,o),
(178,101,o),
(44,94,c),
(73,-171,l),
(260,-172,o),
(426,-114,o),
(535,-22,c),
(522,-114,l),
(716,-114,o),
(867,-142,o),
(919,-160,c),
(965,113,l),
(909,132,o),
(795,148,o),
(655,153,c)
);
}
);
width = 980;
}
);
unicode = 44191;
},
{
glyphname = "gess-ko";
lastChange = "2022-05-01 03:02:20 +0000";
layers = (
{
layerId = "75B71696-F68C-493E-998D-CC33CA41914E";
shapes = (
{
closed = 1;
nodes = (
(796,164,o),
(800,185,o),
(801,207,c),
(955,207,l),
(955,800,l),
(755,800,l),
(755,257,l),
(493,257,l),
(494,207,o),
(484,153,o),
(465,116,c),
(447,123,l),
(464,165,o),
(472,194,o),
(472,240,c),
(172,240,l),
(171,200,o),
(124,119,o),
(21,97,c),
(103,-178,l),
(192,-162,o),
(301,-105,o),
(340,-74,c),
(384,-178,l),
(513,-154,o),
(609,-104,o),
(676,-41,c),
(664,-134,l),
(758,-134,o),
(869,-152,o),
(915,-170,c),
(961,113,l),
(920,128,o),
(854,138,o),
(790,142,c)
);
},
{
closed = 1;
nodes = (
(302,263,o),
(415,271,o),
(459,416,c),
(540,416,l),
(540,285,l),
(730,285,l),
(730,790,l),
(540,790,l),
(540,686,l),
(485,686,l),
(485,780,l),
(33,780,l),
(33,550,l),
(218,550,l),
(215,529,o),
(198,521,o),
(10,511,c),
(30,258,l)
);
}
);
width = 980;
}
);
unicode = 44192;
},
{
glyphname = "geng-ko";
lastChange = "2022-05-01 03:02:20 +0000";
layers = (
{
layerId = "75B71696-F68C-493E-998D-CC33CA41914E";
shapes = (
{
closed = 1;
nodes = (
(955,800,l),
(755,800,l),
(755,220,l),
(228,220,ls),
(118,219,o),
(35,136,o),
(31,28,cs),
(31,-94,o),
(117,-170,o),
(228,-170,cs),
(769,-170,ls),
(882,-171,o),
(965,-96,o),
(965,28,cs),
(965,119,o),
(912,195,o),
(823,215,c),
(955,215,l)
);
},
{
closed = 1;
nodes = (
(282,254,o),
(399,272,o),
(451,394,c),
(540,394,l),
(540,246,l),
(730,246,l),
(730,790,l),
(540,790,l),
(540,664,l),
(490,664,l),
(490,775,l),
(38,775,l),
(38,545,l),
(233,545,l),
(233,524,o),
(183,506,o),
(15,496,c),
(35,249,l)
);
},
{
closed = 1;
nodes = (
(306,37,o),
(301,37,o),
(301,47,cs),
(301,57,o),
(306,57,o),
(311,57,cs),
(686,57,ls),
(690,57,o),
(696,57,o),
(696,47,cs),
(696,37,o),
(690,37,o),
(686,37,cs),
(311,37,ls)
);
}
);
width = 980;
}
);
unicode = 44193;
},
{
glyphname = "gyeo-ko";
lastChange = "2022-05-01 03:02:20 +0000";
layers = (
{
layerId = "75B71696-F68C-493E-998D-CC33CA41914E";
shapes = (
{
closed = 1;
nodes = (
(589,672,l),
(590,703,o),
(590,736,o),
(590,770,c),
(45,770,l),
(45,470,l),
(290,470,l),
(285,332,o),
(221,210,o),
(10,210,c),
(46,-112,l),
(57,-113,l),
(360,-99,o),
(497,-10,o),
(554,258,c),
(554,62,l),
(660,62,l),
(660,-160,l),
(960,-160,l),
(960,800,l),
(660,800,l),
(660,672,l)
);
},
{
closed = 1;
nodes = (
(576,402,l),
(660,402,l),
(660,332,l),
(567,332,l)
);
}
);
width = 980;
}
);
unicode = 44200;
},
{
glyphname = "gyeog-ko";
lastChange = "2022-05-01 03:02:20 +0000";
layers = (
{
layerId = "75B71696-F68C-493E-998D-CC33CA41914E";
shapes = (
{
closed = 1;
nodes = (
(600,717,l),
(600,785,l),
(53,785,l),
(53,540,l),
(313,540,l),
(313,519,o),
(298,501,o),
(25,491,c),
(45,238,l),
(385,243,o),
(519,265,o),
(570,411,c),
(570,317,l),
(655,317,l),
(655,235,l),
(955,235,l),
(955,800,l),
(655,800,l),
(655,717,l)
);
},
{
closed = 1;
nodes = (
(591,506,o),
(593,526,o),
(595,547,c),
(655,547,l),
(655,487,l),
(588,487,l)
);
},
{
closed = 1;
nodes = (
(645,-160,l),
(955,-160,l),
(955,210,l),
(65,210,l),
(65,-55,l),
(645,-55,l)
);
}
);
width = 980;
}
);
unicode = 44201;
},
{
glyphname = "gyeogg-ko";
lastChange = "2022-05-01 03:02:20 +0000";
layers = (
{
layerId = "75B71696-F68C-493E-998D-CC33CA41914E";
shapes = (
{
closed = 1;
nodes = (
(660,341,l),
(660,266,l),
(950,266,l),
(950,800,l),
(660,800,l),
(660,731,l),
(605,731,l),
(605,780,l),
(58,780,l),
(58,540,l),
(318,540,l),
(318,519,o),
(298,511,o),
(30,501,c),
(50,253,l),
(401,258,o),
(533,277,o),
(580,434,c),
(580,341,l)
);
},
{
closed = 1;
nodes = (
(598,527,o),
(599,543,o),
(601,561,c),
(660,561,l),
(660,511,l),
(596,511,l)
);
},
{
closed = 1;
nodes = (
(520,51,l),
(650,51,l),
(650,30,o),
(628,21,o),
(495,21,c),
(495,221,l),
(70,221,l),
(70,-19,l),
(185,-19,l),
(185,-160,l),
(495,-160,l),
(495,-14,l),
(544,-170,l),
(963,-172,o),
(953,-96,o),
(950,241,c),
(520,241,l)
);
}
);
width = 980;
}
);
unicode = 44202;
},
{
glyphname = "gyeon-ko";
lastChange = "2022-05-01 03:02:20 +0000";
layers = (
{
layerId = "75B71696-F68C-493E-998D-CC33CA41914E";
shapes = (
{
closed = 1;
nodes = (
(650,283,l),
(650,145,l),
(950,145,l),
(950,800,l),
(650,800,l),
(650,723,l),
(595,723,l),
(595,785,l),
(43,785,l),
(43,545,l),
(308,545,l),
(308,524,o),
(283,506,o),
(15,496,c),
(35,243,l),
(389,248,o),
(522,274,o),
(570,440,c),
(570,283,l)
);
},
{
closed = 1;
nodes = (
(578,473,l),
(582,491,o),
(585,511,o),
(587,533,c),
(650,533,l),
(650,473,l)
);
},
{
closed = 1;
nodes = (
(60,215,l),
(60,-160,l),
(960,-160,l),
(960,105,l),
(380,105,l),
(380,215,l)
);
}
);
width = 980;
}
);
unicode = 44204;
},
{
glyphname = "gyeod-ko";
lastChange = "2022-05-01 03:02:20 +0000";
layers = (
{
layerId = "75B71696-F68C-493E-998D-CC33CA41914E";
shapes = (
{
closed = 1;
nodes = (
(645,336,l),
(645,270,l),
(945,270,l),
(945,800,l),
(645,800,l),
(645,726,l),
(590,726,l),
(590,790,l),
(48,790,l),
(48,560,l),
(303,560,l),
(303,539,o),
(288,531,o),
(20,521,c),
(40,278,l),
(388,283,o),
(518,306,o),
(565,455,c),
(565,336,l)
);
},
{
closed = 1;
nodes = (
(577,506,l),
(580,522,o),
(582,538,o),
(584,556,c),
(645,556,l),
(645,506,l)
);
},
{
closed = 1;
nodes = (
(945,86,l),
(945,246,l),
(60,246,l),
(60,-160,l),
(955,-160,l),
(955,54,l),
(370,54,l),
(370,86,l)
);
}
);
width = 980;
}
);
unicode = 44207;
},
{
glyphname = "gyeol-ko";
lastChange = "2022-10-11 15:07:20 +0000";
layers = (
{
layerId = "75B71696-F68C-493E-998D-CC33CA41914E";
shapes = (
{
closed = 1;
nodes = (
(640,353,l),
(640,300,l),
(940,300,l),
(940,800,l),
(640,800,l),
(640,743,l),
(585,743,l),
(585,790,l),
(38,790,l),
(38,580,l),
(298,580,l),
(298,559,o),
(278,551,o),
(10,541,c),
(30,303,l),
(381,308,o),
(513,329,o),
(560,474,c),
(560,353,l)
);
},
{
closed = 1;
nodes = (
(575,539,o),
(577,555,o),
(579,573,c),
(640,573,l),
(640,523,l),
(572,523,l)
);
},
{
closed = 1;
nodes = (
(932,98,o),
(859,38,o),
(552,25,c),
(552,45,l),
(834,57,o),
(938,118,o),
(938,131,cs),
(938,277,l),
(58,277,l),
(58,137,l),
(444,137,l),
(444,117,l),
(58,117,l),
(58,-105,ls),
(58,-214,o),
(943,-188,o),
(970,-124,c),
(941,100,l),
(939,102,l)
);
}
);
width = 980;
}
);
unicode = 44208;
},
{
glyphname = "gyeolh-ko";
lastChange = "2022-05-01 03:02:20 +0000";
layers = (
{
layerId = "75B71696-F68C-493E-998D-CC33CA41914E";
shapes = (
{
closed = 1;
nodes = (
(648,351,l),
(648,301,l),
(938,301,l),
(938,800,l),
(648,800,l),
(648,741,l),
(593,741,l),
(593,785,l),
(46,785,l),
(46,555,l),
(306,555,l),
(306,534,o),
(286,526,o),
(18,516,c),
(38,283,l),
(389,288,o),
(521,307,o),
(568,457,c),
(568,351,l)
);
},
{
closed = 1;
nodes = (
(585,537,o),
(587,553,o),
(588,571,c),
(648,571,l),
(648,521,l),
(582,521,l)
);
},
{
closed = 1;
nodes = (
(855,281,l),
(595,281,l),
(595,241,l),
(487,241,l),
(487,96,l),
(518,96,l),
(501,79,o),
(490,53,o),
(488,10,c),
(461,69,l),
(460,70,l),
(450,63,o),
(397,26,o),
(289,31,c),
(289,51,l),
(407,46,o),
(461,92,o),
(461,97,cs),
(461,261,l),
(40,261,l),
(40,116,l),
(220,116,l),
(220,96,l),
(40,96,l),
(43,-110,ls),
(43,-199,o),
(490,-200,o),
(559,-146,c),
(575,-155,o),
(593,-160,o),
(613,-160,cs),
(813,-160,ls),
(920,-161,o),
(961,-103,o),
(961,-5,cs),
(961,46,o),
(947,77,o),
(925,96,c),
(962,96,l),
(962,241,l),
(855,241,l)
);
},
{
closed = 1;
nodes = (
(653,5,o),
(648,5,o),
(648,15,cs),
(648,25,o),
(653,25,o),
(658,25,cs),
(791,25,ls),
(795,25,o),
(801,25,o),
(801,15,cs),
(801,5,o),
(795,5,o),
(791,5,cs),
(658,5,ls)
);
}
);
width = 980;
}
);
unicode = 44215;
},
{
glyphname = "gyeom-ko";
lastChange = "2022-05-01 03:02:20 +0000";
layers = (
{
layerId = "75B71696-F68C-493E-998D-CC33CA41914E";
shapes = (
{
closed = 1;
nodes = (
(600,732,l),
(600,790,l),
(53,790,l),
(53,555,l),
(313,555,l),
(313,534,o),
(293,526,o),
(25,516,c),
(45,268,l),
(384,273,o),
(519,295,o),
(570,437,c),
(570,342,l),
(650,342,l),
(650,266,l),
(950,266,l),
(950,800,l),
(650,800,l),
(650,732,l)
);
},
{
closed = 1;
nodes = (
(591,528,o),
(593,544,o),
(594,562,c),
(650,562,l),
(650,512,l),
(588,512,l)
);
},
{
closed = 1;
nodes = (
(950,241,l),
(70,241,l),
(70,-160,l),
(950,-160,l)
);
},
{
closed = 1;
nodes = (
(650,45,l),
(370,45,l),
(370,65,l),
(650,65,l)
);
}
);
width = 980;
}
);
unicode = 44216;
},
{
glyphname = "gyeob-ko";
lastChange = "2022-05-01 03:02:20 +0000";
layers = (
{
layerId = "75B71696-F68C-493E-998D-CC33CA41914E";
shapes = (
{
closed = 1;
nodes = (
(595,746,l),
(595,792,l),
(48,792,l),
(48,567,l),
(308,567,l),
(308,546,o),
(288,538,o),
(20,528,c),
(40,290,l),
(391,295,o),
(523,314,o),
(570,464,c),
(570,356,l),
(650,356,l),
(650,302,l),
(950,302,l),
(950,800,l),
(650,800,l),
(650,746,l)
);
},
{
closed = 1;
nodes = (
(587,542,o),
(588,558,o),
(590,576,c),
(650,576,l),
(650,526,l),
(584,526,l)
);
},
{
closed = 1;
nodes = (
(385,266,l),
(75,266,l),
(75,-160,l),
(950,-160,l),
(950,276,l),
(640,276,l),
(640,203,l),
(385,203,l)
);
},
{
closed = 1;
nodes = (
(640,63,l),
(640,20,l),
(385,20,l),
(385,63,l)
);
}
);
width = 980;
}
);
unicode = 44217;
},
{
glyphname = "gyeos-ko";
lastChange = "2022-05-01 03:02:20 +0000";
layers = (
{
layerId = "75B71696-F68C-493E-998D-CC33CA41914E";
shapes = (
{
closed = 1;
nodes = (
(657,167,o),
(660,181,o),
(662,195,c),
(950,195,l),
(950,800,l),
(650,800,l),
(650,726,l),
(595,726,l),
(595,785,l),
(48,785,l),
(48,550,l),
(308,550,l),
(308,529,o),
(288,521,o),
(20,511,c),
(40,261,l),
(391,266,o),
(523,290,o),
(570,446,c),
(570,331,l),
(650,331,l),
(650,257,l),
(356,257,l),
(328,151,o),
(178,111,o),
(50,104,c),
(79,-171,l),
(262,-172,o),
(427,-114,o),
(535,-21,c),
(522,-114,l),
(716,-114,o),
(867,-142,o),
(913,-160,c),
(959,113,l),
(908,132,o),
(794,148,o),
(653,153,c)
);
},
{
closed = 1;
nodes = (
(585,518,o),
(588,536,o),
(589,556,c),
(650,556,l),
(650,501,l),
(583,501,l)
);
}
);
width = 980;
}
);
unicode = 44219;
},
{
glyphname = "gyeoss-ko";
lastChange = "2022-05-01 03:02:20 +0000";
layers = (
{
layerId = "75B71696-F68C-493E-998D-CC33CA41914E";
shapes = (
{
closed = 1;
nodes = (
(382,271,o),
(513,292,o),
(560,446,c),
(560,351,l),
(640,351,l),
(640,277,l),
(940,277,l),
(940,800,l),
(640,800,l),
(640,741,l),
(585,741,l),
(585,785,l),
(43,785,l),
(43,555,l),
(303,555,l),
(303,534,o),
(283,526,o),
(15,516,c),
(35,266,l)
);
},
{
closed = 1;
nodes = (
(578,537,o),
(579,553,o),
(581,571,c),
(640,571,l),
(640,521,l),
(576,521,l)
);
},
{
closed = 1;
nodes = (
(804,181,o),
(808,220,o),
(806,257,c),
(497,257,l),
(498,207,o),
(488,153,o),
(469,116,c),
(451,123,l),
(468,165,o),
(476,194,o),
(476,240,c),
(176,240,l),
(175,200,o),
(128,119,o),
(25,97,c),
(107,-178,l),
(196,-162,o),
(305,-105,o),
(344,-74,c),
(388,-178,l),
(517,-154,o),
(613,-104,o),
(680,-41,c),
(668,-134,l),
(762,-134,o),
(873,-152,o),
(919,-170,c),
(965,113,l),
(924,128,o),
(858,138,o),
(794,142,c)
);
}
);
width = 980;
}
);
unicode = 44220;
},
{
glyphname = "gyeong-ko";
lastChange = "2022-05-01 03:02:20 +0000";
layers = (
{
layerId = "75B71696-F68C-493E-998D-CC33CA41914E";
shapes = (
{
closed = 1;
nodes = (
(950,800,l),
(650,800,l),
(650,722,l),
(595,722,l),
(595,784,l),
(48,784,l),
(48,549,l),
(308,549,l),
(308,527,o),
(288,515,o),
(20,505,c),
(40,252,l),
(391,257,o),
(523,284,o),
(570,443,c),
(570,322,l),
(650,322,l),
(650,229,l),
(237,229,ls),
(127,228,o),
(44,145,o),
(40,33,cs),
(40,-94,o),
(126,-170,o),
(237,-170,cs),
(764,-170,ls),
(877,-171,o),
(960,-96,o),
(960,33,cs),
(960,127,o),
(907,204,o),
(818,224,c),
(950,224,l)
);
},
{
closed = 1;
nodes = (
(585,511,o),
(587,530,o),
(589,552,c),
(650,552,l),
(650,492,l),
(581,492,l)
);
},
{
closed = 1;
nodes = (
(315,42,o),
(310,42,o),
(310,52,cs),
(310,62,o),
(315,62,o),
(320,62,cs),
(681,62,ls),
(685,62,o),
(691,62,o),
(691,52,cs),
(691,42,o),
(685,42,o),
(681,42,cs),
(320,42,ls)
);
}
);
width = 980;
}
);
unicode = 44221;
},
{
glyphname = "gyeoc-ko";
lastChange = "2022-05-01 03:02:20 +0000";
layers = (
{
layerId = "75B71696-F68C-493E-998D-CC33CA41914E";
shapes = (
{
closed = 1;
nodes = (
(655,93,o),
(659,102,o),
(663,111,c),
(940,111,l),
(940,236,l),
(680,236,l),
(680,267,l),
(940,267,l),
(940,800,l),
(640,800,l),
(640,735,l),
(590,735,l),
(590,788,l),
(53,788,l),
(53,563,l),
(313,563,l),
(313,542,o),
(293,534,o),
(25,524,c),
(45,284,l),
(378,289,o),
(509,312,o),
(560,443,c),
(560,345,l),
(640,345,l),
(640,281,l),
(349,281,l),
(350,264,o),
(349,249,o),
(348,236,c),
(55,236,l),
(55,111,l),
(291,111,l),
(220,76,o),
(123,63,o),
(45,59,c),
(73,-171,l),
(266,-171,o),
(434,-120,o),
(544,-37,c),
(533,-124,l),
(727,-124,o),
(868,-146,o),
(919,-164,c),
(955,49,l),
(899,68,o),
(790,80,o),
(650,84,c)
);
},
{
closed = 1;
nodes = (
(585,565,l),
(640,565,l),
(640,515,l),
(579,515,l)
);
}
);
width = 980;
}
);
unicode = 44223;
},
{
glyphname = "gyeot-ko";
lastChange = "2022-05-01 03:02:20 +0000";
layers = (
{
layerId = "75B71696-F68C-493E-998D-CC33CA41914E";
shapes = (
{
closed = 1;
nodes = (
(650,352,l),
(650,287,l),
(950,287,l),
(950,800,l),
(650,800,l),
(650,742,l),
(595,742,l),
(595,791,l),
(53,791,l),
(53,570,l),
(308,570,l),
(308,549,o),
(293,541,o),
(25,531,c),
(45,293,l),
(393,298,o),
(523,315,o),
(570,460,c),
(570,352,l)
);
},
{
closed = 1;
nodes = (
(587,538,o),
(589,554,o),
(590,572,c),
(650,572,l),
(650,522,l),
(584,522,l)
);
},
{
closed = 1;
nodes = (
(940,35,l),
(940,120,l),
(380,120,l),
(380,145,l),
(950,145,l),
(950,265,l),
(70,265,l),
(70,-160,l),
(960,-160,l),
(960,10,l),
(380,10,l),
(380,35,l)
);
}
);
width = 980;
}
);
unicode = 44225;
},
{
glyphname = "gye-ko";
lastChange = "2022-05-01 03:02:20 +0000";
layers = (
{
layerId = "75B71696-F68C-493E-998D-CC33CA41914E";
shapes = (
{
closed = 1;
nodes = (
(960,-160,l),
(960,800,l),
(740,800,l),
(740,-160,l)
);
},
{
closed = 1;
nodes = (
(462,676,o),
(462,712,o),
(462,750,c),
(47,750,l),
(47,450,l),
(192,450,l),
(187,314,o),
(125,219,o),
(10,200,c),
(46,-112,l),
(251,-76,o),
(361,-15,o),
(415,177,c),
(415,61,l),
(500,61,l),
(500,-140,l),
(710,-140,l),
(710,780,l),
(500,780,l),
(500,641,l),
(461,641,l)
);
},
{
closed = 1;
nodes = (
(445,332,o),
(448,365,o),
(451,401,c),
(500,401,l),
(500,301,l),
(440,301,l)
);
}
);
width = 980;
}
);
unicode = 44228;
},
{
glyphname = "gyen-ko";
lastChange = "2022-05-01 03:02:20 +0000";
layers = (
{
layerId = "75B71696-F68C-493E-998D-CC33CA41914E";
shapes = (
{
closed = 1;
nodes = (
(750,140,l),
(950,140,l),
(950,800,l),
(750,800,l)
);
},
{
closed = 1;
nodes = (
(535,313,l),
(535,160,l),
(725,160,l),
(725,790,l),
(535,790,l),
(535,713,l),
(490,713,l),
(490,775,l),
(38,775,l),
(38,540,l),
(233,540,l),
(233,519,o),
(183,501,o),
(15,491,c),
(35,235,l),
(299,240,o),
(413,267,o),
(460,409,c),
(460,313,l)
);
},
{
closed = 1;
nodes = (
(477,483,l),
(480,502,o),
(482,522,o),
(484,543,c),
(535,543,l),
(535,483,l)
);
},
{
closed = 1;
nodes = (
(60,210,l),
(60,-160,l),
(960,-160,l),
(960,105,l),
(380,105,l),
(380,210,l)
);
}
);
width = 980;
}
);
unicode = 44232;
},
{
glyphname = "gyel-ko";
lastChange = "2022-10-11 15:07:32 +0000";
layers = (
{
layerId = "75B71696-F68C-493E-998D-CC33CA41914E";
shapes = (
{
closed = 1;
nodes = (
(738,292,l),
(938,292,l),
(938,800,l),
(738,800,l)
);
},
{
closed = 1;
nodes = (
(523,351,l),
(523,292,l),
(713,292,l),
(713,790,l),
(523,790,l),
(523,741,l),
(478,741,l),
(478,780,l),
(36,780,l),
(36,565,l),
(221,565,l),
(221,544,o),
(171,531,o),
(13,521,c),
(33,290,l),
(290,295,o),
(402,310,o),
(448,436,c),
(448,351,l)
);
},
{
closed = 1;
nodes = (
(470,537,o),
(472,553,o),
(473,571,c),
(523,571,l),
(523,521,l),
(468,521,l)
);
},
{
closed = 1;
nodes = (
(932,98,o),
(859,38,o),
(552,25,c),
(552,45,l),
(834,57,o),
(938,118,o),
(938,131,cs),
(938,267,l),
(58,267,l),
(58,137,l),
(444,137,l),
(444,117,l),
(58,117,l),
(58,-105,ls),
(58,-214,o),
(943,-188,o),
(970,-124,c),
(941,100,l),
(939,102,l)
);
}
);
width = 980;
}
);
unicode = 44236;
},
{
glyphname = "gyeb-ko";
lastChange = "2022-05-01 03:02:20 +0000";
layers = (
{
layerId = "75B71696-F68C-493E-998D-CC33CA41914E";
shapes = (
{
closed = 1;
nodes = (
(955,293,l),
(955,800,l),
(755,800,l),
(755,293,l)
);
},
{
closed = 1;
nodes = (
(540,350,l),
(540,293,l),
(730,293,l),
(730,790,l),
(540,790,l),
(540,740,l),
(495,740,l),
(495,778,l),
(43,778,l),
(43,563,l),
(238,563,l),
(238,542,o),
(188,524,o),
(20,514,c),
(40,283,l),
(293,288,o),
(410,304,o),
(460,428,c),
(460,350,l)
);
},
{
closed = 1;
nodes = (
(486,536,o),
(488,552,o),
(489,570,c),
(540,570,l),
(540,520,l),
(484,520,l)
);
},
{
closed = 1;
nodes = (
(380,256,l),
(70,256,l),
(70,-160,l),
(955,-160,l),
(955,266,l),
(645,266,l),
(645,203,l),
(380,203,l)
);
},
{
closed = 1;
nodes = (
(645,63,l),
(645,20,l),
(380,20,l),
(380,63,l)
);
}
);
width = 980;
}
);
unicode = 44245;
},
{
glyphname = "gyes-ko";
lastChange = "2022-05-01 03:02:20 +0000";
layers = (
{
layerId = "75B71696-F68C-493E-998D-CC33CA41914E";
shapes = (
{
closed = 1;
nodes = (
(755,196,l),
(960,196,l),
(960,800,l),
(755,800,l)
);
},
{
closed = 1;
nodes = (
(540,339,l),
(540,271,l),
(730,271,l),
(730,790,l),
(540,790,l),
(540,729,l),
(495,729,l),
(495,775,l),
(38,775,l),
(38,545,l),
(233,545,l),
(233,524,o),
(183,506,o),
(15,496,c),
(35,249,l),
(290,254,o),
(409,273,o),
(460,411,c),
(460,339,l)
);
},
{
closed = 1;
nodes = (
(483,509,l),
(489,559,l),
(540,559,l),
(540,509,l)
);
},
{
closed = 1;
nodes = (
(663,183,o),
(667,215,o),
(666,247,c),
(356,247,l),
(328,151,o),
(178,101,o),
(44,94,c),
(73,-171,l),
(260,-172,o),
(426,-114,o),
(535,-22,c),
(522,-114,l),
(716,-114,o),
(867,-142,o),
(919,-160,c),
(965,113,l),
(909,132,o),
(795,148,o),
(655,153,c)
);
}
);
width = 980;
}
);
unicode = 44247;
},
{
glyphname = "gyess-ko";
lastChange = "2022-05-01 03:02:20 +0000";
layers = (
{
layerId = "75B71696-F68C-493E-998D-CC33CA41914E";
shapes = (
{
closed = 1;
nodes = (
(796,164,o),
(800,185,o),
(801,207,c),
(955,207,l),
(955,800,l),
(755,800,l),
(755,257,l),
(493,257,l),
(494,207,o),
(484,153,o),
(465,116,c),
(447,123,l),
(464,165,o),
(472,194,o),
(472,240,c),
(172,240,l),
(171,200,o),
(124,119,o),
(21,97,c),
(103,-178,l),
(192,-162,o),
(301,-105,o),
(340,-74,c),
(384,-178,l),
(513,-154,o),
(609,-104,o),
(676,-41,c),
(664,-134,l),
(758,-134,o),
(869,-152,o),
(915,-170,c),
(961,113,l),
(920,128,o),
(854,138,o),
(790,142,c)
);
},
{
closed = 1;
nodes = (
(304,263,o),
(417,271,o),
(460,420,c),
(460,347,l),
(540,347,l),
(540,285,l),
(730,285,l),
(730,790,l),
(540,790,l),
(540,737,l),
(485,737,l),
(485,780,l),
(33,780,l),
(33,550,l),
(218,550,l),
(215,529,o),
(198,521,o),
(10,511,c),
(30,258,l)
);
},
{
closed = 1;
nodes = (
(479,533,o),
(480,549,o),
(481,567,c),
(540,567,l),
(540,517,l),
(477,517,l)
);
}
);
width = 980;
}
);
unicode = 44248;
},
{
glyphname = "go-ko";
lastChange = "2022-05-01 03:02:20 +0000";
layers = (
{
layerId = "75B71696-F68C-493E-998D-CC33CA41914E";
shapes = (
{
closed = 1;
nodes = (
(913,238,o),
(920,297,o),
(920,750,c),
(50,750,l),
(50,460,l),
(620,460,l),
(620,364,o),
(610,298,o),
(576,202,c),
(847,150,l),
(501,150,l),
(501,360,l),
(201,360,l),
(201,150,l),
(20,150,l),
(20,-130,l),
(960,-130,l),
(960,150,l),
(886,150,l)
);
}
);
width = 980;
}
);
unicode = 44256;
},
{
glyphname = "gog-ko";
lastChange = "2022-05-01 03:02:20 +0000";
layers = (
{
layerId = "75B71696-F68C-493E-998D-CC33CA41914E";
shapes = (
{
closed = 1;
nodes = (
(929,476,o),
(925,603,o),
(925,800,c),
(45,800,l),
(45,560,l),
(625,560,l),
(625,522,o),
(616,492,o),
(606,456,c),
(836,410,l),
(500,410,l),
(500,510,l),
(200,510,l),
(200,410,l),
(15,410,l),
(15,190,l),
(965,190,l),
(965,410,l),
(906,410,l)
);
},
{
closed = 1;
nodes = (
(625,-160,l),
(935,-160,l),
(935,165,l),
(35,165,l),
(35,-70,l),
(625,-70,l)
);
}
);
width = 980;
}
);
unicode = 44257;
},
{
glyphname = "gon-ko";
lastChange = "2022-05-01 03:02:20 +0000";
layers = (
{
layerId = "75B71696-F68C-493E-998D-CC33CA41914E";
shapes = (
{
closed = 1;
nodes = (
(929,461,o),
(925,584,o),
(925,800,c),
(45,800,l),
(45,560,l),
(625,560,l),
(625,502,o),
(616,477,o),
(606,441,c),
(836,395,l),
(500,395,l),
(500,495,l),
(200,495,l),
(200,395,l),
(15,395,l),
(15,175,l),
(965,175,l),
(965,395,l),
(906,395,l)
);
},
{
closed = 1;
nodes = (
(45,-160,l),
(945,-160,l),
(945,80,l),
(365,80,l),
(365,150,l),
(45,150,l)
);
}
);
width = 980;
}
);
unicode = 44260;
},
{
glyphname = "god-ko";
lastChange = "2022-05-01 03:02:20 +0000";
layers = (
{
layerId = "75B71696-F68C-493E-998D-CC33CA41914E";
shapes = (
{
closed = 1;
nodes = (
(929,493,o),
(925,614,o),
(925,800,c),
(45,800,l),
(45,560,l),
(625,560,l),
(625,532,o),
(616,507,o),
(606,471,c),
(826,427,l),
(500,427,l),
(500,510,l),
(200,510,l),
(200,427,l),
(15,427,l),
(15,227,l),
(965,227,l),
(965,427,l),
(907,427,l)
);
},
{
closed = 1;
nodes = (
(941,202,l),
(45,202,l),
(45,167,l),
(44,167,l),
(44,-160,l),
(950,-160,l),
(950,25,l),
(354,25,l),
(354,57,l),
(940,57,l)
);
}
);
width = 980;
}
);
unicode = 44263;
},
{
glyphname = "gol-ko";
lastChange = "2022-10-11 15:08:33 +0000";
layers = (
{
layerId = "75B71696-F68C-493E-998D-CC33CA41914E";
shapes = (
{
closed = 1;
nodes = (
(924,529,o),
(925,621,o),
(925,811,c),
(45,811,l),
(45,571,l),
(625,571,l),
(625,553,o),
(617,524,o),
(608,503,c),
(837,467,l),
(500,467,l),
(500,531,l),
(200,531,l),
(200,467,l),
(15,467,l),
(15,267,l),
(965,267,l),
(965,467,l),
(904,467,l)
);
},
{
closed = 1;
nodes = (
(927,88,o),
(853,36,o),
(548,25,c),
(548,45,l),
(829,56,o),
(933,108,o),
(933,121,cs),
(933,242,l),
(44,242,l),
(44,122,l),
(445,122,l),
(445,102,l),
(44,102,l),
(44,-105,ls),
(44,-214,o),
(938,-188,o),
(965,-124,c),
(936,90,l),
(934,92,l)
);
}
);
width = 980;
}
);
unicode = 44264;
},
{
glyphname = "golm-ko";
lastChange = "2022-05-01 03:02:20 +0000";
layers = (
{
layerId = "75B71696-F68C-493E-998D-CC33CA41914E";
shapes = (
{
closed = 1;
nodes = (
(930,500,o),
(925,619,o),
(925,801,c),
(45,801,l),
(45,561,l),
(625,561,l),
(625,528,o),
(614,502,o),
(604,473,c),
(845,436,l),
(500,436,l),
(500,521,l),
(200,521,l),
(200,436,l),
(15,436,l),
(15,236,l),
(965,236,l),
(965,436,l),
(907,436,l)
);
},
{
closed = 1;
nodes = (
(476,50,l),
(466,43,o),
(413,6,o),
(305,11,c),
(305,31,l),
(413,26,o),
(477,72,o),
(477,77,cs),
(477,211,l),
(36,211,l),
(36,91,l),
(226,91,l),
(226,71,l),
(36,71,l),
(39,-120,l),
(48,-193,o),
(407,-193,o),
(509,-160,c),
(945,-160,l),
(945,211,l),
(509,211,l),
(509,-69,l),
(477,49,l)
);
},
{
closed = 1;
nodes = (
(734,-20,l),
(714,-20,l),
(714,100,l),
(734,100,l)
);
}
);
width = 980;
}
);
unicode = 44266;
},
{
glyphname = "gols-ko";
lastChange = "2022-05-01 03:02:20 +0000";
layers = (
{
layerId = "75B71696-F68C-493E-998D-CC33CA41914E";
shapes = (
{
closed = 1;
nodes = (
(930,500,o),
(925,619,o),
(925,801,c),
(45,801,l),
(45,561,l),
(625,561,l),
(625,528,o),
(614,502,o),
(604,473,c),
(845,436,l),
(500,436,l),
(500,521,l),
(200,521,l),
(200,436,l),
(15,436,l),
(15,236,l),
(965,236,l),
(965,436,l),
(907,436,l)
);
},
{
closed = 1;
nodes = (
(451,42,o),
(394,5,o),
(291,10,c),
(291,30,l),
(394,25,o),
(462,71,o),
(462,76,cs),
(462,211,l),
(36,211,l),
(36,91,l),
(222,91,l),
(222,71,l),
(36,71,l),
(40,-121,l),
(49,-199,o),
(450,-191,o),
(514,-141,c),
(462,48,l),
(461,49,l)
);
},
{
closed = 1;
nodes = (
(588,131,o),
(559,82,o),
(483,55,c),
(539,-150,l),
(624,-136,o),
(689,-106,o),
(737,-67,c),
(723,-131,l),
(797,-132,o),
(852,-141,o),
(910,-159,c),
(962,69,l),
(926,83,o),
(886,92,o),
(837,95,c),
(846,132,o),
(849,171,o),
(847,211,c),
(587,211,l)
);
}
);
width = 981;
}
);
unicode = 44268;
},
{
glyphname = "golh-ko";
lastChange = "2022-05-01 03:02:20 +0000";
layers = (
{
layerId = "75B71696-F68C-493E-998D-CC33CA41914E";
shapes = (
{
closed = 1;
nodes = (
(930,510,o),
(925,627,o),
(925,800,c),
(45,800,l),
(45,560,l),
(625,560,l),
(625,533,o),
(614,508,o),
(604,483,c),
(845,446,l),
(500,446,l),
(500,525,l),
(200,525,l),
(200,446,l),
(15,446,l),
(15,246,l),
(965,246,l),
(965,446,l),
(907,446,l)
);
},
{
closed = 1;
nodes = (
(591,196,l),
(501,196,l),
(501,62,l),
(541,62,l),
(518,48,o),
(502,22,o),
(502,-25,cs),
(502,-34,l),
(476,39,l),
(475,40,l),
(465,33,o),
(412,-4,o),
(304,1,c),
(304,21,l),
(412,16,o),
(476,62,o),
(476,67,cs),
(476,216,l),
(35,216,l),
(35,96,l),
(225,96,l),
(225,76,l),
(35,76,l),
(38,-120,l),
(48,-200,o),
(484,-182,o),
(540,-140,c),
(557,-152,o),
(581,-160,o),
(617,-160,cs),
(797,-160,ls),
(934,-161,o),
(945,-93,o),
(945,-25,cs),
(945,21,o),
(927,48,o),
(902,62,c),
(946,62,l),
(946,196,l),
(851,196,l),
(851,226,l),
(591,226,l)
);
},
{
closed = 1;
nodes = (
(647,-19,o),
(642,-19,o),
(642,-9,cs),
(642,1,o),
(647,1,o),
(652,1,cs),
(785,1,ls),
(789,1,o),
(795,1,o),
(795,-9,cs),
(795,-19,o),
(789,-19,o),
(785,-19,cs),
(652,-19,ls)
);
}
);
width = 980;
}
);
unicode = 44271;
},
{
glyphname = "gom-ko";
lastChange = "2022-05-01 03:02:20 +0000";
layers = (
{
layerId = "75B71696-F68C-493E-998D-CC33CA41914E";
shapes = (
{
closed = 1;
nodes = (
(929,492,o),
(925,613,o),
(925,800,c),
(45,800,l),
(45,560,l),
(625,560,l),
(625,532,o),
(616,507,o),
(606,471,c),
(831,426,l),
(500,426,l),
(500,510,l),
(200,510,l),
(200,426,l),
(15,426,l),
(15,226,l),
(965,226,l),
(965,426,l),
(907,426,l)
);
},
{
closed = 1;
nodes = (
(935,201,l),
(45,201,l),
(45,-161,l),
(935,-161,l)
);
},
{
closed = 1;
nodes = (
(645,40,l),
(335,40,l),
(335,60,l),
(645,60,l)
);
}
);
width = 980;
}
);
unicode = 44272;
},
{
glyphname = "gob-ko";
lastChange = "2022-05-01 03:02:20 +0000";
layers = (
{
layerId = "75B71696-F68C-493E-998D-CC33CA41914E";
shapes = (
{
closed = 1;
nodes = (
(929,504,o),
(925,622,o),
(925,801,c),
(45,801,l),
(45,561,l),
(625,561,l),
(625,528,o),
(614,502,o),
(604,473,c),
(825,439,l),
(500,439,l),
(500,521,l),
(200,521,l),
(200,439,l),
(15,439,l),
(15,239,l),
(965,239,l),
(965,439,l),
(908,439,l)
);
},
{
closed = 1;
nodes = (
(340,214,l),
(40,214,l),
(40,-160,l),
(940,-160,l),
(940,214,l),
(640,214,l),
(640,169,l),
(340,169,l)
);
},
{
closed = 1;
nodes = (
(640,54,l),
(640,15,l),
(340,15,l),
(340,54,l)
);
}
);
width = 980;
}
);
unicode = 44273;
},
{
glyphname = "gos-ko";
lastChange = "2022-05-01 03:02:20 +0000";
layers = (
{
layerId = "75B71696-F68C-493E-998D-CC33CA41914E";
shapes = (
{
closed = 1;
nodes = (
(929,480,o),
(925,603,o),
(925,800,c),
(45,800,l),
(45,560,l),
(625,560,l),
(625,522,o),
(616,496,o),
(606,460,c),
(836,414,l),
(500,414,l),
(500,510,l),
(200,510,l),
(200,414,l),
(15,414,l),
(15,214,l),
(965,214,l),
(965,414,l),
(906,414,l)
);
},
{
closed = 1;
nodes = (
(315,129,o),
(139,108,o),
(25,103,c),
(54,-160,l),
(244,-162,o),
(415,-100,o),
(524,-16,c),
(508,-124,l),
(702,-124,o),
(873,-152,o),
(919,-170,c),
(965,88,l),
(914,107,o),
(784,123,o),
(637,128,c),
(644,149,o),
(647,169,o),
(646,189,c),
(336,189,l)
);
}
);
width = 980;
}
);
unicode = 44275;
},
{
glyphname = "gong-ko";
lastChange = "2022-05-01 03:02:20 +0000";
layers = (
{
layerId = "75B71696-F68C-493E-998D-CC33CA41914E";
shapes = (
{
closed = 1;
nodes = (
(929,494,o),
(925,605,o),
(925,800,c),
(45,800,l),
(45,560,l),
(625,560,l),
(625,532,o),
(616,504,o),
(606,473,c),
(826,429,l),
(500,429,l),
(500,512,l),
(200,512,l),
(200,429,l),
(15,429,l),
(15,229,l),
(965,229,l),
(965,429,l),
(907,429,l)
);
},
{
closed = 1;
nodes = (
(96,208,o),
(19,119,o),
(19,26,cs),
(19,-89,o),
(95,-171,o),
(206,-171,cs),
(776,-171,ls),
(889,-171,o),
(962,-91,o),
(962,26,cs),
(962,119,o),
(897,208,o),
(776,208,cs),
(206,208,ls)
);
},
{
closed = 1;
nodes = (
(313,35,o),
(308,35,o),
(308,45,cs),
(308,55,o),
(313,55,o),
(318,55,cs),
(662,55,ls),
(666,55,o),
(672,55,o),
(672,45,cs),
(672,35,o),
(666,35,o),
(662,35,cs),
(318,35,ls)
);
}
);
width = 980;
}
);
unicode = 44277;
},
{
glyphname = "goj-ko";
lastChange = "2022-05-01 03:02:20 +0000";
layers = (
{
layerId = "75B71696-F68C-493E-998D-CC33CA41914E";
shapes = (
{
closed = 1;
nodes = (
(929,515,o),
(925,612,o),
(925,800,c),
(45,800,l),
(45,560,l),
(625,560,l),
(625,539,o),
(618,516,o),
(608,487,c),
(823,452,l),
(500,452,l),
(500,524,l),
(200,524,l),
(200,452,l),
(15,452,l),
(15,252,l),
(965,252,l),
(965,452,l),
(908,452,l)
);
},
{
closed = 1;
nodes = (
(928,227,l),
(43,227,l),
(43,92,l),
(277,92,l),
(207,64,o),
(110,60,o),
(33,59,c),
(61,-166,l),
(258,-166,o),
(423,-125,o),
(527,-49,c),
(516,-131,l),
(710,-126,o),
(861,-148,o),
(907,-160,c),
(943,45,l),
(891,59,o),
(773,71,o),
(627,71,c),
(630,78,o),
(633,85,o),
(635,92,c),
(928,92,l)
);
}
);
width = 980;
}
);
unicode = 44278;
},
{
glyphname = "got-ko";
lastChange = "2022-05-01 03:02:20 +0000";
layers = (
{
layerId = "75B71696-F68C-493E-998D-CC33CA41914E";
shapes = (
{
closed = 1;
nodes = (
(924,517,o),
(925,609,o),
(925,800,c),
(45,800,l),
(45,560,l),
(625,560,l),
(624,542,o),
(617,514,o),
(608,492,c),
(843,455,l),
(500,455,l),
(500,531,l),
(200,531,l),
(200,455,l),
(15,455,l),
(15,255,l),
(965,255,l),
(965,455,l),
(903,455,l)
);
},
{
closed = 1;
nodes = (
(924,105,l),
(345,105,l),
(345,130,l),
(934,130,l),
(935,230,l),
(45,230,l),
(45,-160,l),
(944,-160,l),
(944,-10,l),
(345,-10,l),
(345,15,l),
(923,15,l)
);
}
);
width = 980;
}
);
unicode = 44281;
},
{
glyphname = "gwa-ko";
lastChange = "2022-05-01 03:02:20 +0000";
layers = (
{
layerId = "75B71696-F68C-493E-998D-CC33CA41914E";
shapes = (
{
closed = 1;
nodes = (
(910,800,l),
(610,800,l),
(610,4,l),
(575,170,l),
(518,154,o),
(444,147,o),
(355,144,c),
(355,264,l),
(544,226,l),
(573,318,o),
(580,392,o),
(580,757,c),
(30,757,l),
(30,497,l),
(310,497,l),
(310,449,o),
(310,408,o),
(292,341,c),
(85,341,l),
(85,144,l),
(10,144,l),
(10,-116,l),
(276,-116,o),
(507,-113,o),
(610,-87,c),
(610,-160,l),
(910,-160,l),
(910,227,l),
(970,227,l),
(970,537,l),
(910,537,l)
);
}
);
width = 980;
}
);
unicode = 44284;
},
{
glyphname = "gwag-ko";
lastChange = "2022-05-01 03:02:20 +0000";
layers = (
{
layerId = "75B71696-F68C-493E-998D-CC33CA41914E";
shapes = (
{
closed = 1;
nodes = (
(910,800,l),
(610,800,l),
(610,246,l),
(580,397,l),
(542,389,o),
(462,385,o),
(360,383,c),
(360,445,l),
(554,413,l),
(583,505,o),
(580,549,o),
(580,784,c),
(30,784,l),
(30,554,l),
(310,554,l),
(310,534,o),
(307,515,o),
(300,494,c),
(90,494,l),
(90,381,l),
(10,381,l),
(10,181,l),
(284,181,o),
(529,183,o),
(610,199,c),
(610,175,l),
(910,175,l),
(910,352,l),
(970,352,l),
(970,642,l),
(910,642,l)
);
},
{
closed = 1;
nodes = (
(600,-160,l),
(910,-160,l),
(910,151,l),
(30,151,l),
(30,-114,l),
(600,-114,l)
);
}
);
width = 980;
}
);
unicode = 44285;
},
{
glyphname = "gwan-ko";
lastChange = "2022-05-01 03:02:20 +0000";
layers = (
{
layerId = "75B71696-F68C-493E-998D-CC33CA41914E";
shapes = (
{
closed = 1;
nodes = (
(610,800,l),
(610,246,l),
(580,397,l),
(542,389,o),
(462,385,o),
(360,383,c),
(360,445,l),
(554,413,l),
(583,505,o),
(580,549,o),
(580,784,c),
(30,784,l),
(30,554,l),
(310,554,l),
(310,534,o),
(307,515,o),
(300,494,c),
(90,494,l),
(90,381,l),
(10,381,l),
(10,181,l),
(284,181,o),
(529,183,o),
(610,199,c),
(610,125,l),
(910,125,l),
(910,332,l),
(970,332,l),
(970,622,l),
(910,622,l),
(910,800,l)
);
},
{
closed = 1;
nodes = (
(30,-160,l),
(920,-160,l),
(920,95,l),
(350,95,l),
(350,155,l),
(30,155,l)
);
}
);
width = 980;
}
);
unicode = 44288;
},
{
glyphname = "gwal-ko";
lastChange = "2022-10-11 15:09:21 +0000";
layers = (
{
layerId = "75B71696-F68C-493E-998D-CC33CA41914E";
shapes = (
{
closed = 1;
nodes = (
(610,800,l),
(610,326,l),
(580,477,l),
(544,469,o),
(467,465,o),
(370,464,c),
(370,513,l),
(554,489,l),
(575,550,o),
(575,605,o),
(575,795,c),
(35,795,l),
(35,575,l),
(315,575,l),
(315,563,o),
(310,548,o),
(303,534,c),
(100,534,l),
(100,463,l),
(10,463,l),
(10,263,l),
(286,263,o),
(529,263,o),
(610,279,c),
(610,254,l),
(910,254,l),
(910,398,l),
(970,398,l),
(970,688,l),
(910,688,l),
(910,800,l)
);
},
{
closed = 1;
nodes = (
(904,98,o),
(828,38,o),
(515,25,c),
(515,45,l),
(803,57,o),
(910,118,o),
(910,131,cs),
(910,234,l),
(25,234,l),
(25,114,l),
(426,114,l),
(426,94,l),
(25,94,l),
(25,-105,ls),
(25,-214,o),
(915,-188,o),
(942,-124,c),
(913,100,l),
(911,102,l)
);
}
);
width = 980;
}
);
unicode = 44292;
},
{
glyphname = "gwalm-ko";
lastChange = "2022-05-01 03:02:20 +0000";
layers = (
{
layerId = "75B71696-F68C-493E-998D-CC33CA41914E";
shapes = (
{
closed = 1;
nodes = (
(610,800,l),
(610,325,l),
(580,476,l),
(544,468,o),
(467,464,o),
(370,462,c),
(370,517,l),
(554,493,l),
(579,565,o),
(575,605,o),
(575,795,c),
(35,795,l),
(35,575,l),
(315,575,l),
(315,562,o),
(306,544,o),
(299,530,c),
(100,530,l),
(100,460,l),
(10,460,l),
(10,260,l),
(285,260,o),
(529,262,o),
(610,278,c),
(610,240,l),
(910,240,l),
(910,383,l),
(970,383,l),
(970,673,l),
(910,673,l),
(910,800,l)
);
},
{
closed = 1;
nodes = (
(460,65,l),
(450,58,o),
(397,21,o),
(289,26,c),
(289,46,l),
(407,41,o),
(461,87,o),
(461,92,cs),
(461,236,l),
(20,236,l),
(20,91,l),
(200,91,l),
(200,71,l),
(20,71,l),
(23,-110,ls),
(23,-191,o),
(377,-199,o),
(495,-160,c),
(917,-160,l),
(917,216,l),
(493,216,l),
(493,-41,l),
(461,64,l)
);
},
{
closed = 1;
nodes = (
(710,-22,l),
(690,-22,l),
(690,88,l),
(710,88,l)
);
}
);
width = 980;
}
);
unicode = 44294;
},
{
glyphname = "gwam-ko";
lastChange = "2022-05-01 03:02:20 +0000";
layers = (
{
layerId = "75B71696-F68C-493E-998D-CC33CA41914E";
shapes = (
{
closed = 1;
nodes = (
(910,800,l),
(610,800,l),
(610,299,l),
(580,448,l),
(542,437,o),
(462,431,o),
(360,427,c),
(360,492,l),
(554,463,l),
(583,555,o),
(580,609,o),
(580,794,c),
(30,794,l),
(30,564,l),
(310,564,l),
(310,549,o),
(305,530,o),
(298,514,c),
(90,514,l),
(90,424,l),
(10,424,l),
(10,224,l),
(282,224,o),
(527,221,o),
(610,246,c),
(610,218,l),
(910,218,l),
(910,376,l),
(970,376,l),
(970,666,l),
(910,666,l)
);
},
{
closed = 1;
nodes = (
(910,194,l),
(30,194,l),
(30,-160,l),
(910,-160,l)
);
},
{
closed = 1;
nodes = (
(610,21,l),
(330,21,l),
(330,41,l),
(610,41,l)
);
}
);
width = 980;
}
);
unicode = 44300;
},
{
glyphname = "gwab-ko";
lastChange = "2022-05-01 03:02:20 +0000";
layers = (
{
layerId = "75B71696-F68C-493E-998D-CC33CA41914E";
shapes = (
{
closed = 1;
nodes = (
(910,800,l),
(610,800,l),
(610,321,l),
(580,472,l),
(545,465,o),
(473,460,o),
(380,458,c),
(380,512,l),
(554,489,l),
(579,561,o),
(575,605,o),
(575,795,c),
(35,795,l),
(35,575,l),
(315,575,l),
(315,561,o),
(309,545,o),
(301,530,c),
(110,530,l),
(110,456,l),
(10,456,l),
(10,256,l),
(285,256,o),
(529,258,o),
(610,274,c),
(610,244,l),
(910,244,l),
(910,383,l),
(970,383,l),
(970,673,l),
(910,673,l)
);
},
{
closed = 1;
nodes = (
(345,230,l),
(35,230,l),
(35,-160,l),
(910,-160,l),
(910,220,l),
(600,220,l),
(600,176,l),
(345,176,l)
);
},
{
closed = 1;
nodes = (
(600,36,l),
(600,0,l),
(345,0,l),
(345,36,l)
);
}
);
width = 980;
}
);
unicode = 44301;
},
{
glyphname = "gwas-ko";
lastChange = "2022-05-01 03:02:20 +0000";
layers = (
{
layerId = "75B71696-F68C-493E-998D-CC33CA41914E";
shapes = (
{
closed = 1;
nodes = (
(970,666,l),
(910,666,l),
(910,800,l),
(610,800,l),
(610,297,l),
(580,446,l),
(542,435,o),
(462,429,o),
(360,425,c),
(360,492,l),
(554,463,l),
(583,555,o),
(580,609,o),
(580,794,c),
(30,794,l),
(30,564,l),
(310,564,l),
(310,549,o),
(305,530,o),
(298,514,c),
(90,514,l),
(90,422,l),
(10,422,l),
(10,222,l),
(282,222,o),
(527,219,o),
(610,244,c),
(610,199,l),
(336,199,l),
(308,114,o),
(138,99,o),
(20,98,c),
(49,-160,l),
(243,-161,o),
(407,-109,o),
(514,-31,c),
(503,-108,l),
(675,-105,o),
(821,-125,o),
(904,-160,c),
(950,96,l),
(883,121,o),
(774,137,o),
(641,142,c),
(645,159,o),
(647,176,o),
(646,193,c),
(910,193,l),
(910,376,l),
(970,376,l)
);
}
);
width = 980;
}
);
unicode = 44303;
},
{
glyphname = "gwass-ko";
lastChange = "2022-05-01 03:02:20 +0000";
layers = (
{
layerId = "75B71696-F68C-493E-998D-CC33CA41914E";
shapes = (
{
closed = 1;
nodes = (
(610,800,l),
(610,311,l),
(580,462,l),
(545,455,o),
(473,450,o),
(380,448,c),
(380,502,l),
(554,479,l),
(579,551,o),
(575,595,o),
(575,785,c),
(35,785,l),
(35,565,l),
(315,565,l),
(315,551,o),
(309,535,o),
(301,520,c),
(110,520,l),
(110,446,l),
(10,446,l),
(10,246,l),
(285,246,o),
(529,248,o),
(610,264,c),
(610,226,l),
(910,226,l),
(910,383,l),
(970,383,l),
(970,673,l),
(910,673,l),
(910,800,l)
);
},
{
closed = 1;
nodes = (
(492,176,o),
(483,132,o),
(464,95,c),
(446,102,l),
(463,144,o),
(471,173,o),
(471,224,c),
(171,224,l),
(170,173,o),
(113,98,o),
(20,86,c),
(102,-177,l),
(191,-161,o),
(300,-112,o),
(339,-81,c),
(383,-177,l),
(512,-153,o),
(608,-109,o),
(676,-55,c),
(656,-137,l),
(746,-137,o),
(843,-152,o),
(900,-177,c),
(962,108,l),
(928,128,o),
(867,140,o),
(798,142,c),
(801,162,o),
(802,182,o),
(801,201,c),
(491,201,l)
);
}
);
width = 980;
}
);
unicode = 44304;
},
{
glyphname = "gwang-ko";
lastChange = "2022-05-01 03:02:20 +0000";
layers = (
{
layerId = "75B71696-F68C-493E-998D-CC33CA41914E";
shapes = (
{
closed = 1;
nodes = (
(970,660,l),
(910,660,l),
(910,800,l),
(610,800,l),
(610,308,l),
(580,457,l),
(542,446,o),
(462,440,o),
(360,436,c),
(360,501,l),
(554,472,l),
(583,564,o),
(580,618,o),
(580,793,c),
(30,793,l),
(30,563,l),
(310,563,l),
(310,552,o),
(307,537,o),
(301,523,c),
(90,523,l),
(90,433,l),
(10,433,l),
(10,233,l),
(282,233,o),
(527,230,o),
(610,255,c),
(610,206,l),
(217,206,ls),
(107,205,o),
(20,122,o),
(20,19,cs),
(20,-94,o),
(106,-170,o),
(217,-170,cs),
(734,-170,ls),
(847,-171,o),
(930,-96,o),
(930,19,cs),
(930,105,o),
(877,181,o),
(787,201,c),
(910,201,l),
(910,370,l),
(970,370,l)
);
},
{
closed = 1;
nodes = (
(295,28,o),
(290,28,o),
(290,38,cs),
(290,48,o),
(295,48,o),
(300,48,cs),
(651,48,ls),
(655,48,o),
(661,48,o),
(661,38,cs),
(661,28,o),
(655,28,o),
(651,28,cs),
(300,28,ls)
);
}
);
width = 980;
}
);
unicode = 44305;
},
{
glyphname = "gwaj-ko";
lastChange = "2022-05-01 03:02:20 +0000";
layers = (
{
layerId = "75B71696-F68C-493E-998D-CC33CA41914E";
shapes = (
{
closed = 1;
nodes = (
(610,800,l),
(610,311,l),
(580,456,l),
(542,445,o),
(462,439,o),
(360,435,c),
(360,502,l),
(554,473,l),
(583,565,o),
(580,619,o),
(580,794,c),
(30,794,l),
(30,574,l),
(310,574,l),
(310,559,o),
(305,540,o),
(298,524,c),
(90,524,l),
(90,432,l),
(10,432,l),
(10,237,l),
(282,237,o),
(527,234,o),
(610,259,c),
(610,232,l),
(910,232,l),
(910,376,l),
(970,376,l),
(970,666,l),
(910,666,l),
(910,800,l)
);
},
{
closed = 1;
nodes = (
(910,207,l),
(25,207,l),
(25,82,l),
(259,82,l),
(189,54,o),
(92,50,o),
(15,49,c),
(43,-166,l),
(240,-166,o),
(406,-122,o),
(510,-46,c),
(498,-131,l),
(692,-126,o),
(843,-148,o),
(889,-160,c),
(925,35,l),
(872,49,o),
(752,61,o),
(605,61,c),
(609,68,o),
(612,75,o),
(615,82,c),
(910,82,l)
);
}
);
width = 980;
}
);
unicode = 44306;
},
{
glyphname = "gwae-ko";
lastChange = "2022-05-01 03:02:20 +0000";
layers = (
{
layerId = "75B71696-F68C-493E-998D-CC33CA41914E";
shapes = (
{
closed = 1;
nodes = (
(725,515,l),
(725,790,l),
(535,790,l),
(535,6,l),
(495,196,l),
(452,184,o),
(398,177,o),
(340,173,c),
(340,258,l),
(465,233,l),
(490,315,o),
(501,389,o),
(501,757,c),
(31,757,l),
(31,497,l),
(231,497,l),
(231,434,o),
(227,389,o),
(212,336,c),
(90,336,l),
(90,169,l),
(63,170,o),
(36,170,o),
(10,170,c),
(10,-90,l),
(204,-90,o),
(435,-87,o),
(535,-60,c),
(535,-140,l),
(725,-140,l),
(725,205,l),
(760,205,l),
(760,-160,l),
(960,-160,l),
(960,800,l),
(760,800,l),
(760,515,l)
);
}
);
width = 980;
}
);
unicode = 44312;
},
{
glyphname = "gwaen-ko";
lastChange = "2022-05-01 03:02:20 +0000";
layers = (
{
layerId = "75B71696-F68C-493E-998D-CC33CA41914E";
shapes = (
{
closed = 1;
nodes = (
(725,360,l),
(760,360,l),
(760,140,l),
(960,140,l),
(960,800,l),
(760,800,l),
(760,630,l),
(725,630,l),
(725,790,l),
(535,790,l),
(535,261,l),
(507,402,l),
(470,394,o),
(396,390,o),
(307,388,c),
(307,445,l),
(481,413,l),
(510,505,o),
(507,549,o),
(507,779,c),
(32,779,l),
(32,549,l),
(267,549,l),
(267,531,o),
(264,516,o),
(259,499,c),
(67,499,l),
(67,386,l),
(10,386,l),
(10,186,l),
(224,186,o),
(453,188,o),
(535,204,c),
(535,160,l),
(725,160,l)
);
},
{
closed = 1;
nodes = (
(50,161,l),
(50,-160,l),
(970,-160,l),
(970,105,l),
(370,105,l),
(370,161,l)
);
}
);
width = 980;
}
);
unicode = 44316;
},
{
glyphname = "gwael-ko";
lastChange = "2022-10-11 15:10:53 +0000";
layers = (
{
layerId = "75B71696-F68C-493E-998D-CC33CA41914E";
shapes = (
{
closed = 1;
nodes = (
(709,390,l),
(744,390,l),
(744,256,l),
(944,256,l),
(944,800,l),
(744,800,l),
(744,660,l),
(709,660,l),
(709,790,l),
(519,790,l),
(519,339,l),
(491,480,l),
(455,472,o),
(385,468,o),
(301,465,c),
(301,516,l),
(465,490,l),
(491,551,o),
(491,580,o),
(491,780,c),
(21,780,l),
(21,560,l),
(261,560,l),
(260,550,o),
(257,540,o),
(250,528,c),
(61,528,l),
(61,464,l),
(6,464,l),
(6,264,l),
(220,264,o),
(438,267,o),
(519,282,c),
(519,256,l),
(709,256,l)
);
},
{
closed = 1;
nodes = (
(938,98,o),
(862,38,o),
(549,25,c),
(549,45,l),
(837,57,o),
(944,118,o),
(944,131,cs),
(944,234,l),
(35,234,l),
(35,114,l),
(436,114,l),
(436,94,l),
(35,94,l),
(35,-105,ls),
(35,-214,o),
(949,-188,o),
(976,-124,c),
(947,100,l),
(945,102,l)
);
}
);
width = 980;
}
);
unicode = 44320;
},
{
glyphname = "gwaelm-ko";
lastChange = "2022-05-01 03:02:20 +0000";
layers = (
{
layerId = "75B71696-F68C-493E-998D-CC33CA41914E";
shapes = (
{
closed = 1;
nodes = (
(730,660,l),
(730,790,l),
(540,790,l),
(540,343,l),
(512,484,l),
(476,476,o),
(401,472,o),
(312,470,c),
(312,520,l),
(486,496,l),
(509,553,o),
(512,597,o),
(512,780,c),
(32,780,l),
(32,565,l),
(272,565,l),
(271,554,o),
(268,544,o),
(262,534,c),
(72,534,l),
(72,470,l),
(10,470,l),
(10,270,l),
(224,270,o),
(458,271,o),
(540,286,c),
(540,250,l),
(730,250,l),
(730,390,l),
(765,390,l),
(765,250,l),
(965,250,l),
(965,800,l),
(765,800,l),
(765,660,l)
);
},
{
closed = 1;
nodes = (
(492,65,l),
(482,58,o),
(427,21,o),
(319,26,c),
(319,46,l),
(437,41,o),
(493,87,o),
(493,92,cs),
(493,246,l),
(32,246,l),
(32,101,l),
(218,101,l),
(218,81,l),
(32,81,l),
(35,-110,ls),
(35,-191,o),
(405,-199,o),
(526,-160,c),
(965,-160,l),
(965,226,l),
(525,226,l),
(525,-41,l),
(493,64,l)
);
},
{
closed = 1;
nodes = (
(750,-22,l),
(730,-22,l),
(730,98,l),
(750,98,l)
);
}
);
width = 980;
}
);
unicode = 44322;
},
{
glyphname = "gwaeb-ko";
lastChange = "2022-05-01 03:02:20 +0000";
layers = (
{
layerId = "75B71696-F68C-493E-998D-CC33CA41914E";
shapes = (
{
closed = 1;
nodes = (
(730,660,l),
(730,790,l),
(540,790,l),
(540,329,l),
(512,470,l),
(476,462,o),
(401,457,o),
(312,455,c),
(312,512,l),
(486,481,l),
(509,538,o),
(512,580,o),
(512,780,c),
(32,780,l),
(32,560,l),
(272,560,l),
(271,549,o),
(267,538,o),
(259,525,c),
(72,525,l),
(72,454,l),
(10,454,l),
(10,254,l),
(224,254,o),
(458,257,o),
(540,272,c),
(540,244,l),
(730,244,l),
(730,390,l),
(765,390,l),
(765,244,l),
(965,244,l),
(965,800,l),
(765,800,l),
(765,660,l)
);
},
{
closed = 1;
nodes = (
(350,230,l),
(40,230,l),
(40,-160,l),
(961,-160,l),
(961,220,l),
(651,220,l),
(651,186,l),
(350,186,l)
);
},
{
closed = 1;
nodes = (
(651,46,l),
(651,10,l),
(350,10,l),
(350,46,l)
);
}
);
width = 980;
}
);
unicode = 44329;
},
{
glyphname = "gwaess-ko";
lastChange = "2022-05-01 03:02:20 +0000";
layers = (
{
layerId = "75B71696-F68C-493E-998D-CC33CA41914E";
shapes = (
{
closed = 1;
nodes = (
(801,161,o),
(802,175,o),
(801,190,c),
(965,190,l),
(965,800,l),
(765,800,l),
(765,645,l),
(730,645,l),
(730,790,l),
(540,790,l),
(540,316,l),
(512,457,l),
(476,449,o),
(401,444,o),
(312,442,c),
(312,502,l),
(486,471,l),
(513,537,o),
(512,570,o),
(512,780,c),
(32,780,l),
(32,560,l),
(272,560,l),
(272,551,o),
(268,534,o),
(260,520,c),
(72,520,l),
(72,441,l),
(10,441,l),
(10,241,l),
(224,241,o),
(458,244,o),
(540,259,c),
(540,220,l),
(730,220,l),
(730,375,l),
(765,375,l),
(765,195,l),
(481,195,l),
(480,170,o),
(470,126,o),
(454,99,c),
(436,106,l),
(453,148,o),
(461,173,o),
(461,218,c),
(151,218,l),
(150,167,o),
(93,102,o),
(10,90,c),
(92,-167,l),
(181,-151,o),
(290,-102,o),
(329,-71,c),
(383,-167,l),
(510,-143,o),
(605,-103,o),
(672,-54,c),
(654,-127,l),
(744,-127,o),
(851,-142,o),
(908,-167,c),
(970,112,l),
(936,132,o),
(871,144,o),
(800,146,c)
);
}
);
width = 980;
}
);
unicode = 44332;
},
{
glyphname = "gwaeng-ko";
lastChange = "2022-05-01 03:02:20 +0000";
layers = (
{
layerId = "75B71696-F68C-493E-998D-CC33CA41914E";
shapes = (
{
closed = 1;
nodes = (
(765,650,l),
(730,650,l),
(730,790,l),
(540,790,l),
(540,311,l),
(512,452,l),
(476,444,o),
(401,440,o),
(312,437,c),
(312,497,l),
(486,466,l),
(513,532,o),
(512,569,o),
(512,779,c),
(32,779,l),
(32,559,l),
(272,559,l),
(272,550,o),
(267,534,o),
(260,519,c),
(72,519,l),
(72,436,l),
(10,436,l),
(10,236,l),
(224,236,o),
(458,239,o),
(540,254,c),
(540,227,l),
(730,227,l),
(730,380,l),
(765,380,l),
(765,204,l),
(222,204,ls),
(112,203,o),
(25,131,o),
(25,18,cs),
(25,-105,o),
(111,-170,o),
(222,-170,cs),
(769,-170,ls),
(882,-171,o),
(965,-106,o),
(965,18,cs),
(965,103,o),
(922,168,o),
(848,193,c),
(965,193,l),
(965,800,l),
(765,800,l)
);
},
{
closed = 1;
nodes = (
(300,27,o),
(295,27,o),
(295,37,cs),
(295,47,o),
(300,47,o),
(305,47,cs),
(686,47,ls),
(690,47,o),
(696,47,o),
(696,37,cs),
(696,27,o),
(690,27,o),
(686,27,cs),
(305,27,ls)
);
}
);
width = 980;
}
);
unicode = 44333;
},
{
glyphname = "goe-ko";
lastChange = "2022-05-01 03:02:20 +0000";
layers = (
{
layerId = "75B71696-F68C-493E-998D-CC33CA41914E";
shapes = (
{
closed = 1;
nodes = (
(615,170,l),
(558,154,o),
(483,147,o),
(391,144,c),
(391,264,l),
(580,226,l),
(609,318,o),
(616,392,o),
(616,757,c),
(51,757,l),
(51,497,l),
(346,497,l),
(346,449,o),
(346,408,o),
(328,341,c),
(121,341,l),
(121,143,l),
(89,144,o),
(55,144,o),
(20,144,c),
(20,-116,l),
(314,-116,o),
(547,-113,o),
(650,-87,c),
(650,-160,l),
(950,-160,l),
(950,800,l),
(650,800,l),
(650,4,l)
);
}
);
width = 980;
}
);
unicode = 44340;
},
{
glyphname = "goeg-ko";
lastChange = "2022-05-01 03:02:20 +0000";
layers = (
{
layerId = "75B71696-F68C-493E-998D-CC33CA41914E";
shapes = (
{
closed = 1;
nodes = (
(620,397,l),
(582,389,o),
(501,385,o),
(395,383,c),
(395,445,l),
(589,413,l),
(618,505,o),
(615,549,o),
(615,784,c),
(55,784,l),
(55,554,l),
(345,554,l),
(345,534,o),
(342,515,o),
(335,494,c),
(125,494,l),
(125,381,l),
(20,381,l),
(20,181,l),
(323,181,o),
(569,183,o),
(650,199,c),
(650,175,l),
(950,175,l),
(950,800,l),
(650,800,l),
(650,246,l)
);
},
{
closed = 1;
nodes = (
(640,-160,l),
(950,-160,l),
(950,151,l),
(50,151,l),
(50,-114,l),
(640,-114,l)
);
}
);
width = 980;
}
);
unicode = 44341;
},
{
glyphname = "goen-ko";
lastChange = "2022-05-01 03:02:20 +0000";
layers = (
{
layerId = "75B71696-F68C-493E-998D-CC33CA41914E";
shapes = (
{
closed = 1;
nodes = (
(950,800,l),
(650,800,l),
(650,246,l),
(620,397,l),
(582,389,o),
(501,385,o),
(395,383,c),
(395,445,l),
(589,413,l),
(618,505,o),
(615,549,o),
(615,784,c),
(55,784,l),
(55,554,l),
(345,554,l),
(345,534,o),
(342,515,o),
(335,494,c),
(125,494,l),
(125,381,l),
(20,381,l),
(20,181,l),
(323,181,o),
(569,183,o),
(650,199,c),
(650,125,l),
(950,125,l)
);
},
{
closed = 1;
nodes = (
(50,155,l),
(50,-160,l),
(960,-160,l),
(960,95,l),
(370,95,l),
(370,155,l)
);
}
);
width = 980;
}
);
unicode = 44344;
},
{
glyphname = "goel-ko";
lastChange = "2022-10-11 15:11:28 +0000";
layers = (
{
layerId = "75B71696-F68C-493E-998D-CC33CA41914E";
shapes = (
{
closed = 1;
nodes = (
(940,800,l),
(640,800,l),
(640,326,l),
(610,477,l),
(574,469,o),
(497,465,o),
(395,464,c),
(395,513,l),
(579,489,l),
(604,561,o),
(600,605,o),
(600,795,c),
(40,795,l),
(40,575,l),
(340,575,l),
(340,563,o),
(335,548,o),
(328,534,c),
(125,534,l),
(125,463,l),
(10,463,l),
(10,263,l),
(315,263,o),
(559,263,o),
(640,279,c),
(640,254,l),
(940,254,l)
);
},
{
closed = 1;
nodes = (
(934,98,o),
(858,38,o),
(544,25,c),
(544,45,l),
(833,57,o),
(940,118,o),
(940,131,cs),
(940,234,l),
(35,234,l),
(35,114,l),
(436,114,l),
(436,94,l),
(35,94,l),
(35,-105,ls),
(35,-214,o),
(945,-188,o),
(972,-124,c),
(943,100,l),
(941,102,l)
);
}
);
width = 980;
}
);
unicode = 44348;
},
{
glyphname = "goem-ko";
lastChange = "2022-05-01 03:02:20 +0000";
layers = (
{
layerId = "75B71696-F68C-493E-998D-CC33CA41914E";
shapes = (
{
closed = 1;
nodes = (
(620,448,l),
(581,437,o),
(501,431,o),
(395,427,c),
(395,492,l),
(589,463,l),
(618,555,o),
(615,609,o),
(615,794,c),
(55,794,l),
(55,564,l),
(345,564,l),
(345,549,o),
(340,530,o),
(333,514,c),
(125,514,l),
(125,424,l),
(20,424,l),
(20,224,l),
(321,224,o),
(567,221,o),
(650,246,c),
(650,218,l),
(950,218,l),
(950,800,l),
(650,800,l),
(650,299,l)
);
},
{
closed = 1;
nodes = (
(950,194,l),
(50,194,l),
(50,-160,l),
(950,-160,l)
);
},
{
closed = 1;
nodes = (
(650,21,l),
(350,21,l),
(350,41,l),
(650,41,l)
);
}
);
width = 980;
}
);
unicode = 44356;
},
{
glyphname = "goeb-ko";
lastChange = "2022-05-01 03:02:20 +0000";
layers = (
{
layerId = "75B71696-F68C-493E-998D-CC33CA41914E";
shapes = (
{
closed = 1;
nodes = (
(620,472,l),
(585,464,o),
(512,460,o),
(415,458,c),
(415,512,l),
(589,489,l),
(614,561,o),
(610,605,o),
(610,795,c),
(60,795,l),
(60,575,l),
(350,575,l),
(350,561,o),
(344,545,o),
(336,530,c),
(145,530,l),
(145,456,l),
(20,456,l),
(20,256,l),
(324,256,o),
(569,258,o),
(650,274,c),
(650,244,l),
(950,244,l),
(950,800,l),
(650,800,l),
(650,321,l)
);
},
{
closed = 1;
nodes = (
(360,230,l),
(50,230,l),
(50,-160,l),
(950,-160,l),
(950,220,l),
(640,220,l),
(640,176,l),
(360,176,l)
);
},
{
closed = 1;
nodes = (
(640,36,l),
(640,0,l),
(360,0,l),
(360,36,l)
);
}
);
width = 980;
}
);
unicode = 44357;
},
{
glyphname = "goes-ko";
lastChange = "2022-05-01 03:02:20 +0000";
layers = (
{
layerId = "75B71696-F68C-493E-998D-CC33CA41914E";
shapes = (
{
closed = 1;
nodes = (
(655,159,o),
(657,176,o),
(656,193,c),
(950,193,l),
(950,800,l),
(650,800,l),
(650,297,l),
(620,446,l),
(581,435,o),
(501,429,o),
(395,425,c),
(395,492,l),
(589,463,l),
(618,555,o),
(615,609,o),
(615,794,c),
(55,794,l),
(55,564,l),
(345,564,l),
(345,549,o),
(340,530,o),
(333,514,c),
(125,514,l),
(125,422,l),
(20,422,l),
(20,222,l),
(321,222,o),
(567,219,o),
(650,244,c),
(650,199,l),
(346,199,l),
(318,114,o),
(148,99,o),
(30,98,c),
(59,-160,l),
(253,-161,o),
(417,-109,o),
(524,-31,c),
(513,-108,l),
(685,-105,o),
(831,-125,o),
(914,-160,c),
(960,96,l),
(893,121,o),
(784,137,o),
(651,142,c)
);
}
);
width = 980;
}
);
unicode = 44359;
},
{
glyphname = "goeng-ko";
lastChange = "2022-05-01 03:02:20 +0000";
layers = (
{
layerId = "75B71696-F68C-493E-998D-CC33CA41914E";
shapes = (
{
closed = 1;
nodes = (
(940,800,l),
(640,800,l),
(640,308,l),
(610,457,l),
(571,446,o),
(491,440,o),
(385,436,c),
(385,501,l),
(579,472,l),
(608,564,o),
(605,618,o),
(605,793,c),
(45,793,l),
(45,563,l),
(335,563,l),
(335,552,o),
(332,537,o),
(326,523,c),
(115,523,l),
(115,433,l),
(10,433,l),
(10,233,l),
(311,233,o),
(557,230,o),
(640,255,c),
(640,206,l),
(234,206,ls),
(124,205,o),
(37,122,o),
(37,19,cs),
(37,-94,o),
(123,-170,o),
(234,-170,cs),
(764,-170,ls),
(877,-171,o),
(960,-96,o),
(960,19,cs),
(960,105,o),
(907,181,o),
(817,201,c),
(940,201,l)
);
},
{
closed = 1;
nodes = (
(312,28,o),
(307,28,o),
(307,38,cs),
(307,48,o),
(312,48,o),
(317,48,cs),
(681,48,ls),
(685,48,o),
(691,48,o),
(691,38,cs),
(691,28,o),
(685,28,o),
(681,28,cs),
(317,28,ls)
);
}
);
width = 980;
}
);
unicode = 44361;
},
{
glyphname = "gyo-ko";
lastChange = "2022-05-01 03:02:20 +0000";
layers = (
{
layerId = "75B71696-F68C-493E-998D-CC33CA41914E";
shapes = (
{
closed = 1;
nodes = (
(919,237,o),
(925,320,o),
(925,750,c),
(55,750,l),
(55,460,l),
(625,460,l),
(625,418,o),
(624,383,o),
(620,350,c),
(400,350,l),
(400,150,l),
(355,150,l),
(355,350,l),
(95,350,l),
(95,150,l),
(20,150,l),
(20,-130,l),
(960,-130,l),
(960,150,l),
(893,150,l)
);
},
{
closed = 1;
nodes = (
(640,150,l),
(640,199,l),
(840,150,l)
);
}
);
width = 980;
}
);
unicode = 44368;
},
{
glyphname = "gyon-ko";
lastChange = "2022-05-01 03:02:20 +0000";
layers = (
{
layerId = "75B71696-F68C-493E-998D-CC33CA41914E";
shapes = (
{
closed = 1;
nodes = (
(929,461,o),
(925,584,o),
(925,800,c),
(45,800,l),
(45,560,l),
(625,560,l),
(625,538,o),
(624,520,o),
(621,505,c),
(395,505,l),
(395,395,l),
(345,395,l),
(345,505,l),
(85,505,l),
(85,395,l),
(15,395,l),
(15,175,l),
(965,175,l),
(965,395,l),
(906,395,l)
);
},
{
closed = 1;
nodes = (
(635,395,l),
(635,435,l),
(836,395,l)
);
},
{
closed = 1;
nodes = (
(45,-160,l),
(945,-160,l),
(945,80,l),
(365,80,l),
(365,150,l),
(45,150,l)
);
}
);
width = 980;
}
);
unicode = 44372;
},
{
glyphname = "gyol-ko";
lastChange = "2022-10-11 15:11:50 +0000";
layers = (
{
layerId = "75B71696-F68C-493E-998D-CC33CA41914E";
shapes = (
{
closed = 1;
nodes = (
(924,523,o),
(925,614,o),
(925,811,c),
(45,811,l),
(45,571,l),
(625,571,l),
(625,561,o),
(623,548,o),
(619,535,c),
(395,535,l),
(395,461,l),
(345,461,l),
(345,535,l),
(85,535,l),
(85,461,l),
(15,461,l),
(15,261,l),
(965,261,l),
(965,461,l),
(904,461,l)
);
},
{
closed = 1;
nodes = (
(635,461,l),
(635,498,l),
(844,461,l)
);
},
{
closed = 1;
nodes = (
(927,88,o),
(853,36,o),
(548,25,c),
(548,45,l),
(829,56,o),
(933,108,o),
(933,121,cs),
(933,236,l),
(44,236,l),
(44,116,l),
(445,116,l),
(445,96,l),
(44,96,l),
(44,-105,ls),
(44,-214,o),
(938,-188,o),
(965,-124,c),
(936,90,l),
(934,92,l)
);
}
);
width = 980;
}
);
unicode = 44376;
},
{
glyphname = "gyom-ko";
lastChange = "2022-05-01 03:02:20 +0000";
layers = (
{
layerId = "75B71696-F68C-493E-998D-CC33CA41914E";
shapes = (
{
closed = 1;
nodes = (
(929,493,o),
(925,614,o),
(925,800,c),
(45,800,l),
(45,560,l),
(625,560,l),
(625,546,o),
(623,532,o),
(619,517,c),
(395,517,l),
(395,427,l),
(345,427,l),
(345,517,l),
(85,517,l),
(85,427,l),
(15,427,l),
(15,227,l),
(965,227,l),
(965,427,l),
(907,427,l)
);
},
{
closed = 1;
nodes = (
(635,427,l),
(635,465,l),
(826,427,l)
);
},
{
closed = 1;
nodes = (
(935,201,l),
(45,201,l),
(45,-161,l),
(935,-161,l)
);
},
{
closed = 1;
nodes = (
(645,40,l),
(335,40,l),
(335,60,l),
(645,60,l)
);
}
);
width = 980;
}
);
unicode = 44384;
},
{
glyphname = "gyob-ko";
lastChange = "2022-05-01 03:02:20 +0000";
layers = (
{
layerId = "75B71696-F68C-493E-998D-CC33CA41914E";
shapes = (
{
closed = 1;
nodes = (
(929,500,o),
(925,618,o),
(925,811,c),
(45,811,l),
(45,571,l),
(625,571,l),
(625,553,o),
(623,538,o),
(620,525,c),
(395,525,l),
(395,435,l),
(345,435,l),
(345,525,l),
(85,525,l),
(85,435,l),
(15,435,l),
(15,235,l),
(965,235,l),
(965,435,l),
(908,435,l)
);
},
{
closed = 1;
nodes = (
(635,435,l),
(635,468,l),
(831,435,l)
);
},
{
closed = 1;
nodes = (
(340,209,l),
(40,209,l),
(40,-160,l),
(940,-160,l),
(940,209,l),
(640,209,l),
(640,169,l),
(340,169,l)
);
},
{
closed = 1;
nodes = (
(640,54,l),
(640,15,l),
(340,15,l),
(340,54,l)
);
}
);
width = 980;
}
);
unicode = 44385;
},
{
glyphname = "gyos-ko";
lastChange = "2022-05-01 03:02:20 +0000";
layers = (
{
layerId = "75B71696-F68C-493E-998D-CC33CA41914E";
shapes = (
{
closed = 1;
nodes = (
(929,480,o),
(925,603,o),
(925,800,c),
(45,800,l),
(45,560,l),
(625,560,l),
(625,543,o),
(623,529,o),
(620,515,c),
(395,515,l),
(395,414,l),
(345,414,l),
(345,515,l),
(85,515,l),
(85,414,l),
(15,414,l),
(15,214,l),
(965,214,l),
(965,414,l),
(906,414,l)
);
},
{
closed = 1;
nodes = (
(635,414,l),
(635,454,l),
(836,414,l)
);
},
{
closed = 1;
nodes = (
(315,129,o),
(139,108,o),
(25,103,c),
(54,-160,l),
(244,-162,o),
(415,-100,o),
(524,-16,c),
(508,-124,l),
(702,-124,o),
(873,-152,o),
(919,-170,c),
(965,88,l),
(914,107,o),
(784,123,o),
(637,128,c),
(644,149,o),
(647,169,o),
(646,189,c),
(336,189,l)
);
}
);
width = 980;
}
);
unicode = 44387;
},
{
glyphname = "gyong-ko";
lastChange = "2022-05-01 03:02:20 +0000";
layers = (
{
layerId = "75B71696-F68C-493E-998D-CC33CA41914E";
shapes = (
{
closed = 1;
nodes = (
(929,494,o),
(925,605,o),
(925,800,c),
(45,800,l),
(45,560,l),
(625,560,l),
(625,545,o),
(622,530,o),
(619,515,c),
(395,515,l),
(395,429,l),
(345,429,l),
(345,515,l),
(85,515,l),
(85,429,l),
(15,429,l),
(15,219,l),
(965,219,l),
(965,429,l),
(907,429,l)
);
},
{
closed = 1;
nodes = (
(635,429,l),
(635,467,l),
(826,429,l)
);
},
{
closed = 1;
nodes = (
(96,198,o),
(19,114,o),
(19,21,cs),
(19,-94,o),
(95,-171,o),
(206,-171,cs),
(776,-171,ls),
(889,-171,o),
(962,-96,o),
(962,21,cs),
(962,114,o),
(897,198,o),
(776,198,cs),
(206,198,ls)
);
},
{
closed = 1;
nodes = (
(313,30,o),
(308,30,o),
(308,40,cs),
(308,50,o),
(313,50,o),
(318,50,cs),
(662,50,ls),
(666,50,o),
(672,50,o),
(672,40,cs),
(672,30,o),
(666,30,o),
(662,30,cs),
(318,30,ls)
);
}
);
width = 980;
}
);
unicode = 44389;
},
{
glyphname = "gu-ko";
lastChange = "2022-05-01 03:02:20 +0000";
layers = (
{
layerId = "75B71696-F68C-493E-998D-CC33CA41914E";
shapes = (
{
closed = 1;
nodes = (
(918,393,o),
(920,442,o),
(920,790,c),
(50,790,l),
(50,500,l),
(620,500,l),
(617,450,o),
(610,423,o),
(591,367,c),
(858,315,l),
(20,315,l),
(20,35,l),
(325,35,l),
(325,-160,l),
(655,-160,l),
(655,35,l),
(960,35,l),
(960,315,l),
(896,315,l)
);
}
);
width = 980;
}
);
unicode = 44396;
},
{
glyphname = "gug-ko";
lastChange = "2022-05-01 03:02:20 +0000";
layers = (
{
layerId = "75B71696-F68C-493E-998D-CC33CA41914E";
shapes = (
{
closed = 1;
nodes = (
(906,420,l),
(929,486,o),
(925,612,o),
(925,800,c),
(45,800,l),
(45,560,l),
(625,560,l),
(625,527,o),
(616,497,o),
(606,466,c),
(836,420,l),
(15,420,l),
(15,200,l),
(340,200,l),
(340,165,l),
(35,165,l),
(35,-70,l),
(625,-70,l),
(625,-160,l),
(935,-160,l),
(935,165,l),
(640,165,l),
(640,200,l),
(965,200,l),
(965,420,l)
);
}
);
width = 980;
}
);
unicode = 44397;
},
{
glyphname = "gun-ko";
lastChange = "2022-05-01 03:02:20 +0000";
layers = (
{
layerId = "75B71696-F68C-493E-998D-CC33CA41914E";
shapes = (
{
closed = 1;
nodes = (
(929,468,o),
(925,593,o),
(925,800,c),
(45,800,l),
(45,560,l),
(625,560,l),
(625,516,o),
(616,484,o),
(603,448,c),
(835,402,l),
(15,402,l),
(15,182,l),
(375,182,l),
(375,105,l),
(655,105,l),
(655,182,l),
(965,182,l),
(965,402,l),
(906,402,l)
);
},
{
closed = 1;
nodes = (
(35,-160,l),
(945,-160,l),
(945,80,l),
(345,80,l),
(345,150,l),
(35,150,l)
);
}
);
width = 980;
}
);
unicode = 44400;
},
{
glyphname = "gud-ko";
lastChange = "2022-05-01 03:02:20 +0000";
layers = (
{
layerId = "75B71696-F68C-493E-998D-CC33CA41914E";
shapes = (
{
closed = 1;
nodes = (
(907,437,l),
(929,503,o),
(925,623,o),
(925,800,c),
(45,800,l),
(45,560,l),
(625,560,l),
(625,526,o),
(615,506,o),
(606,481,c),
(826,437,l),
(15,437,l),
(15,237,l),
(350,237,l),
(350,202,l),
(45,202,l),
(45,167,l),
(44,167,l),
(44,-160,l),
(950,-160,l),
(950,25,l),
(354,25,l),
(354,57,l),
(940,57,l),
(941,202,l),
(630,202,l),
(630,237,l),
(965,237,l),
(965,437,l)
);
}
);
width = 980;
}
);
unicode = 44403;
},
{
glyphname = "gul-ko";
lastChange = "2022-10-11 15:17:17 +0000";
layers = (
{
layerId = "75B71696-F68C-493E-998D-CC33CA41914E";
shapes = (
{
closed = 1;
nodes = (
(349,277,l),
(349,242,l),
(44,242,l),
(44,122,l),
(445,122,l),
(445,102,l),
(44,102,l),
(44,-105,ls),
(44,-214,o),
(938,-188,o),
(965,-124,c),
(936,90,l),
(934,92,l),
(927,88,o),
(853,36,o),
(548,25,c),
(548,45,l),
(829,56,o),
(933,108,o),
(933,121,cs),
(933,242,l),
(629,242,l),
(629,277,l),
(965,277,l),
(965,477,l),
(904,477,l),
(924,539,o),
(925,630,o),
(925,811,c),
(45,811,l),
(45,571,l),
(625,571,l),
(625,557,o),
(618,532,o),
(610,513,c),
(837,477,l),
(15,477,l),
(15,277,l)
);
}
);
width = 980;
}
);
unicode = 44404;
},
{
glyphname = "gulg-ko";
lastChange = "2022-05-01 03:02:20 +0000";
layers = (
{
layerId = "75B71696-F68C-493E-998D-CC33CA41914E";
shapes = (
{
closed = 1;
nodes = (
(906,454,l),
(930,518,o),
(925,635,o),
(925,800,c),
(45,800,l),
(45,565,l),
(625,565,l),
(625,544,o),
(616,520,o),
(604,493,c),
(858,454,l),
(15,454,l),
(15,254,l),
(350,254,l),
(350,221,l),
(35,221,l),
(35,101,l),
(215,101,l),
(215,81,l),
(35,81,l),
(38,-115,ls),
(38,-205,o),
(501,-195,o),
(565,-140,c),
(531,-14,l),
(645,-14,l),
(645,-160,l),
(945,-160,l),
(945,221,l),
(630,221,l),
(630,254,l),
(965,254,l),
(965,454,l)
);
},
{
closed = 1;
nodes = (
(432,26,o),
(486,55,o),
(486,77,cs),
(486,181,l),
(506,181,l),
(506,77,ls),
(506,31,o),
(422,6,o),
(304,11,c),
(304,31,l)
);
}
);
width = 980;
}
);
unicode = 44405;
},
{
glyphname = "gulm-ko";
lastChange = "2022-05-01 03:02:20 +0000";
layers = (
{
layerId = "75B71696-F68C-493E-998D-CC33CA41914E";
shapes = (
{
closed = 1;
nodes = (
(906,445,l),
(930,509,o),
(925,626,o),
(925,800,c),
(45,800,l),
(45,560,l),
(625,560,l),
(625,536,o),
(616,510,o),
(604,483,c),
(851,445,l),
(15,445,l),
(15,245,l),
(350,245,l),
(350,211,l),
(36,211,l),
(36,91,l),
(226,91,l),
(226,71,l),
(36,71,l),
(39,-120,l),
(48,-193,o),
(407,-193,o),
(509,-160,c),
(945,-160,l),
(945,211,l),
(630,211,l),
(630,245,l),
(965,245,l),
(965,445,l)
);
},
{
closed = 1;
nodes = (
(466,43,o),
(413,6,o),
(305,11,c),
(305,31,l),
(413,26,o),
(477,72,o),
(477,77,cs),
(477,161,l),
(509,161,l),
(509,-69,l),
(477,49,l),
(476,50,l)
);
},
{
closed = 1;
nodes = (
(734,-20,l),
(714,-20,l),
(714,100,l),
(734,100,l)
);
}
);
width = 980;
}
);
unicode = 44406;
},
{
glyphname = "gulh-ko";
lastChange = "2022-05-01 03:02:20 +0000";
layers = (
{
layerId = "75B71696-F68C-493E-998D-CC33CA41914E";
shapes = (
{
closed = 1;
nodes = (
(906,455,l),
(930,519,o),
(925,636,o),
(925,800,c),
(45,800,l),
(45,560,l),
(625,560,l),
(625,539,o),
(616,516,o),
(606,493,c),
(851,455,l),
(15,455,l),
(15,255,l),
(350,255,l),
(350,221,l),
(35,221,l),
(35,101,l),
(225,101,l),
(225,81,l),
(35,81,l),
(38,-120,l),
(48,-200,o),
(484,-182,o),
(540,-140,c),
(557,-152,o),
(581,-160,o),
(617,-160,cs),
(797,-160,ls),
(934,-161,o),
(945,-93,o),
(945,-25,cs),
(945,21,o),
(927,48,o),
(902,62,c),
(946,62,l),
(946,196,l),
(851,196,l),
(851,234,l),
(630,234,l),
(630,255,l),
(965,255,l),
(965,455,l)
);
},
{
closed = 1;
nodes = (
(541,62,l),
(518,48,o),
(502,22,o),
(502,-25,cs),
(502,-34,l),
(476,39,l),
(475,40,l),
(465,33,o),
(412,-4,o),
(304,1,c),
(304,21,l),
(412,16,o),
(476,62,o),
(476,67,cs),
(476,216,l),
(591,216,l),
(591,196,l),
(501,196,l),
(501,62,l)
);
},
{
closed = 1;
nodes = (
(647,-19,o),
(642,-19,o),
(642,-9,cs),
(642,1,o),
(647,1,o),
(652,1,cs),
(785,1,ls),
(789,1,o),
(795,1,o),
(795,-9,cs),
(795,-19,o),
(789,-19,o),
(785,-19,cs),
(652,-19,ls)
);
}
);
width = 980;
}
);
unicode = 44411;
},
{
glyphname = "gum-ko";
lastChange = "2022-05-01 03:02:20 +0000";
layers = (
{
layerId = "75B71696-F68C-493E-998D-CC33CA41914E";
shapes = (
{
closed = 1;
nodes = (
(907,437,l),
(929,503,o),
(925,623,o),
(925,800,c),
(45,800,l),
(45,560,l),
(625,560,l),
(625,527,o),
(617,512,o),
(606,481,c),
(826,437,l),
(15,437,l),
(15,237,l),
(350,237,l),
(350,201,l),
(45,201,l),
(45,-161,l),
(935,-161,l),
(935,201,l),
(630,201,l),
(630,237,l),
(965,237,l),
(965,437,l)
);
},
{
closed = 1;
nodes = (
(335,60,l),
(645,60,l),
(645,40,l),
(335,40,l)
);
}
);
width = 980;
}
);
unicode = 44412;
},
{
glyphname = "gub-ko";
lastChange = "2022-05-01 03:02:20 +0000";
layers = (
{
layerId = "75B71696-F68C-493E-998D-CC33CA41914E";
shapes = (
{
closed = 1;
nodes = (
(929,506,o),
(925,611,o),
(925,800,c),
(45,800,l),
(45,560,l),
(625,560,l),
(625,526,o),
(616,502,o),
(608,476,c),
(826,442,l),
(15,442,l),
(15,242,l),
(355,242,l),
(355,191,l),
(625,191,l),
(625,242,l),
(965,242,l),
(965,442,l),
(908,442,l)
);
},
{
closed = 1;
nodes = (
(330,213,l),
(40,213,l),
(40,-160,l),
(940,-160,l),
(940,213,l),
(650,213,l),
(650,169,l),
(330,169,l)
);
},
{
closed = 1;
nodes = (
(650,54,l),
(650,15,l),
(330,15,l),
(330,54,l)
);
}
);
width = 980;
}
);
unicode = 44413;
},
{
glyphname = "gus-ko";
lastChange = "2022-05-01 03:02:20 +0000";
layers = (
{
layerId = "75B71696-F68C-493E-998D-CC33CA41914E";
shapes = (
{
closed = 1;
nodes = (
(929,499,o),
(925,612,o),
(925,800,c),
(45,800,l),
(45,560,l),
(625,560,l),
(625,533,o),
(616,506,o),
(606,480,c),
(836,434,l),
(15,434,l),
(15,234,l),
(336,234,l),
(336,195,l),
(646,195,l),
(646,234,l),
(965,234,l),
(965,434,l),
(906,434,l)
);
},
{
closed = 1;
nodes = (
(315,121,o),
(139,108,o),
(25,103,c),
(54,-160,l),
(244,-162,o),
(414,-103,o),
(523,-24,c),
(508,-124,l),
(702,-124,o),
(873,-152,o),
(919,-170,c),
(965,88,l),
(914,107,o),
(787,123,o),
(642,128,c),
(645,143,o),
(647,157,o),
(646,171,c),
(336,171,l)
);
}
);
width = 980;
}
);
unicode = 44415;
},
{
glyphname = "gung-ko";
lastChange = "2022-05-01 03:02:20 +0000";
layers = (
{
layerId = "75B71696-F68C-493E-998D-CC33CA41914E";
shapes = (
{
closed = 1;
nodes = (
(907,439,l),
(929,504,o),
(925,614,o),
(925,800,c),
(45,800,l),
(45,560,l),
(625,560,l),
(625,537,o),
(616,509,o),
(606,483,c),
(826,439,l),
(15,439,l),
(15,229,l),
(350,229,l),
(350,199,l),
(206,199,ls),
(96,199,o),
(19,115,o),
(19,21,cs),
(19,-94,o),
(95,-171,o),
(206,-171,cs),
(776,-171,ls),
(889,-171,o),
(962,-96,o),
(962,21,cs),
(962,115,o),
(897,199,o),
(776,199,cs),
(630,199,l),
(630,229,l),
(965,229,l),
(965,439,l)
);
},
{
closed = 1;
nodes = (
(672,30,o),
(666,30,o),
(662,30,cs),
(318,30,ls),
(313,30,o),
(308,30,o),
(308,40,cs),
(308,50,o),
(313,50,o),
(318,50,cs),
(662,50,ls),
(666,50,o),
(672,50,o),
(672,40,cs)
);
}
);
width = 980;
}
);
unicode = 44417;
},
{
glyphname = "guj-ko";
lastChange = "2022-05-01 03:02:20 +0000";
layers = (
{
layerId = "75B71696-F68C-493E-998D-CC33CA41914E";
shapes = (
{
closed = 1;
nodes = (
(908,462,l),
(929,525,o),
(925,622,o),
(925,800,c),
(45,800,l),
(45,560,l),
(625,560,l),
(625,544,o),
(618,521,o),
(608,497,c),
(823,462,l),
(15,462,l),
(15,262,l),
(350,262,l),
(350,227,l),
(43,227,l),
(43,92,l),
(277,92,l),
(207,64,o),
(110,60,o),
(33,59,c),
(61,-166,l),
(258,-166,o),
(423,-125,o),
(527,-49,c),
(516,-131,l),
(710,-126,o),
(861,-148,o),
(907,-160,c),
(943,45,l),
(891,59,o),
(773,71,o),
(627,71,c),
(630,78,o),
(633,85,o),
(635,92,c),
(928,92,l),
(928,227,l),
(630,227,l),
(630,262,l),
(965,262,l),
(965,462,l)
);
}
);
width = 980;
}
);
unicode = 44418;
},
